<?xml version="1.0" standalone="no"?>
<!-- Generator: Adobe Fireworks 10, Export SVG Extension by Aaron Beall (http://fireworks.abeall.com) . Version: 0.6.1  -->
<!DOCTYPE svg PUBLIC "-//W3C//DTD SVG 1.1//EN" "http://www.w3.org/Graphics/SVG/1.1/DTD/svg11.dtd">
<svg id="Untitled-Page%201" viewBox="0 0 17 18" style="background-color:#ffffff00" version="1.1"
	xmlns="http://www.w3.org/2000/svg" xmlns:xlink="http://www.w3.org/1999/xlink" xml:space="preserve"
	x="0px" y="0px" width="17px" height="18px"
>
	<g id="Layer%201">
		<path d="M 9.4073 1.4966 C 9.9512 1.1909 10.189 0.9927 10.189 0.9927 L 4.994 0.9927 C 3.9531 0.9927 1.0623 2.1772 1.0623 4.9429 C 1.0623 7.709 4.0603 8.3027 5.1479 8.2578 C 4.538 9.0039 5.0603 9.6855 5.3879 10.0342 C 5.7134 10.3857 5.647 10.4951 5.2572 10.4951 C 4.8655 10.4951 0.0408 10.5479 0.0408 14.0088 C 0.0408 17.4697 6.4521 17.7197 8.5593 15.8545 C 10.6665 13.9893 10.2104 11.417 8.5808 10.2549 C 6.9512 9.0918 6.343 8.543 7.386 7.6211 C 8.4288 6.6992 9.2554 5.9531 9.2554 4.2407 C 9.2554 2.5278 7.842 1.6519 7.842 1.6519 C 7.842 1.6519 8.8635 1.8042 9.4073 1.4966 ZM 8.6023 13.833 C 8.6023 15.3262 7.3372 16.0498 5.189 16.0498 C 3.0389 16.0498 1.887 14.9746 1.887 13.3721 C 1.887 11.7686 3.4521 10.9785 6.386 10.9785 C 7.1813 11.5928 8.6023 12.3389 8.6023 13.833 ZM 5.4951 7.5762 C 2.9084 7.5762 1.7349 1.52 4.7778 1.52 C 7.1461 1.4312 8.9279 7.5762 5.4951 7.5762 ZM 14.0663 3.0024 L 14.0663 1.0327 L 13.0507 1.0327 L 13.0507 3.0024 L 11.0624 3.0024 L 11.0624 4.0249 L 13.0507 4.0249 L 13.0507 5.998 L 14.0663 5.998 L 14.0663 4.0249 L 16.0215 4.0249 L 16.0215 3.0024 L 14.0663 3.0024 Z" fill="#ffffff"/>
	</g>
</svg>