<?xml version="1.0" standalone="no"?>
<!-- Generator: Adobe Fireworks 10, Export SVG Extension by Aaron Beall (http://fireworks.abeall.com) . Version: 0.6.1  -->
<!DOCTYPE svg PUBLIC "-//W3C//DTD SVG 1.1//EN" "http://www.w3.org/Graphics/SVG/1.1/DTD/svg11.dtd">
<svg id="Untitled-Page%201" viewBox="0 0 13 16" style="background-color:#ffffff00" version="1.1"
	xmlns="http://www.w3.org/2000/svg" xmlns:xlink="http://www.w3.org/1999/xlink" xml:space="preserve"
	x="0px" y="0px" width="13px" height="16px"
>
	<path d="M 1.3618 0 C 0.6109 0 0 0.6003 0 1.3382 L 0 14.6618 C 0 15.3997 0.6109 16 1.3618 16 L 11.6382 16 C 12.3891 16 13 15.3997 13 14.6618 L 13 1.3382 C 13 0.6003 12.3891 0 11.6382 0 L 1.3618 0 ZM 12 14.8088 C 12 14.9125 11.9109 15 11.8055 15 L 1.1945 15 C 1.0891 15 1 14.9125 1 14.8088 L 1 1.1912 C 1 1.0874 1.0891 1 1.1945 1 L 11.8055 1 C 11.9109 1 12 1.0874 12 1.1912 L 12 14.8088 ZM 3 12.5 C 3 12.7761 3.2487 13 3.5555 13 L 7.4445 13 C 7.7513 13 8 12.7761 8 12.5 C 8 12.2239 7.7513 12 7.4445 12 L 3.5555 12 C 3.2487 12 3 12.2239 3 12.5 ZM 3 9.5 C 3 9.7761 3.2487 10 3.5555 10 L 9.4445 10 C 9.7513 10 10 9.7761 10 9.5 C 10 9.2239 9.7513 9 9.4445 9 L 3.5555 9 C 3.2487 9 3 9.2239 3 9.5 ZM 3 6.5 C 3 6.7761 3.2487 7 3.5555 7 L 7.4445 7 C 7.7513 7 8 6.7761 8 6.5 C 8 6.2239 7.7513 6 7.4445 6 L 3.5555 6 C 3.2487 6 3 6.2239 3 6.5 ZM 3 3.5 C 3 3.7761 3.2487 4 3.5555 4 L 9.4445 4 C 9.7513 4 10 3.7761 10 3.5 C 10 3.2239 9.7513 3 9.4445 3 L 3.5555 3 C 3.2487 3 3 3.2239 3 3.5 Z" fill="#64797f"/>
</svg>