<?xml version="1.0" standalone="no"?>
<!-- Generator: Adobe Fireworks 10, Export SVG Extension by Aaron Beall (http://fireworks.abeall.com) . Version: 0.6.1  -->
<!DOCTYPE svg PUBLIC "-//W3C//DTD SVG 1.1//EN" "http://www.w3.org/Graphics/SVG/1.1/DTD/svg11.dtd">
<svg id="Untitled-Page%201" viewBox="0 0 24 24" style="background-color:#ffffff00" version="1.1"
	xmlns="http://www.w3.org/2000/svg" xmlns:xlink="http://www.w3.org/1999/xlink" xml:space="preserve"
	x="0px" y="0px" width="24px" height="24px"
>
	<g id="Layer%201">
		<path d="M 24 0 L 0 0 L 0 24 L 24 24 L 24 0 ZM 22 2 L 22 22 L 2 22 L 2 2 L 22 2 ZM 12.5054 5.0112 L 6 5 L 6 19 L 12.9933 19 C 13.0281 19 13.423 18.9548 13.6206 18.9436 C 14.3872 18.876 15.2236 18.7069 16.002 18.3462 C 16.2692 18.2222 16.5712 18.0419 16.8268 17.8276 C 17.2682 17.4557 17.5469 17.0161 17.698 16.644 C 17.7561 16.4863 17.8374 16.2722 17.8723 16.1256 C 17.9303 15.8889 17.9651 15.5958 18 15.3591 L 18 14.6489 L 17.9536 14.2996 C 17.849 13.4767 17.3379 12.3945 16.2808 11.8309 L 15.9438 11.6731 L 15.4908 11.504 C 17.0474 10.884 17.4076 9.7568 17.4076 8.6747 C 17.4076 6.0032 15.5024 5.1691 12.5054 5.0112 ZM 12.6331 7.5588 C 13.3998 7.7505 13.6437 8.3929 13.6437 8.934 C 13.6437 9.4976 13.3998 10.1514 12.5518 10.3318 C 12.4008 10.3655 12.1104 10.4106 12.0756 10.4106 L 9.7638 10.4106 L 9.7638 7.4686 L 12.0872 7.4686 C 12.1917 7.4686 12.6099 7.5588 12.6331 7.5588 ZM 12.1221 12.8905 C 13.5973 12.9355 14.2362 13.6006 14.2362 14.7166 C 14.2362 15.4042 13.969 16.1819 12.9003 16.4412 C 12.8655 16.4412 12.3774 16.5427 12.2382 16.5427 L 9.7638 16.5427 L 9.7638 12.8905 L 12.1221 12.8905 Z" fill="#53b8eb"/>
	</g>
</svg>