<?xml version="1.0" standalone="no"?>
<!-- Generator: Adobe Fireworks 10, Export SVG Extension by Aaron Beall (http://fireworks.abeall.com) . Version: 0.6.1  -->
<!DOCTYPE svg PUBLIC "-//W3C//DTD SVG 1.1//EN" "http://www.w3.org/Graphics/SVG/1.1/DTD/svg11.dtd">
<svg id="Untitled-Page%201" viewBox="0 0 24 24" style="background-color:#ffffff00" version="1.1"
	xmlns="http://www.w3.org/2000/svg" xmlns:xlink="http://www.w3.org/1999/xlink" xml:space="preserve"
	x="0px" y="0px" width="24px" height="24px"
>
	<g id="Layer%201">
		<path d="M 13.3333 24 L 13.3333 18.6667 L 10.6667 18.6667 L 10.6667 24 L 13.3333 24 ZM 13.3333 5.3333 L 13.3333 0 L 10.6667 0 L 10.6667 5.3333 L 13.3333 5.3333 ZM 6.3431 8.2289 L 8.2284 6.3436 L 4.4573 2.5724 L 2.572 4.4578 L 6.3431 8.2289 ZM 24 13.3333 L 24 10.6667 L 18.6667 10.6667 L 18.6667 13.3333 L 24 13.3333 ZM 5.3333 13.3333 L 5.3333 10.6667 L 0 10.6667 L 0 13.3333 L 5.3333 13.3333 ZM 19.5427 21.428 L 21.4285 19.5422 L 17.6573 15.7711 L 15.7716 17.6569 L 19.5427 21.428 ZM 4.4573 21.428 L 8.2289 17.6573 L 6.3431 15.7715 L 2.572 19.5427 L 4.4573 21.428 ZM 17.6569 8.2289 L 21.4276 4.4573 L 19.5422 2.572 L 15.7711 6.3431 L 17.6569 8.2289 Z" fill="#53b8eb"/>
	</g>
</svg>