<?xml version="1.0" standalone="no"?>
<!-- Generator: Adobe Fireworks 10, Export SVG Extension by Aaron Beall (http://fireworks.abeall.com) . Version: 0.6.1  -->
<!DOCTYPE svg PUBLIC "-//W3C//DTD SVG 1.1//EN" "http://www.w3.org/Graphics/SVG/1.1/DTD/svg11.dtd">
<svg id="Untitled-Page%201" viewBox="0 0 24 20" style="background-color:#ffffff00" version="1.1"
	xmlns="http://www.w3.org/2000/svg" xmlns:xlink="http://www.w3.org/1999/xlink" xml:space="preserve"
	x="0px" y="0px" width="24px" height="20px"
>
	<g id="Layer%201">
		<path d="M 19.152 0.4467 L 19.152 8.5178 L 24 4.4375 L 19.152 0.4467 ZM 16 18 L 16 13 L 22 13 L 22 18 L 16 18 ZM 0 11 L 0 20 L 16 20 L 22 20 L 24 20 L 24 18 L 24 13 L 24 11 L 22 11 L 16 11 L 0 11 ZM 14 6 L 11 6 L 11 3 L 14 3 L 14 6 ZM 9 1 L 9 3 L 5.0355 3 L 5.0355 0.4467 L 0.1875 4.4375 L 5.0355 8.5178 L 5.0355 6 L 9 6 L 9 8 L 16 8 L 16 1 L 9 1 Z" fill="#53b8eb"/>
	</g>
</svg>