<?xml version="1.0" standalone="no"?>
<!-- Generator: Adobe Fireworks 10, Export SVG Extension by Aaron Beall (http://fireworks.abeall.com) . Version: 0.6.1  -->
<!DOCTYPE svg PUBLIC "-//W3C//DTD SVG 1.1//EN" "http://www.w3.org/Graphics/SVG/1.1/DTD/svg11.dtd">
<svg id="Untitled-Page%201" viewBox="0 0 23 22" style="background-color:#ffffff00" version="1.1"
	xmlns="http://www.w3.org/2000/svg" xmlns:xlink="http://www.w3.org/1999/xlink" xml:space="preserve"
	x="0px" y="0px" width="23px" height="22px"
>
	<g id="Layer%201">
		<path d="M 21.5 20.3125 L 18.625 17 L 20.861 15.9336 L 14.4375 13.875 L 15.625 20.8125 L 17.125 18.6875 L 19.875 21.8125 L 21.5 20.3125 ZM 12 10 L 12 2 L 14 2 L 14 5 L 15 5 L 15 4 L 16 4 L 16 3 L 17 3 L 17 2 L 19 2 L 19 4 L 18 4 L 18 5 L 17 5 L 17 7 L 18 7 L 18 8 L 19 8 L 19 10 L 17 10 L 17 9 L 16 9 L 16 8 L 15 8 L 15 7 L 14 7 L 14 10 L 12 10 ZM 4 9 L 4 3 L 5 3 L 5 2 L 10 2 L 10 3 L 11 3 L 11 9 L 10 9 L 10 10 L 5 10 L 5 9 L 4 9 ZM 0 0 L 0 12 L 23 12 L 23 0 L 0 0 ZM 6 4 L 6 8 L 9 8 L 9 4 L 6 4 Z" fill="#54b8eb"/>
	</g>
</svg>