<?xml version="1.0" standalone="no"?>
<!-- Generator: Adobe Fireworks 10, Export SVG Extension by Aaron Beall (http://fireworks.abeall.com) . Version: 0.6.1  -->
<!DOCTYPE svg PUBLIC "-//W3C//DTD SVG 1.1//EN" "http://www.w3.org/Graphics/SVG/1.1/DTD/svg11.dtd">
<svg id="Untitled-Page%201" viewBox="0 0 24 19" style="background-color:#ffffff00" version="1.1"
	xmlns="http://www.w3.org/2000/svg" xmlns:xlink="http://www.w3.org/1999/xlink" xml:space="preserve"
	x="0px" y="0px" width="24px" height="19px"
>
	<g id="Layer%201">
		<path d="M 4 17 L 2 17 L 2 15 L 4 15 L 4 17 ZM 13 2 L 13 4 L 11 4 L 11 2 L 13 2 ZM 15 6 L 15 4.3547 C 19.9375 8.0625 20 10.1875 19.9917 12.9497 L 19.9917 13 L 18 13 L 18 19 L 24 19 L 24 13 L 21.9917 13 L 21.9917 12.9497 C 22.0625 11.0625 22.25 8.9375 18.2177 4 L 20.2773 4 C 20.6238 4.5952 21.2616 4.9999 22 4.9999 C 23.1045 4.9999 24 4.1045 24 3 C 24 1.8954 23.1045 1 22 1 C 21.2615 1 20.6238 1.4047 20.2773 2 L 15 2 L 15 0 L 9 0 L 9 2 L 3.7227 2 C 3.3762 1.4047 2.7385 1 2 1 C 0.8955 1 0 1.8954 0 3 C 0 4.1045 0.8955 4.9999 2 4.9999 C 2.7384 4.9999 3.3762 4.5952 3.7227 4 L 5.625 4.125 C 1.5927 9.0625 1.9375 11.0625 2.0083 12.9497 L 2.0083 13 L 0 13 L 0 19 L 6 19 L 6 13 L 4.0083 13 L 4.0083 12.9497 C 4 10.1875 4.0625 8.0625 9 4.3547 L 9 6 L 15 6 ZM 20 17 L 20 15 L 22 15 L 22 17 L 20 17 Z" fill="#53b8eb"/>
	</g>
</svg>