<?xml version="1.0" standalone="no"?>
<!-- Generator: Adobe Fireworks 10, Export SVG Extension by Aaron Beall (http://fireworks.abeall.com) . Version: 0.6.1  -->
<!DOCTYPE svg PUBLIC "-//W3C//DTD SVG 1.1//EN" "http://www.w3.org/Graphics/SVG/1.1/DTD/svg11.dtd">
<svg id="Untitled-Page%201" viewBox="0 0 24 18" style="background-color:#ffffff00" version="1.1"
	xmlns="http://www.w3.org/2000/svg" xmlns:xlink="http://www.w3.org/1999/xlink" xml:space="preserve"
	x="0px" y="0px" width="24px" height="18px"
>
	<g id="Layer%201">
		<path d="M 11.8958 7 L 9.9508 7.3263 L 8.1621 16 L 10.1071 16 C 10.385 14.6208 10.6628 13.2417 10.9407 11.9124 C 10.9928 11.6465 11.0275 11.2991 11.1317 11.0498 C 11.1317 11.0166 11.1664 11 11.2185 11 L 13.042 11 C 13.3545 11 13.8755 11.4592 13.8235 11.9412 L 12.9899 16 L 15.0391 16 L 15.8727 11.2145 C 15.8727 11.0981 15.8379 10.6555 15.8206 10.5393 C 15.699 9.8414 14.7612 9.1162 14.2576 9.0664 C 14.084 9.0498 13.9103 9.0166 13.7192 9 L 11.5485 9 C 11.479 9 11.4617 8.8837 11.4617 8.8671 L 11.8958 7 ZM 6.8596 9.1163 C 6.6338 9.0664 6.1997 9 6.1476 9 L 1.7714 9 L 0 18 L 1.9103 18 C 2.0492 17.3353 2.1708 16.9803 2.3097 16.3489 C 2.3445 16.2327 2.327 15.9668 2.5354 16 L 4.8972 16 C 6.9639 15.8838 8.5789 14.1888 8.5789 12.0454 C 8.5789 11.1481 8.2489 9.4486 6.8596 9.1163 ZM 5.0709 11 C 5.8003 11.0332 6.5123 11.3323 6.5123 12.0801 C 6.5123 12.3459 6.2865 12.9154 6.2518 13.0317 C 6.1129 13.5137 5.3835 13.8005 5.0361 13.8671 C 4.8104 13.9003 4.4458 14 4.3937 14 L 2.9175 14 C 2.8307 13.9501 2.848 13.9169 2.848 13.8837 C 2.848 13.8337 2.9175 13.6797 2.9523 13.4637 C 2.9869 13.2976 3.0217 13.1313 3.0391 12.9653 C 3.0737 12.8323 3.0912 12.6995 3.1085 12.5664 C 3.1433 12.4336 3.1606 12.3005 3.178 12.1677 L 3.2301 11.8687 C 3.2474 11.8021 3.2649 11.7356 3.2649 11.6692 C 3.2822 11.6028 3.2996 11.5363 3.2996 11.4697 C 3.3169 11.4033 3.3342 11.5981 3.3342 11.5317 C 3.3864 11.3656 3.2996 11.0997 3.5427 11 L 5.0709 11 ZM 21.5687 9 L 17.1925 9 L 15.4211 17.5574 L 15.4211 18 L 17.3488 18 C 17.4703 17.3519 17.5745 17.0303 17.7135 16.4154 C 17.7482 16.2659 17.696 16 17.9392 16 L 20.301 16 C 22.437 15.8505 24 13.8459 24 11.719 C 24 10.4562 23.3922 9.2161 21.5687 9 ZM 20.4921 11 C 21.3082 11.0166 21.916 11.3822 21.916 12.0967 C 21.916 13.0106 21.4471 13.6178 20.5615 13.8337 C 20.5267 13.8337 19.9363 14 19.8147 14 L 18.3213 14 C 18.2865 13.9668 18.2518 13.9335 18.2518 13.9003 C 18.2518 13.8503 18.3213 13.7462 18.356 13.5469 C 18.5123 12.6495 18.6686 12.0137 18.825 11.1163 C 18.825 11.0665 18.877 10.9834 18.9639 11 L 20.4921 11 ZM 3 6 L 3 4 L 21 4 L 21 6 L 23 6 L 23 0 L 1 0 L 1 6 L 3 6 Z" fill="#53b8eb"/>
	</g>
</svg>