<?xml version="1.0" standalone="no"?>
<!-- Generator: Adobe Fireworks 10, Export SVG Extension by Aaron Beall (http://fireworks.abeall.com) . Version: 0.6.1  -->
<!DOCTYPE svg PUBLIC "-//W3C//DTD SVG 1.1//EN" "http://www.w3.org/Graphics/SVG/1.1/DTD/svg11.dtd">
<svg id="Untitled-Page%201" viewBox="0 0 25 20" style="background-color:#ffffff00" version="1.1"
	xmlns="http://www.w3.org/2000/svg" xmlns:xlink="http://www.w3.org/1999/xlink" xml:space="preserve"
	x="0px" y="0px" width="25px" height="20px"
>
	<g id="Layer%201">
		<path d="M 20 11.9645 L 20 19.0355 L 24.0355 15.5 L 20 11.9645 ZM 20 0.9645 L 20 8.0355 L 24.0355 4.5 L 20 0.9645 ZM 0 19 L 15 19 L 15 17 L 0 17 L 0 19 ZM 0 15 L 9 15 L 9 13 L 0 13 L 0 15 ZM 0 8 L 15 8 L 15 6 L 0 6 L 0 8 ZM 0 4 L 9 4 L 9 2 L 0 2 L 0 4 Z" fill="#53b8eb"/>
	</g>
</svg>