<?xml version="1.0" standalone="no"?>
<!-- Generator: Adobe Fireworks 10, Export SVG Extension by Aaron Beall (http://fireworks.abeall.com) . Version: 0.6.1  -->
<!DOCTYPE svg PUBLIC "-//W3C//DTD SVG 1.1//EN" "http://www.w3.org/Graphics/SVG/1.1/DTD/svg11.dtd">
<svg id="Untitled-Page%201" viewBox="0 0 24 22" style="background-color:#ffffff00" version="1.1"
	xmlns="http://www.w3.org/2000/svg" xmlns:xlink="http://www.w3.org/1999/xlink" xml:space="preserve"
	x="0px" y="0px" width="24px" height="22px"
>
	<g id="Layer%201">
		<path d="M 11.8953 9.9109 C 10.8099 10.1023 10.0857 11.1373 10.2769 12.2214 C 10.4681 13.306 11.5026 14.0311 12.5881 13.8397 C 13.6737 13.6483 14.3959 12.6068 14.2047 11.5222 L 18.1655 8.0383 C 18.3572 7.8861 16.9025 6.4744 16.96 6.6008 L 12.9039 10.0028 C 12.59 9.8915 12.247 9.8489 11.8953 9.9109 ZM 23.875 11.875 C 23.875 6.125 19.125 0.125 11.875 0.125 C 5.375 0.125 0.125 5.375 0.125 11.875 C 0.125 15.4573 1.4924 18.7869 4.5625 21.125 L 5.655 19.385 C 3.4431 17.3722 2.125 14.459 2.125 11.875 C 2.125 6.125 6.875 2.125 11.875 2.125 C 17.625 2.125 21.875 7.375 21.875 11.875 C 21.875 14.8765 20.3778 17.467 18.305 19.26 L 19.035 21.495 C 21.8782 19.4087 23.875 16.0588 23.875 11.875 Z" fill="#53b8eb"/>
	</g>
</svg>