<?xml version="1.0" standalone="no"?>
<!-- Generator: Adobe Fireworks 10, Export SVG Extension by Aaron Beall (http://fireworks.abeall.com) . Version: 0.6.1  -->
<!DOCTYPE svg PUBLIC "-//W3C//DTD SVG 1.1//EN" "http://www.w3.org/Graphics/SVG/1.1/DTD/svg11.dtd">
<svg id="Untitled-Page%201" viewBox="0 0 21 24" style="background-color:#ffffff00" version="1.1"
	xmlns="http://www.w3.org/2000/svg" xmlns:xlink="http://www.w3.org/1999/xlink" xml:space="preserve"
	x="0px" y="0px" width="21px" height="24px"
>
	<g id="Layer%201">
		<path d="M 2.0652 16.3912 L 2.0652 7.6084 L 10.4998 2.2173 L 18.9348 7.6088 L 18.9348 16.3912 L 10.4998 21.7825 L 2.0652 16.3912 ZM 10.4998 24 L 21 17.9995 L 21 6.0001 L 10.4998 0 L 0 5.9999 L 0 18.0005 L 10.4998 24 ZM 12.5093 15.7377 L 17.8339 12.8511 L 17.8339 11.2688 L 12.5093 8.4016 L 12.5093 10.2534 L 16.2241 12.053 L 12.5093 13.8718 L 12.5093 15.7377 ZM 8.9777 16.9952 L 10.0745 16.9952 L 12.0176 7.0042 L 10.8992 7.0042 L 8.9777 16.9952 ZM 8.4854 15.7297 L 8.4854 13.8656 L 4.775 12.033 L 8.4854 10.2668 L 8.4854 8.3887 L 3.166 11.2556 L 3.166 12.8511 L 8.4854 15.7297 Z" fill="#53b8eb"/>
	</g>
</svg>