<?xml version="1.0" standalone="no"?>
<!-- Generator: Adobe Fireworks 10, Export SVG Extension by Aaron Beall (http://fireworks.abeall.com) . Version: 0.6.1  -->
<!DOCTYPE svg PUBLIC "-//W3C//DTD SVG 1.1//EN" "http://www.w3.org/Graphics/SVG/1.1/DTD/svg11.dtd">
<svg id="Untitled-Page%201" viewBox="0 0 23 21" style="background-color:#ffffff00" version="1.1"
	xmlns="http://www.w3.org/2000/svg" xmlns:xlink="http://www.w3.org/1999/xlink" xml:space="preserve"
	x="0px" y="0px" width="23px" height="21px"
>
	<g id="Layer%201">
		<path d="M 13 13 L 15 13 L 15 17 L 13 17 L 13 19 L 15 19 L 15 21 L 17 21 L 17 19 L 19 19 L 19 21 L 21 21 L 21 19 L 23 19 L 23 17 L 21 17 L 21 13 L 23 13 L 23 11 L 21 11 L 21 9 L 19 9 L 19 11 L 17 11 L 17 9 L 15 9 L 15 11 L 13 11 L 13 13 ZM 17 13 L 19 13 L 19 17 L 17 17 L 17 13 ZM 8 11 L 6 11 L 6 2 L 8 2 L 8 11 ZM 5 11 L 4 11 L 4 2 L 5 2 L 5 11 ZM 3 11 L 2 11 L 2 2 L 3 2 L 3 11 ZM 21 0 L 0 0 L 0 13 L 11 13 L 11 11 L 9 11 L 9 2 L 11 2 L 11 9 L 12 9 L 12 2 L 15 2 L 15 7 L 16 7 L 16 2 L 19 2 L 19 7 L 21 7 L 21 0 Z" fill="#53b8eb"/>
	</g>
</svg>