<?xml version="1.0" standalone="no"?>
<!-- Generator: Adobe Fireworks 10, Export SVG Extension by Aaron Beall (http://fireworks.abeall.com) . Version: 0.6.1  -->
<!DOCTYPE svg PUBLIC "-//W3C//DTD SVG 1.1//EN" "http://www.w3.org/Graphics/SVG/1.1/DTD/svg11.dtd">
<svg id="Untitled-Page%201" viewBox="0 0 23 14" style="background-color:#ffffff00" version="1.1"
	xmlns="http://www.w3.org/2000/svg" xmlns:xlink="http://www.w3.org/1999/xlink" xml:space="preserve"
	x="0px" y="0px" width="23px" height="14px"
>
	<g id="Layer%201">
		<path d="M 12 12 L 12 10 L 10 10 L 10 12 L 9 12 L 9 14 L 10 14 L 10 13 L 11 13 L 11 12 L 12 12 ZM 1 2 L 6 2 L 6 5 L 1 5 L 1 6 L 0 6 L 0 12 L 8 12 L 8 10 L 2 10 L 2 7 L 7 7 L 7 6 L 8 6 L 8 1 L 7 1 L 7 0 L 1 0 L 1 2 ZM 23 14 L 23 12 L 13 12 L 13 14 L 23 14 Z" fill="#53b8eb"/>
	</g>
</svg>