<?xml version="1.0" standalone="no"?>
<!-- Generator: Adobe Fireworks 10, Export SVG Extension by Aaron Beall (http://fireworks.abeall.com) . Version: 0.6.1  -->
<!DOCTYPE svg PUBLIC "-//W3C//DTD SVG 1.1//EN" "http://www.w3.org/Graphics/SVG/1.1/DTD/svg11.dtd">
<svg id="Untitled-Page%201" viewBox="0 0 23 23" style="background-color:#ffffff00" version="1.1"
	xmlns="http://www.w3.org/2000/svg" xmlns:xlink="http://www.w3.org/1999/xlink" xml:space="preserve"
	x="0px" y="0px" width="23px" height="23px"
>
	<g id="Layer%201">
		<path d="M 21 4 L 21 21 L 2 21 L 2 4 L 21 4 ZM 6 0 L 6 2 L 0 2 L 0 23 L 23 23 L 23 2 L 17 2 L 17 0 L 15 0 L 15 2 L 8 2 L 8 0 L 6 0 ZM 14 10 L 16 10 L 16 19 L 18 19 L 18 7 L 16 7 L 16 8 L 15 8 L 15 9 L 14 9 L 14 10 ZM 4 9 L 10 9 L 10 12 L 5 12 L 5 14 L 10 14 L 10 17 L 4 17 L 4 19 L 11 19 L 11 18 L 12 18 L 12 14 L 11 14 L 11 12 L 12 12 L 12 8 L 11 8 L 11 7 L 4 7 L 4 9 Z" fill="#53b8eb"/>
	</g>
</svg>