<?xml version="1.0" standalone="no"?>
<!-- Generator: Adobe Fireworks 10, Export SVG Extension by Aaron Beall (http://fireworks.abeall.com) . Version: 0.6.1  -->
<!DOCTYPE svg PUBLIC "-//W3C//DTD SVG 1.1//EN" "http://www.w3.org/Graphics/SVG/1.1/DTD/svg11.dtd">
<svg id="Untitled-Page%201" viewBox="0 0 22 18" style="background-color:#ffffff00" version="1.1"
	xmlns="http://www.w3.org/2000/svg" xmlns:xlink="http://www.w3.org/1999/xlink" xml:space="preserve"
	x="0px" y="0px" width="22px" height="18px"
>
	<g id="Layer%201">
		<g>
			<path d="M 6 6 L 6 7 L 4 7 L 4 4 L 6 4 L 6 0 L 0 0 L 0 4 L 2 4 L 2 15 L 6 15 L 6 16 L 12 16 L 12 12 L 6 12 L 6 13 L 4 13 L 4 9 L 6 9 L 6 10 L 12 10 L 12 6 L 6 6 ZM 16 6 L 20 6 L 20 10 L 16 10 L 16 6 ZM 20 12 L 20 16 L 16 16 L 16 12 L 20 12 ZM 22 0 L 8 0 L 8 4 L 14 4 L 14 18 L 22 18 L 22 0 Z" fill="#53b8eb"/>
		</g>
	</g>
</svg>