<?xml version="1.0" standalone="no"?>
<!-- Generator: Adobe Fireworks 10, Export SVG Extension by Aaron Beall (http://fireworks.abeall.com) . Version: 0.6.1  -->
<!DOCTYPE svg PUBLIC "-//W3C//DTD SVG 1.1//EN" "http://www.w3.org/Graphics/SVG/1.1/DTD/svg11.dtd">
<svg id="Untitled-Page%201" viewBox="0 0 23 23" style="background-color:#ffffff00" version="1.1"
	xmlns="http://www.w3.org/2000/svg" xmlns:xlink="http://www.w3.org/1999/xlink" xml:space="preserve"
	x="0px" y="0px" width="23px" height="23px"
>
	<g id="Layer%201">
		<path d="M 23 11.5 C 23 5.5 18 0 11.5 0 C 4.75 0 0 5.5 0 11.5 C 0 17.5 4.75 23 11.5 23 C 17.5 23 23 18 23 11.5 ZM 20.75 11.5 C 20.75 16.75 16.5 20.75 11.5 20.75 C 5.75 20.75 2.25 16.5 2.25 11.5 C 2.25 6.5 5.75 2.25 11.5 2.25 C 16.75 2.25 20.75 6.5 20.75 11.5 ZM 10 14 L 13 14 L 13 6 L 10 6 L 10 14 ZM 10 18 L 13 18 L 13 15 L 10 15 L 10 18 Z" fill="#53b8eb"/>
	</g>
</svg>