<?xml version="1.0" standalone="no"?>
<!-- Generator: Adobe Fireworks 10, Export SVG Extension by Aaron Beall (http://fireworks.abeall.com) . Version: 0.6.1  -->
<!DOCTYPE svg PUBLIC "-//W3C//DTD SVG 1.1//EN" "http://www.w3.org/Graphics/SVG/1.1/DTD/svg11.dtd">
<svg id="Untitled-Page%201" viewBox="0 0 23 13" style="background-color:#ffffff00" version="1.1"
	xmlns="http://www.w3.org/2000/svg" xmlns:xlink="http://www.w3.org/1999/xlink" xml:space="preserve"
	x="0px" y="0px" width="23px" height="13px"
>
	<g id="Layer%201">
		<path d="M 21 4 L 14 4 L 14 2 L 21 2 L 21 4 ZM 23 6 L 23 0 L 12 0 L 12 6 L 23 6 ZM 9 4 L 2 4 L 2 2 L 9 2 L 9 4 ZM 11 6 L 11 0 L 0 0 L 0 6 L 11 6 ZM 21 11 L 18 11 L 18 9 L 21 9 L 21 11 ZM 23 13 L 23 7 L 16 7 L 16 13 L 23 13 ZM 13 11 L 10 11 L 10 9 L 13 9 L 13 11 ZM 15 13 L 15 7 L 8 7 L 8 13 L 15 13 ZM 5 11 L 2 11 L 2 9 L 5 9 L 5 11 ZM 7 13 L 7 7 L 0 7 L 0 13 L 7 13 Z" fill="#53b8eb"/>
	</g>
</svg>