<?xml version="1.0" standalone="no"?>
<!-- Generator: Adobe Fireworks 10, Export SVG Extension by Aaron Beall (http://fireworks.abeall.com) . Version: 0.6.1  -->
<!DOCTYPE svg PUBLIC "-//W3C//DTD SVG 1.1//EN" "http://www.w3.org/Graphics/SVG/1.1/DTD/svg11.dtd">
<svg id="Untitled-Page%201" viewBox="0 0 24 20" style="background-color:#ffffff00" version="1.1"
	xmlns="http://www.w3.org/2000/svg" xmlns:xlink="http://www.w3.org/1999/xlink" xml:space="preserve"
	x="0px" y="0px" width="24px" height="20px"
>
	<path d="M 20.24 5.64 C 20.24 7.12 18.79 11.41 18.67 11.9 L 15.27 11.9 C 15.03 11.78 13.33 11.04 13.33 10.31 L 13.33 8.1 C 14.18 4.91 14.67 3.19 17.58 3.19 C 19.52 3.19 20.24 3.93 20.24 5.64 ZM 24 5.4 C 24 1.35 21.09 0 17.82 0 C 13.21 0 10.79 2.33 9.58 8.59 L 9.58 11.04 C 9.58 12.52 11.39 14.97 13.7 15.09 L 22.91 15.09 C 23.27 14.23 23.52 13.25 23.76 12.02 C 23.27 12.15 22.67 12.15 22.18 12.02 C 22.55 10.55 24 7.12 24 5.4 ZM 9.21 3.19 L 5.94 3.19 C 5.7 4.05 5.33 5.28 5.33 5.64 C 5.33 5.89 5.33 5.89 5.45 6.01 L 8.36 6.01 C 8.85 5.15 8.85 4.05 9.21 3.19 ZM 8.36 6.87 L 5.09 6.87 C 4.24 9.69 3.88 13.25 2.67 16.2 C 2.18 17.3 1.21 16.69 0.73 16.93 C 0.36 17.67 0.24 18.53 0 19.26 L 0 19.88 C 0.12 19.88 0.24 20 2.79 20 C 3.39 19.88 4 19.75 4.61 19.26 C 7.27 16.56 7.03 11.17 8.36 7.12 L 8.36 6.87 Z" fill="#53b8eb"/>
</svg>