<?xml version="1.0" standalone="no"?>
<!-- Generator: Adobe Fireworks 10, Export SVG Extension by Aaron Beall (http://fireworks.abeall.com) . Version: 0.6.1  -->
<!DOCTYPE svg PUBLIC "-//W3C//DTD SVG 1.1//EN" "http://www.w3.org/Graphics/SVG/1.1/DTD/svg11.dtd">
<svg id="Untitled-Page%201" viewBox="0 0 23 20" style="background-color:#ffffff00" version="1.1"
	xmlns="http://www.w3.org/2000/svg" xmlns:xlink="http://www.w3.org/1999/xlink" xml:space="preserve"
	x="0px" y="0px" width="23px" height="20px"
>
	<g id="Layer%201">
		<path d="M 2 6 L 11 6 L 11 2 L 21 2 L 21 18 L 2 18 L 2 6 ZM 0 0 L 0 20 L 23 20 L 23 0 L 0 0 ZM 15 13 L 15 16 L 18 16 L 18 13 L 15 13 ZM 10 13 L 10 16 L 13 16 L 13 13 L 10 13 ZM 5 13 L 5 16 L 8 16 L 8 13 L 5 13 ZM 15 8 L 15 11 L 18 11 L 18 8 L 15 8 ZM 10 8 L 10 11 L 13 11 L 13 8 L 10 8 ZM 5 8 L 5 11 L 8 11 L 8 8 L 5 8 Z" fill="#53b8eb"/>
	</g>
</svg>