<?xml version="1.0" standalone="no"?>
<!-- Generator: Adobe Fireworks 10, Export SVG Extension by Aaron Beall (http://fireworks.abeall.com) . Version: 0.6.1  -->
<!DOCTYPE svg PUBLIC "-//W3C//DTD SVG 1.1//EN" "http://www.w3.org/Graphics/SVG/1.1/DTD/svg11.dtd">
<svg id="Untitled-Page%201" viewBox="0 0 23 22" style="background-color:#ffffff00" version="1.1"
	xmlns="http://www.w3.org/2000/svg" xmlns:xlink="http://www.w3.org/1999/xlink" xml:space="preserve"
	x="0px" y="0px" width="23px" height="22px"
>
	<g id="Layer%201">
		<path d="M 0 0 L 0 22 L 23 22 L 23 0 L 0 0 ZM 2 10 L 2 2 L 14 2 L 14 10 L 9 10 L 7 10 L 2 10 ZM 7 20 L 2 20 L 2 12 L 7 12 L 7 20 ZM 14 20 L 9 20 L 9 12 L 14 12 L 14 20 ZM 21 15 L 21 20 L 16 20 L 16 15 L 21 15 ZM 21 8 L 21 13 L 16 13 L 16 8 L 21 8 ZM 21 2 L 21 6 L 16 6 L 16 2 L 21 2 Z" fill="#53b8eb"/>
	</g>
</svg>