<?xml version="1.0" standalone="no"?>
<!-- Generator: Adobe Fireworks 10, Export SVG Extension by Aaron Beall (http://fireworks.abeall.com) . Version: 0.6.1  -->
<!DOCTYPE svg PUBLIC "-//W3C//DTD SVG 1.1//EN" "http://www.w3.org/Graphics/SVG/1.1/DTD/svg11.dtd">
<svg id="Untitled-Page%201" viewBox="0 0 23 14" style="background-color:#ffffff00" version="1.1"
	xmlns="http://www.w3.org/2000/svg" xmlns:xlink="http://www.w3.org/1999/xlink" xml:space="preserve"
	x="0px" y="0px" width="23px" height="14px"
>
	<g id="Layer%201">
		<path d="M 23 0 L 0 0 L 0 14 L 23 14 L 23 0 ZM 3 5 L 2 5 L 2 2 L 3 2 L 3 5 ZM 5 5 L 4 5 L 4 2 L 5 2 L 5 5 ZM 7 5 L 6 5 L 6 2 L 7 2 L 7 5 ZM 9 5 L 8 5 L 8 2 L 9 2 L 9 5 ZM 3 12 L 2 12 L 2 9 L 3 9 L 3 12 ZM 5 12 L 4 12 L 4 9 L 5 9 L 5 12 ZM 7 12 L 6 12 L 6 9 L 7 9 L 7 12 ZM 9 12 L 8 12 L 8 9 L 9 9 L 9 12 ZM 21 12 L 10 12 L 10 9 L 19 9 L 19 5 L 10 5 L 10 2 L 21 2 L 21 12 Z" fill="#53b8eb"/>
	</g>
</svg>