<?xml version="1.0" standalone="no"?>
<!-- Generator: Adobe Fireworks 10, Export SVG Extension by Aaron Beall (http://fireworks.abeall.com) . Version: 0.6.1  -->
<!DOCTYPE svg PUBLIC "-//W3C//DTD SVG 1.1//EN" "http://www.w3.org/Graphics/SVG/1.1/DTD/svg11.dtd">
<svg id="Untitled-Page%201" viewBox="0 0 25 18" style="background-color:#ffffff00" version="1.1"
	xmlns="http://www.w3.org/2000/svg" xmlns:xlink="http://www.w3.org/1999/xlink" xml:space="preserve"
	x="0px" y="0px" width="25px" height="18px"
>
	<g id="Layer%201">
		<path d="M 20.1406 11 L 20.9844 11 C 21.4844 11 21.8438 11.0938 22.0781 11.25 C 22.3125 11.4063 22.4375 11.6563 22.4375 11.9844 C 22.4375 12.3281 22.2969 12.5781 22.0156 12.75 C 21.7344 12.9219 21.3125 13 20.75 13 L 20.1406 13 L 20.1406 11 ZM 23.5625 9.7344 C 22.9844 9.25 22.1563 9 21.0625 9 L 18.1719 9 L 18.1719 18 L 20.1406 18 L 20.1406 15 L 20.9531 15 C 22.0625 15 22.9219 14.7344 23.5156 14.2031 C 24.1094 13.6719 24.4219 12.9063 24.4219 11.9063 C 24.4219 10.9375 24.125 10.2188 23.5625 9.7344 ZM 16.0313 13.9219 C 15.7188 13.5938 15.1406 13.2656 14.3125 12.9219 C 13.6719 12.6719 13.2656 12.5 13.0938 12.4063 C 12.9219 12.3125 12.7969 12.2188 12.7188 12.1094 C 12.6406 12.0156 12.6094 11.8906 12.6094 11.75 C 12.6094 11.5313 12.7031 11.3594 12.8906 11.2188 C 13.0781 11.0781 13.3594 11 13.7188 11 C 14.0156 11 14.3125 11.0469 14.625 11.125 C 14.9375 11.2188 15.3281 11.3594 15.8125 11.5469 L 16.4531 9.7969 C 15.9844 9.5469 15.5313 9.3594 15.1094 9.2188 C 14.6719 9.0781 14.2344 9 13.7656 9 C 12.7969 9 12.0313 9.2656 11.5 9.7656 C 10.9531 10.2656 10.6875 10.9531 10.6875 11.8281 C 10.6875 12.1719 10.7656 12.4844 10.9375 12.7344 C 11.0938 12.9844 11.3125 13.2188 11.5938 13.4063 C 11.8594 13.6094 12.2656 13.8125 12.8281 14.0156 C 13.4063 14.25 13.7969 14.4219 13.9844 14.5156 C 14.1719 14.625 14.3281 14.7344 14.4219 14.8438 C 14.5156 14.9531 14.5781 15.0781 14.5781 15.2188 C 14.5781 15.4844 14.4531 15.6875 14.2344 15.8125 C 14.0156 15.9375 13.6875 16 13.2813 16 C 12.9219 16 12.5313 15.9531 12.1094 15.8281 C 11.6875 15.7188 11.1719 15.5156 10.5781 15.2344 L 10.5781 17.3125 C 11.3281 17.7813 12.1875 18 13.1563 18 C 14.2031 18 15.0156 17.75 15.6094 17.2344 C 16.2031 16.7344 16.5 16.0313 16.5 15.125 C 16.5 14.6563 16.3438 14.25 16.0313 13.9219 ZM 10 18 L 6.7031 9 L 4.2969 9 L 1 18 L 3.125 18 L 3.7969 16 L 7.2031 16 L 7.875 18 L 10 18 ZM 4.2969 14 C 4.9531 12.1094 5.3594 10.9219 5.5 10.4375 C 5.5313 10.5781 5.5781 10.7656 5.6563 11 L 6.7188 14 L 4.2969 14 ZM 22 0 L 0 0 L 0 11 L 2 7 L 2 4 L 20 4 L 20 6 L 22 6 L 22 0 Z" fill="#53b8eb"/>
	</g>
</svg>