<?xml version="1.0" standalone="no"?>
<!-- Generator: Adobe Fireworks 10, Export SVG Extension by Aaron Beall (http://fireworks.abeall.com) . Version: 0.6.1  -->
<!DOCTYPE svg PUBLIC "-//W3C//DTD SVG 1.1//EN" "http://www.w3.org/Graphics/SVG/1.1/DTD/svg11.dtd">
<svg id="Untitled-Page%201" viewBox="0 0 24 16" style="background-color:#ffffff00" version="1.1"
	xmlns="http://www.w3.org/2000/svg" xmlns:xlink="http://www.w3.org/1999/xlink" xml:space="preserve"
	x="0px" y="0px" width="24px" height="16px"
>
	<g id="Layer%201">
		<path d="M 20 12 L 19 12 L 19 16 L 20 16 L 20 12 ZM 24 12 L 23 12 L 23 16 L 24 16 L 24 12 ZM 1 12 L 0 12 L 0 16 L 1 16 L 1 12 ZM 5 12 L 4 12 L 4 16 L 5 16 L 5 12 ZM 10 0 L 0 0 L 0 6 L 4.5313 6 L 9 10.375 L 9 16 L 10 16 L 10 0 ZM 14 0 L 14 16 L 15 16 L 15 10.375 L 19.4688 6 L 24 6 L 24 0 L 14 0 Z" fill="#53b8eb"/>
	</g>
</svg>