<?xml version="1.0" standalone="no"?>
<!-- Generator: Adobe Fireworks 10, Export SVG Extension by Aaron Beall (http://fireworks.abeall.com) . Version: 0.6.1  -->
<!DOCTYPE svg PUBLIC "-//W3C//DTD SVG 1.1//EN" "http://www.w3.org/Graphics/SVG/1.1/DTD/svg11.dtd">
<svg id="Untitled-Page%201" viewBox="0 0 18 16" style="background-color:#ffffff00" version="1.1"
	xmlns="http://www.w3.org/2000/svg" xmlns:xlink="http://www.w3.org/1999/xlink" xml:space="preserve"
	x="0px" y="0px" width="18px" height="16px"
>
	<g id="Layer%201">
		<path d="M 8 3 L 8 5 L 10 5 L 10 3 L 8 3 ZM 2 6 L 2 8 L 0 8 L 0 10 L 2 10 L 2 12 L 4 12 L 4 10 L 6 10 L 6 8 L 4 8 L 4 6 L 2 6 ZM 8 6 L 8 14 L 10 14 L 10 6 L 8 6 ZM 15 0 L 15 16 L 18 16 L 18 0 L 15 0 Z" fill="#53b8eb"/>
	</g>
</svg>