<?xml version="1.0" standalone="no"?>
<!-- Generator: Adobe Fireworks 10, Export SVG Extension by Aaron Beall (http://fireworks.abeall.com) . Version: 0.6.1  -->
<!DOCTYPE svg PUBLIC "-//W3C//DTD SVG 1.1//EN" "http://www.w3.org/Graphics/SVG/1.1/DTD/svg11.dtd">
<svg id="Untitled-Page%201" viewBox="0 0 24 21" style="background-color:#ffffff00" version="1.1"
	xmlns="http://www.w3.org/2000/svg" xmlns:xlink="http://www.w3.org/1999/xlink" xml:space="preserve"
	x="0px" y="0px" width="24px" height="21px"
>
	<g id="Layer%201">
		<path d="M 21 0 L 21 21 L 24 21 L 24 0 L 21 0 ZM 18.5532 17 L 11.4822 17 L 15.0178 20.5533 L 18.5532 17 ZM 11.4822 4 L 18.5532 4 L 15.0178 0.4467 L 11.4822 4 ZM 0 17 L 0 19 L 6 19 L 6 17 L 0 17 ZM 0 13 L 0 15 L 9 15 L 9 13 L 0 13 ZM 0 2 L 0 4 L 9 4 L 9 2 L 0 2 ZM 0 6 L 0 8 L 6 8 L 6 6 L 0 6 Z" fill="#53b8eb"/>
	</g>
</svg>