<?xml version="1.0" standalone="no"?>
<!-- Generator: Adobe Fireworks 10, Export SVG Extension by Aaron Beall (http://fireworks.abeall.com) . Version: 0.6.1  -->
<!DOCTYPE svg PUBLIC "-//W3C//DTD SVG 1.1//EN" "http://www.w3.org/Graphics/SVG/1.1/DTD/svg11.dtd">
<svg id="Untitled-Page%201" viewBox="0 0 24 24" style="background-color:#ffffff00" version="1.1"
	xmlns="http://www.w3.org/2000/svg" xmlns:xlink="http://www.w3.org/1999/xlink" xml:space="preserve"
	x="0px" y="0px" width="24px" height="24px"
>
	<g id="Layer%201">
		<path d="M 13.4688 18.0029 L 24 18.0029 L 24 0.956 L 0 0.956 L 0 18.0029 L 5.9854 18.0029 L 5.9854 22.9814 C 5.9854 23.3847 6.2275 23.748 6.5986 23.9033 C 6.7236 23.956 6.8555 23.9814 6.9854 23.9814 C 7.2432 23.9814 7.4961 23.8818 7.6865 23.6943 L 13.4688 18.0029 ZM 22 2.9561 L 22 16.0029 L 12.6494 16.0029 L 7.9854 20.5938 L 7.9854 16.0029 L 2 16.0029 L 2 2.9561 L 22 2.9561 ZM 5 10 L 5 12 L 12 12 L 12 10 L 5 10 ZM 5 6 L 5 8 L 18 8 L 18 6 L 5 6 Z" fill="#53b8eb"/>
	</g>
</svg>