<?xml version="1.0" standalone="no"?>
<!-- Generator: Adobe Fireworks 10, Export SVG Extension by Aaron Beall (http://fireworks.abeall.com) . Version: 0.6.1  -->
<!DOCTYPE svg PUBLIC "-//W3C//DTD SVG 1.1//EN" "http://www.w3.org/Graphics/SVG/1.1/DTD/svg11.dtd">
<svg id="Untitled-Page%201" viewBox="0 0 23 23" style="background-color:#ffffff00" version="1.1"
	xmlns="http://www.w3.org/2000/svg" xmlns:xlink="http://www.w3.org/1999/xlink" xml:space="preserve"
	x="0px" y="0px" width="23px" height="23px"
>
	<g id="Layer%201">
		<path d="M 23 0 L 0 0 L 0 18 L 23 18 L 23 0 ZM 21 15.28 L 21 16 L 2 16 L 2 12.105 L 6.5 8.25 C 6.75 8.5 12.25 13.625 12.5 13.75 C 12.8401 13.92 15.75 11.3125 15.75 11.25 C 17.0417 12.3264 19.9093 14.6543 21 15.28 ZM 21 2 L 21 13.34 C 19.5222 12.1921 15.5 9.3035 15.5 9.25 C 15.5 8.7499 13.5 10.75 12.5 11.5 C 12 11 6.6875 6.25 6.5 6.25 C 6.1628 6.25 3.6085 8.6102 2 10.1851 L 2 2 L 21 2 ZM 13 5.5 C 13 6.3284 13.6716 7 14.5 7 C 15.3284 7 16 6.3284 16 5.5 C 16 4.6716 15.3284 4 14.5 4 C 13.6716 4 13 4.6716 13 5.5 ZM 15 20 L 15 23 L 18 23 L 18 20 L 15 20 ZM 10 20 L 10 23 L 13 23 L 13 20 L 10 20 ZM 5 20 L 5 23 L 8 23 L 8 20 L 5 20 Z" fill="#53b8eb"/>
	</g>
</svg>