<?xml version="1.0" standalone="no"?>
<!-- Generator: Adobe Fireworks 10, Export SVG Extension by Aaron Beall (http://fireworks.abeall.com) . Version: 0.6.1  -->
<!DOCTYPE svg PUBLIC "-//W3C//DTD SVG 1.1//EN" "http://www.w3.org/Graphics/SVG/1.1/DTD/svg11.dtd">
<svg id="Untitled-Page%201" viewBox="0 0 24 22" style="background-color:#ffffff00" version="1.1"
	xmlns="http://www.w3.org/2000/svg" xmlns:xlink="http://www.w3.org/1999/xlink" xml:space="preserve"
	x="0px" y="0px" width="24px" height="22px"
>
	<g id="Layer%201">
		<path d="M 17 22 L 24 22 L 24 20 L 17 20 L 17 22 ZM 18 18 L 18 19 L 23 19 L 23 18 L 24 18 L 24 9 L 22 9 L 22 17 L 19 17 L 19 9 L 17 9 L 17 18 L 18 18 ZM 10.9063 10 L 11.9063 10 L 10.8594 18 L 9.8594 18 L 9.5 19 L 13.5 19 L 13.8594 18 L 12.8594 18 L 13.9063 10 L 14.9063 10 L 15.2656 9 L 11.2656 9 L 10.9063 10 ZM 7 19 L 7 18 L 8 18 L 8 15 L 7 15 L 7 13 L 8 13 L 8 10 L 7 10 L 7 9 L 0 9 L 0 19 L 7 19 ZM 4.5 17 L 3 17 L 3 15 L 5 15 L 5 17 L 4.5 17 ZM 5 11 L 5 13 L 3 13 L 3 11 L 4.5 11 L 5 11 ZM 3 6 L 3 4 L 21 4 L 21 6 L 23 6 L 23 0 L 1 0 L 1 6 L 3 6 Z" fill="#53b8eb"/>
	</g>
</svg>