<?xml version="1.0" standalone="no"?>
<!-- Generator: Adobe Fireworks 10, Export SVG Extension by Aaron Beall (http://fireworks.abeall.com) . Version: 0.6.1  -->
<!DOCTYPE svg PUBLIC "-//W3C//DTD SVG 1.1//EN" "http://www.w3.org/Graphics/SVG/1.1/DTD/svg11.dtd">
<svg id="Untitled-Page%201" viewBox="0 0 32 28" style="background-color:#ffffff00" version="1.1"
	xmlns="http://www.w3.org/2000/svg" xmlns:xlink="http://www.w3.org/1999/xlink" xml:space="preserve"
	x="0px" y="0px" width="32px" height="28px"
>
	<g id="Layer%201">
		<g>
			<path d="M 23.5173 26.3481 L 19.5356 26.3481 C 19.392 26.3481 19.2745 26.2302 19.2745 26.0857 L 19.2745 25.1116 C 19.2745 24.9673 19.157 24.8491 19.0134 24.8491 L 13.442 24.8491 C 13.2982 24.8491 13.1807 24.9673 13.1807 25.1116 L 13.1807 26.0857 C 13.1807 26.2302 13.0633 26.3481 12.9196 26.3481 L 9.9261 26.3481 C 9.7825 26.3481 9.665 26.4663 9.665 26.6106 L 9.665 27.7375 C 9.665 27.8818 9.7825 28 9.9261 28 L 23.5172 28 C 23.6609 28 23.7783 27.8818 23.7783 27.7375 L 23.7783 26.6106 C 23.7784 26.4666 23.661 26.3481 23.5173 26.3481 Z" fill="#6bbd49"/>
			<path d="M 30.2071 0 L 1.7944 0 C 0.8058 0 0.0016 0.8083 0.0016 1.8022 L 0 21.6484 C 0 22.6421 0.8045 23.4502 1.7929 23.4502 L 30.2071 23.4502 C 31.1955 23.4502 32 22.6421 32 21.6484 L 32 1.8022 C 32 0.8086 31.1957 0 30.2071 0 ZM 16.0008 21.8943 C 15.5544 21.8943 15.1927 21.5308 15.1927 21.0825 C 15.1927 20.634 15.5544 20.2703 16.0008 20.2703 C 16.4467 20.2703 16.8085 20.634 16.8085 21.0825 C 16.8085 21.5308 16.4467 21.8943 16.0008 21.8943 ZM 30.6429 19.3965 L 1.3571 19.3965 L 1.3585 1.8022 C 1.3585 1.5647 1.5582 1.364 1.7944 1.364 L 30.2071 1.364 C 30.4432 1.364 30.6429 1.5647 30.6429 1.8022 L 30.6429 19.3965 Z" fill="#6bbd49"/>
			<path d="M 13.0665 7.4951 C 12.986 7.4436 12.8925 7.4165 12.7953 7.4165 C 12.722 7.4165 12.649 7.4326 12.5841 7.4629 L 7.545 9.8179 C 7.3687 9.9006 7.2546 10.0801 7.2546 10.2754 L 7.2546 10.3459 C 7.2546 10.541 7.3688 10.7207 7.5455 10.8035 L 12.5848 13.1592 C 12.7382 13.2305 12.9217 13.2185 13.0666 13.1262 C 13.2111 13.0334 13.2979 12.8743 13.2979 12.7012 L 13.2979 12.6755 C 13.2979 12.48 13.184 12.3003 13.0074 12.2178 L 8.9232 10.3108 L 13.0075 8.4033 C 13.184 8.3208 13.2979 8.1411 13.2979 7.9458 L 13.2979 7.9202 C 13.2979 7.7468 13.2113 7.5879 13.0665 7.4951 Z" fill="#6bbd49"/>
			<path d="M 16.9567 4.6123 L 16.9316 4.6123 C 16.7123 4.6123 16.5201 4.7529 16.4532 4.9624 L 13.1326 15.3037 C 13.0847 15.4551 13.1121 15.624 13.2062 15.7537 C 13.3003 15.8833 13.4518 15.9604 13.6114 15.9604 L 13.6366 15.9604 C 13.8556 15.9604 14.0475 15.8198 14.1143 15.6104 L 17.4347 5.27 C 17.4832 5.1179 17.4559 4.949 17.3617 4.8188 C 17.2678 4.6897 17.1162 4.6123 16.9567 4.6123 Z" fill="#6bbd49"/>
			<path d="M 25.0229 9.8179 L 19.9835 7.4624 C 19.92 7.4326 19.8452 7.4163 19.7732 7.4163 C 19.6759 7.4163 19.5822 7.4434 19.5022 7.4946 C 19.3568 7.5879 19.2701 7.7468 19.2701 7.9199 L 19.2701 7.9456 C 19.2701 8.1411 19.3843 8.3208 19.5612 8.4038 L 23.6447 10.3105 L 19.5605 12.218 C 19.3838 12.3003 19.2698 12.48 19.2698 12.6755 L 19.2698 12.7012 C 19.2698 12.8743 19.3566 13.0334 19.5023 13.1267 C 19.6448 13.218 19.8269 13.2312 19.9849 13.158 L 25.0233 10.8032 C 25.1993 10.7207 25.3134 10.541 25.3134 10.3457 L 25.3134 10.2754 C 25.3134 10.0801 25.1993 9.9004 25.0229 9.8179 Z" fill="#6bbd49"/>
		</g>
	</g>
</svg>