<?xml version="1.0" standalone="no"?>
<!-- Generator: Adobe Fireworks 10, Export SVG Extension by Aaron Beall (http://fireworks.abeall.com) . Version: 0.6.1  -->
<!DOCTYPE svg PUBLIC "-//W3C//DTD SVG 1.1//EN" "http://www.w3.org/Graphics/SVG/1.1/DTD/svg11.dtd">
<svg id="Untitled-Page%201" viewBox="0 0 91 56" style="background-color:#ffffff00" version="1.1"
	xmlns="http://www.w3.org/2000/svg" xmlns:xlink="http://www.w3.org/1999/xlink" xml:space="preserve"
	x="0px" y="0px" width="91px" height="56px"
>
	<g id="Layer%201">
		<path d="M 77.7855 10.9207 L 77.7855 11.1116 L 77.7855 47.8406 L 82.1008 47.8406 L 82.1008 11.1116 L 82.1008 10.9207 C 82.1008 9.2717 81.4557 7.7737 80.4124 6.6567 L 77.3562 9.7244 C 77.6201 10.0535 77.7855 10.4658 77.7855 10.9207 ZM 12.944 11.1123 L 12.944 10.9207 C 12.944 9.8643 13.8002 9.0032 14.8542 9.0032 L 62.5732 9.0032 L 66.8859 4.6733 L 14.8542 4.6733 C 11.4212 4.6733 8.6295 7.4778 8.6295 10.9207 L 8.6295 11.1123 L 8.6295 47.8406 L 12.944 47.8406 L 12.944 11.1123 ZM 45.3645 6.1528 C 45.7404 6.1528 46.0474 6.4587 46.0474 6.8379 C 46.0474 7.2168 45.7395 7.5227 45.3645 7.5227 C 44.9868 7.5227 44.682 7.2168 44.682 6.8379 C 44.682 6.4587 44.9868 6.1528 45.3645 6.1528 ZM 45.3743 30.2915 C 45.3569 30.2915 45.3316 30.2871 45.3098 30.2656 L 38.3484 23.2798 C 37.8543 22.7839 37.198 22.5112 36.4991 22.5112 C 35.801 22.5112 35.1452 22.7839 34.6511 23.2798 C 34.1579 23.7749 33.8855 24.4331 33.8855 25.1335 C 33.8855 25.835 34.1579 26.4937 34.652 26.9878 L 43.5263 35.8933 C 44.0195 36.3892 44.6767 36.6638 45.3751 36.6638 C 46.0732 36.6638 46.7299 36.3909 47.2222 35.895 L 78.5257 4.4788 C 79.0172 3.9856 79.29 3.3271 79.2917 2.6248 C 79.2909 1.9224 79.0189 1.2642 78.5257 0.7693 C 78.0316 0.2742 77.3749 0 76.6773 0 C 75.9797 0 75.3221 0.2734 74.8297 0.7693 L 45.44 30.2656 C 45.4191 30.2871 45.3925 30.2915 45.3743 30.2915 ZM 53.498 50.7148 C 53.498 52.3203 51.8967 52.3203 51.8967 52.3203 L 39.1016 52.3203 C 39.1016 52.3203 37.502 52.3203 37.502 50.7148 L 0 50.7148 L 0 51.8494 C 0 56 4.0177 56 4.0177 56 L 86.8481 56 C 86.8481 56 91 56 91 51.8494 L 91 50.7148 L 53.498 50.7148 Z" fill="#53b9e6"/>
	</g>
</svg>