<?xml version="1.0" standalone="no"?>
<!-- Generator: Adobe Fireworks 10, Export SVG Extension by Aaron Beall (http://fireworks.abeall.com) . Version: 0.6.1  -->
<!DOCTYPE svg PUBLIC "-//W3C//DTD SVG 1.1//EN" "http://www.w3.org/Graphics/SVG/1.1/DTD/svg11.dtd">
<svg id="Untitled-Page%201" viewBox="0 0 32 25" style="background-color:#ffffff00" version="1.1"
	xmlns="http://www.w3.org/2000/svg" xmlns:xlink="http://www.w3.org/1999/xlink" xml:space="preserve"
	x="0px" y="0px" width="32px" height="25px"
>
	<g id="Layer%201">
		<path d="M 10.0178 7.8406 L 1.0136 7.8406 C 0.4545 7.8406 0 8.3042 0 8.8743 L 0 23.9663 C 0 24.5361 0.4545 25 1.0136 25 L 10.0178 25 C 10.5765 25 11.0314 24.5361 11.0314 23.9663 L 11.0314 8.8743 C 11.0314 8.3042 10.5765 7.8406 10.0178 7.8406 ZM 4.405 8.8948 L 6.6263 8.8948 C 6.7323 8.8948 6.8184 8.9824 6.8184 9.0908 C 6.8184 9.199 6.7324 9.2866 6.6263 9.2866 L 4.405 9.2866 C 4.2989 9.2866 4.213 9.199 4.213 9.0908 C 4.213 8.9824 4.2989 8.8948 4.405 8.8948 ZM 5.5022 24.2739 C 5.2125 24.2739 4.9776 24.0344 4.9776 23.739 C 4.9776 23.4434 5.2125 23.2041 5.5022 23.2041 C 5.792 23.2041 6.0268 23.4434 6.0268 23.739 C 6.0268 24.0344 5.792 24.2739 5.5022 24.2739 ZM 10.1605 22.7017 C 10.1605 22.8396 10.0522 22.9524 9.92 22.9524 L 1.1116 22.9524 C 0.9794 22.9524 0.8712 22.8396 0.8712 22.7017 L 0.8712 10.1609 C 0.8712 10.0229 0.9794 9.9102 1.1116 9.9102 L 9.92 9.9102 C 10.0522 9.9102 10.1605 10.0229 10.1605 10.1609 L 10.1605 22.7017 ZM 30.4294 0 L 5.5391 0 C 4.6731 0 3.9686 0.7185 3.9686 1.6018 L 3.9686 5.7795 C 3.9686 6.3318 3.9284 6.4099 4.2917 6.4099 L 4.9149 6.4099 C 5.2197 6.4099 5.1572 6.3318 5.1572 5.7693 L 5.1572 1.6018 C 5.1572 1.3906 5.3322 1.2122 5.5391 1.2122 L 30.4294 1.2122 C 30.6362 1.2122 30.8112 1.3906 30.8112 1.6018 L 30.8112 17.2393 L 13.066 17.2393 C 13.066 17.2393 12.4406 17.238 12.4406 18.0625 L 12.4406 20.0186 C 12.4406 20.842 13.0862 20.842 13.0862 20.842 L 30.4294 20.842 C 31.2952 20.842 32 20.1238 32 19.2407 L 32 1.6018 C 32 0.7185 31.2954 0 30.4294 0 ZM 17.9843 19.4592 C 17.5932 19.4592 17.2764 19.1362 17.2764 18.7375 C 17.2764 18.3391 17.5932 18.0159 17.9843 18.0159 C 18.3749 18.0159 18.6919 18.3391 18.6919 18.7375 C 18.6919 19.1362 18.3749 19.4592 17.9843 19.4592 ZM 24.569 23.4177 L 21.0809 23.4177 C 20.955 23.4177 20.8522 23.313 20.8522 23.1846 L 20.8522 22.3186 C 20.8522 22.1904 20.7493 22.0854 20.6235 22.0854 L 15.7427 22.0854 C 15.6168 22.0854 15.5139 22.1904 15.5139 22.3186 L 15.5139 23.1846 C 15.5139 23.313 15.4109 23.4177 15.285 23.4177 L 12.6628 23.4177 C 12.5369 23.4177 12.434 23.5227 12.434 23.6509 L 12.434 24.6526 C 12.434 24.7808 12.5369 24.8857 12.6628 24.8857 L 24.5688 24.8857 C 24.6947 24.8857 24.7975 24.7808 24.7975 24.6526 L 24.7975 23.6509 C 24.7977 23.5229 24.6949 23.4177 24.569 23.4177 Z" fill="#6bbd49"/>
	</g>
</svg>