<?xml version="1.0" standalone="no"?>
<!-- Generator: Adobe Fireworks 10, Export SVG Extension by Aaron Beall (http://fireworks.abeall.com) . Version: 0.6.1  -->
<!DOCTYPE svg PUBLIC "-//W3C//DTD SVG 1.1//EN" "http://www.w3.org/Graphics/SVG/1.1/DTD/svg11.dtd">
<svg id="Untitled-Page%201" viewBox="0 0 78 56" style="background-color:#ffffff00" version="1.1"
	xmlns="http://www.w3.org/2000/svg" xmlns:xlink="http://www.w3.org/1999/xlink" xml:space="preserve"
	x="0px" y="0px" width="78px" height="56px"
>
	<g id="Layer%201">
		<path d="M 18.0226 8.9589 C 18.0226 13.907 13.9871 17.9176 9.0115 17.9176 C 4.0365 17.9176 0.0011 13.907 0.0011 8.9589 C 0.0011 4.0107 4.0365 0 9.0115 0 C 13.9871 -0.001 18.0226 4.0096 18.0226 8.9589 ZM 9.0105 36.1481 C 4.0354 36.1481 0 40.1592 0 45.1067 C 0 50.0542 4.0354 54.0658 9.0105 54.0658 C 13.9869 54.0658 18.0214 50.0542 18.0214 45.1067 C 18.0214 40.1592 13.9871 36.1481 9.0105 36.1481 ZM 31.5141 6.1615 L 75.335 6.1615 C 76.806 6.1615 78 4.9755 78 3.5116 C 78 2.048 76.8073 0.8617 75.335 0.8617 L 31.5141 0.8617 C 30.0432 0.8617 28.8492 2.048 28.8492 3.5116 C 28.8492 4.9755 30.0432 6.1615 31.5141 6.1615 ZM 31.5141 19.1152 L 59.94 19.1152 C 61.4122 19.1152 62.6051 17.9283 62.6051 16.4655 C 62.6051 15.0017 61.4124 13.8158 59.94 13.8158 L 31.5141 13.8158 C 30.0432 13.8158 28.8492 15.0007 28.8492 16.4655 C 28.8492 17.9296 30.0432 19.1152 31.5141 19.1152 ZM 75.335 37.7473 L 31.5141 37.7473 C 30.0432 37.7473 28.8492 38.9333 28.8492 40.397 C 28.8492 41.861 30.0432 43.047 31.5141 43.047 L 75.335 43.047 C 76.806 43.047 78 41.861 78 40.397 C 78 38.9333 76.806 37.7473 75.335 37.7473 ZM 59.94 50.7007 L 31.5141 50.7007 C 30.0432 50.7007 28.8492 51.8855 28.8492 53.3503 C 28.8492 54.814 30.0432 56 31.5141 56 L 59.94 56 C 61.4122 56 62.6051 54.8142 62.6051 53.3503 C 62.6051 51.8867 61.4112 50.7007 59.94 50.7007 Z" fill="#53b9e6"/>
	</g>
</svg>