<?xml version="1.0" standalone="no"?>
<!-- Generator: Adobe Fireworks 10, Export SVG Extension by Aaron Beall (http://fireworks.abeall.com) . Version: 0.6.1  -->
<!DOCTYPE svg PUBLIC "-//W3C//DTD SVG 1.1//EN" "http://www.w3.org/Graphics/SVG/1.1/DTD/svg11.dtd">
<svg id="Untitled-Page%201" viewBox="0 0 72 72" style="background-color:#ffffff00" version="1.1"
	xmlns="http://www.w3.org/2000/svg" xmlns:xlink="http://www.w3.org/1999/xlink" xml:space="preserve"
	x="0px" y="0px" width="72px" height="72px"
>
	<g id="Layer%201">
		<g>
			<path d="M 11.5966 53.9587 C 12.5275 53.0253 13.7209 52.2496 14.9263 51.7546 C 14.2166 50.9366 13.5491 50.1151 12.9277 49.2963 C 11.1821 50.146 9.5061 51.3116 8.1501 52.6713 C 3.9995 56.8333 1.8687 69.7404 1.8687 69.7404 C 1.8687 69.7404 14.7413 67.6041 18.892 63.4423 C 20.2378 62.0928 21.3928 60.4272 22.2386 58.6913 C 21.425 58.0616 20.6096 57.387 19.7981 56.6699 C 19.304 57.8712 18.5337 59.0583 17.6082 59.9865 C 15.2491 62.3517 8.7634 62.827 8.7634 62.827 C 8.7634 62.827 9.2375 56.3241 11.5966 53.9587 ZM 24.3198 63.348 C 24.8159 62.6113 25.5969 61.9362 26.394 61.5308 C 25.9125 61.2456 25.4258 60.9418 24.9359 60.62 C 23.8853 61.3177 22.9189 62.2444 22.2505 63.2371 C 20.564 65.7411 21.217 72 21.217 72 C 21.217 72 27.9663 69.2078 29.653 66.7037 C 30.2671 65.7917 30.6935 64.73 30.8887 63.7015 C 30.3528 63.5073 29.802 63.281 29.2393 63.0249 C 29.2036 63.7657 28.925 64.6012 28.4624 65.288 C 27.5039 66.7113 24.0186 67.8403 24.0186 67.8403 C 24.0186 67.8403 23.3612 64.7711 24.3198 63.348 ZM 8.6288 47.6147 C 7.2095 48.5759 4.1483 47.9167 4.1483 47.9167 C 4.1483 47.9167 5.2747 44.4222 6.6941 43.4609 C 7.3542 43.0139 8.1526 42.7379 8.8708 42.6865 C 8.6133 42.1272 8.3848 41.58 8.1869 41.0465 C 7.1893 41.2495 6.165 41.6692 5.282 42.2672 C 2.7847 43.9584 0 50.7258 0 50.7258 C 0 50.7258 6.2422 51.3806 8.7395 49.6896 C 9.717 49.0277 10.6301 48.0741 11.3228 47.0358 C 11.0016 46.5498 10.6982 46.0675 10.4124 45.5895 C 10.0056 46.3695 9.3467 47.1285 8.6288 47.6147 ZM 34.5225 32.6876 C 35.8047 31.4017 37.8591 31.377 39.1111 32.6322 C 40.363 33.8875 40.3381 35.9474 39.0559 37.2332 C 37.7734 38.5189 35.7192 38.5438 34.4673 37.2885 C 33.2153 36.0332 33.2401 33.9733 34.5225 32.6876 ZM 41.0586 26.1339 C 42.3411 24.848 44.3953 24.8232 45.6472 26.0786 C 46.8989 27.3337 46.8744 29.3936 45.5919 30.6794 C 44.3097 31.9652 42.2554 31.9901 41.0034 30.7347 C 39.7515 29.4794 39.7764 27.4196 41.0586 26.1339 ZM 49.4229 11.8378 C 52.3016 8.9514 56.9692 8.9519 59.8485 11.8391 C 62.7278 14.726 62.7284 19.4061 59.8497 22.2926 C 56.9709 25.1791 52.3033 25.1783 49.4241 22.2915 C 46.5449 19.4044 46.5442 14.7242 49.4229 11.8378 ZM 47.3821 2.3688 L 21.6482 28.1718 C 16.4026 28.7435 11.8783 29.7859 10.5671 31.1005 C 7.2025 34.4741 11.2065 43.9589 19.5105 52.2855 C 27.8147 60.6118 37.2739 64.6265 40.6385 61.2528 C 41.9321 59.9558 42.9105 55.4718 43.4424 50.2594 L 68.4625 25.1721 C 68.9037 25.0278 69.285 24.8018 69.5956 24.4905 C 72.0571 22.0225 72.9929 3.8109 70.6506 1.4623 C 68.0565 -1.1387 50.1458 0.0521 47.6841 2.5204 L 47.6102 2.5974 L 47.3821 2.3688 Z" fill="#53b8eb"/>
		</g>
	</g>
</svg>