<?xml version="1.0" standalone="no"?>
<!-- Generator: Adobe Fireworks 10, Export SVG Extension by Aaron Beall (http://fireworks.abeall.com) . Version: 0.6.1  -->
<!DOCTYPE svg PUBLIC "-//W3C//DTD SVG 1.1//EN" "http://www.w3.org/Graphics/SVG/1.1/DTD/svg11.dtd">
<svg id="Untitled-Page%201" viewBox="0 0 86 101" style="background-color:#ffffff00" version="1.1"
	xmlns="http://www.w3.org/2000/svg" xmlns:xlink="http://www.w3.org/1999/xlink" xml:space="preserve"
	x="0px" y="0px" width="86px" height="101px"
>
	<g id="Layer%201">
		<path d="M 57.3613 77.7012 C 59.5742 74.0029 62.8281 72.1074 67.1426 72.0566 C 71.457 72.0059 73.6338 69.8086 73.7041 65.4844 C 73.7656 61.1797 75.6406 57.9248 79.3389 55.7227 C 83.0469 53.5098 83.8516 50.5342 81.7383 46.7651 C 79.6367 43.0049 79.6367 39.2461 81.7383 35.478 C 83.8496 31.7188 83.0508 28.748 79.3389 26.5352 C 75.6406 24.3169 73.7607 21.0688 73.7041 16.7441 C 73.6338 12.439 71.457 10.2422 67.1426 10.1909 C 62.8281 10.1299 59.5742 8.2461 57.3613 4.5469 C 55.9512 2.1826 54.2305 0.999 52.1943 0.999 C 51.0361 0.999 49.7764 1.3818 48.4141 2.1479 C 46.5342 3.1992 44.6523 3.7246 42.771 3.7246 C 40.8892 3.7246 39.0073 3.1992 37.1279 2.1479 C 35.7632 1.3843 34.502 1.002 33.3433 1.002 C 31.3062 1.0015 29.5864 2.1826 28.1748 4.5469 C 25.9668 8.25 22.708 10.1348 18.3989 10.1909 C 14.0938 10.2422 11.9072 12.439 11.8462 16.7441 C 11.7759 21.0688 9.9009 24.312 6.2031 26.5352 C 2.4951 28.748 1.6812 31.7148 3.8032 35.478 C 5.915 39.2471 5.915 43.0049 3.8032 46.7651 C 1.6812 50.5342 2.4902 53.5137 6.2031 55.7227 C 9.9009 57.9248 11.7813 61.1797 11.8462 65.4844 C 11.9072 69.8047 14.0952 72.0059 18.3989 72.0566 C 22.7129 72.1074 25.9668 74.002 28.1802 77.7012 C 29.5894 80.0625 31.3081 81.2461 33.3413 81.2461 C 34.501 81.2461 35.7627 80.8613 37.1279 80.0908 C 39.0073 79.0498 40.8892 78.5293 42.771 78.5293 C 44.6523 78.5293 46.5342 79.0498 48.4141 80.0908 C 49.7793 80.8594 51.042 81.2432 52.2021 81.2432 C 54.2363 81.2432 55.9561 80.0625 57.3613 77.7012 ZM 52.1768 76.2422 C 52.0684 76.2354 51.6533 76.1768 50.8359 75.7168 C 48.2148 74.2656 45.502 73.5293 42.771 73.5293 C 40.04 73.5293 37.3262 74.2656 34.6704 75.7363 C 33.8994 76.1719 33.4912 76.2354 33.3687 76.2441 C 33.2705 76.1787 32.937 75.915 32.4707 75.1338 C 29.3516 69.9209 24.5063 67.1279 18.458 67.0566 C 17.5513 67.0459 17.1699 66.8848 17.0767 66.8379 C 17.0278 66.7432 16.8589 66.3516 16.8457 65.4092 C 16.7544 59.3574 13.959 54.5215 8.7598 51.4258 C 7.9771 50.96 7.7153 50.626 7.6509 50.5298 C 7.6592 50.4146 7.7202 49.9995 8.1626 49.2134 C 11.1323 43.9258 11.1333 38.3311 8.1587 33.022 C 7.7271 32.2568 7.6621 31.8462 7.6528 31.7285 C 7.7202 31.6284 7.9878 31.293 8.7793 30.8203 C 13.958 27.707 16.7471 22.8677 16.8457 16.8149 C 16.8589 15.8936 17.0234 15.5059 17.0723 15.4102 C 17.1675 15.3623 17.5518 15.2012 18.4639 15.1904 C 24.5205 15.1118 29.3633 12.3164 32.4678 7.1099 C 32.937 6.3247 33.2715 6.0649 33.3657 6.0024 C 33.4712 6.0088 33.8867 6.0635 34.6875 6.5122 C 37.313 7.98 40.0327 8.7246 42.771 8.7246 C 45.5088 8.7246 48.2285 7.98 50.8643 6.5063 C 51.6514 6.064 52.0615 6.0073 52.1689 6 C 52.2646 6.064 52.5996 6.3252 53.0703 7.1138 C 56.1797 12.312 61.0215 15.105 67.083 15.1904 C 67.9941 15.2012 68.3789 15.3623 68.4736 15.4106 C 68.5234 15.5059 68.6895 15.894 68.7041 16.8096 C 68.7842 22.8608 71.5713 27.7065 76.7783 30.8301 C 77.5557 31.2935 77.8193 31.6265 77.8857 31.7241 C 77.877 31.8413 77.8135 32.2563 77.3711 33.0425 C 74.4209 38.3335 74.4219 43.9219 77.377 49.2104 C 77.8203 50.0005 77.8789 50.4165 77.8857 50.5298 C 77.8232 50.6245 77.5635 50.9595 76.7803 51.4268 C 71.584 54.5215 68.791 59.3574 68.7051 65.4033 C 68.6895 66.3477 68.5195 66.7422 68.4697 66.8389 C 68.375 66.8867 67.9912 67.0459 67.084 67.0566 C 61.0352 67.1279 56.1895 69.9209 53.0645 75.1436 C 52.6035 75.9189 52.2725 76.1787 52.1768 76.2422 ZM 66.377 41.1182 C 66.377 28.084 55.8086 17.5137 42.7744 17.5137 C 29.7285 17.5137 19.1592 28.084 19.1592 41.1182 C 19.1592 54.1641 29.7285 64.7324 42.7744 64.7324 C 55.8066 64.7324 66.377 54.1641 66.377 41.1182 ZM 42.7744 61.7324 C 31.4072 61.7324 22.1592 52.4854 22.1592 41.1182 C 22.1592 29.7568 31.4072 20.5137 42.7744 20.5137 C 54.1348 20.5137 63.377 29.7568 63.377 41.1182 C 63.377 52.4854 54.1348 61.7324 42.7744 61.7324 ZM 55.3418 37.0977 L 50.4316 36.3848 C 48.9121 36.1641 47.1123 34.8569 46.4326 33.4785 L 44.2354 29.0308 C 43.5566 27.6519 42.4443 27.6519 41.7642 29.0308 L 39.5688 33.4785 C 38.8892 34.8569 37.0884 36.1641 35.5674 36.3848 L 30.6592 37.0977 C 29.1392 37.3198 28.7949 38.3784 29.895 39.4497 L 33.4468 42.9126 C 34.5469 43.9844 35.2354 46.1021 34.9756 47.6157 L 34.1367 52.5049 C 33.877 54.0195 34.7773 54.6738 36.1367 53.96 L 40.5283 51.6494 C 41.8882 50.9351 44.1143 50.9351 45.4727 51.6494 L 49.8643 53.96 C 51.2246 54.6738 52.125 54.0195 51.8643 52.5049 L 51.0264 47.6157 C 50.7646 46.1021 51.4531 43.9844 52.5527 42.9126 L 56.1045 39.4497 C 57.2051 38.3784 56.8623 37.3198 55.3418 37.0977 ZM 85.332 85.9668 L 75.9131 69.7793 C 74.5645 73.127 71.543 75.0078 67.1816 75.0586 C 63.9258 75.0977 61.624 76.4268 59.9434 79.2383 C 57.6777 83.041 54.8779 84.0801 52.7539 84.2227 L 61.75 99.6875 C 62.6592 101.249 64.1875 101.2754 65.1465 99.7461 L 69.8457 92.2578 C 70.8066 90.7305 73.0684 89.4131 74.8721 89.334 L 83.7031 88.9492 C 85.5078 88.8701 86.2402 87.5273 85.332 85.9668 ZM 25.606 79.2412 C 23.9209 76.4258 21.6191 75.0957 18.3638 75.0566 C 14.2212 75.0078 11.2861 73.3145 9.8491 70.2822 L 0.665 86.1318 C -0.2402 87.6953 0.4961 89.0352 2.2998 89.1094 L 11.1328 89.4785 C 12.937 89.5547 15.2012 90.8662 16.1641 92.3926 L 20.877 99.8721 C 21.8398 101.3984 23.3682 101.3711 24.2739 99.8086 L 33.29 84.2451 C 31.125 84.2305 28.0552 83.3457 25.606 79.2412 Z" fill="#53b9e6"/>
	</g>
</svg>