<?xml version="1.0" standalone="no"?>
<!-- Generator: Adobe Fireworks 10, Export SVG Extension by Aaron Beall (http://fireworks.abeall.com) . Version: 0.6.1  -->
<!DOCTYPE svg PUBLIC "-//W3C//DTD SVG 1.1//EN" "http://www.w3.org/Graphics/SVG/1.1/DTD/svg11.dtd">
<svg id="Untitled-Page%201" viewBox="0 0 46 36" style="background-color:#ffffff00" version="1.1"
	xmlns="http://www.w3.org/2000/svg" xmlns:xlink="http://www.w3.org/1999/xlink" xml:space="preserve"
	x="0px" y="0px" width="46px" height="36px"
>
	<g id="Layer%201">
		<path d="M 44.1773 25.374 C 45.3927 23.5925 46 21.6797 46 19.6342 C 46 17.5378 45.3582 15.5771 44.0751 13.7539 C 42.7915 11.9304 41.0457 10.4133 38.8383 9.2031 C 39.2315 10.4814 39.4284 11.7766 39.4284 13.0892 C 39.4284 15.373 38.8558 17.5378 37.7084 19.5833 C 36.5619 21.6282 34.9189 23.4348 32.78 25.0032 C 30.7946 26.4347 28.5357 27.5338 26.0027 28.3009 C 23.4705 29.0677 20.8262 29.4515 18.071 29.4515 C 17.5577 29.4515 16.8046 29.4177 15.8122 29.3496 C 19.2518 31.599 23.2907 32.7245 27.9283 32.7245 C 29.4002 32.7245 30.906 32.5878 32.4463 32.3151 C 34.5682 33.8154 36.9472 34.9058 39.5826 35.5879 C 40.1986 35.7419 40.9345 35.8779 41.7902 35.9971 C 41.9955 36.0146 42.1842 35.9545 42.3551 35.8184 C 42.5262 35.6819 42.6376 35.4948 42.6887 35.2563 C 42.6807 35.1541 42.6887 35.0979 42.7145 35.0897 C 42.7398 35.0817 42.7354 35.026 42.7016 34.924 L 42.6505 34.7703 L 42.5865 34.6428 C 42.5687 34.6091 42.5397 34.562 42.4966 34.5024 C 42.4539 34.4434 42.4198 34.4004 42.3938 34.3746 C 42.3686 34.3492 42.3304 34.3064 42.2788 34.2472 C 42.2277 34.188 42.1932 34.1493 42.176 34.1323 C 42.0905 34.0298 41.8938 33.8169 41.5858 33.4929 C 41.2775 33.1694 41.0555 32.918 40.9185 32.7393 C 40.7815 32.5601 40.589 32.3131 40.341 31.9976 C 40.093 31.6825 39.8788 31.3544 39.6991 31.0134 C 39.5194 30.6724 39.344 30.2974 39.1729 29.8887 C 41.2942 28.6604 42.9632 27.1561 44.1773 25.374 ZM 12.7839 22.2944 L 11.6542 23.0867 C 11.175 23.4103 10.6448 23.743 10.0628 24.0842 L 10.9615 21.9363 L 8.4715 20.5048 C 6.8283 19.5505 5.5535 18.4255 4.6465 17.13 C 3.7394 15.8347 3.2861 14.4882 3.2861 13.0903 C 3.2861 11.3517 3.958 9.7239 5.3013 8.2069 C 6.6444 6.6901 8.4542 5.4883 10.7303 4.6018 C 13.0062 3.7157 15.4535 3.2723 18.0718 3.2723 C 20.6901 3.2723 23.1375 3.7157 25.4134 4.6018 C 27.6892 5.4883 29.4991 6.6901 30.8429 8.2069 C 32.1862 9.7236 32.8575 11.3516 32.8575 13.0903 C 32.8575 14.8289 32.1862 16.4565 30.8429 17.9735 C 29.4991 19.491 27.6893 20.6921 25.4134 21.5784 C 23.1375 22.4647 20.6903 22.9077 18.0718 22.9077 C 16.7886 22.9077 15.4794 22.7883 14.1444 22.5498 L 12.7839 22.2944 ZM 27.1461 24.4291 C 29.927 23.2615 32.1217 21.6722 33.7301 19.6605 C 35.3387 17.6497 36.1431 15.4595 36.1431 13.0903 C 36.1431 10.7211 35.3387 8.531 33.7301 6.5194 C 32.1217 4.5083 29.927 2.9189 27.1461 1.7512 C 24.3652 0.5837 21.3405 0 18.0716 0 C 14.803 0 11.7783 0.5839 8.9972 1.7517 C 6.2164 2.9192 4.0216 4.5087 2.4132 6.5199 C 0.8044 8.531 0 10.7209 0 13.0903 C 0 15.1184 0.6081 17.0282 1.823 18.8175 C 3.0379 20.6072 4.7066 22.116 6.8284 23.343 C 6.6574 23.7523 6.4821 24.1267 6.3023 24.4681 C 6.1225 24.8088 5.9087 25.1367 5.6604 25.4524 C 5.4123 25.7679 5.22 26.015 5.0829 26.1935 C 4.946 26.3723 4.7236 26.6241 4.4154 26.9474 C 4.1072 27.2715 3.9103 27.4844 3.825 27.5865 C 3.825 27.5692 3.7905 27.608 3.7222 27.7017 C 3.6536 27.7954 3.6151 27.8378 3.6065 27.83 C 3.5981 27.8206 3.5637 27.8634 3.5039 27.957 L 3.414 28.0977 L 3.3497 28.2251 C 3.3242 28.276 3.3069 28.327 3.2984 28.3784 C 3.2898 28.4292 3.2855 28.4849 3.2855 28.5446 C 3.2855 28.604 3.294 28.6591 3.3112 28.7104 C 3.3457 28.9319 3.4441 29.1104 3.6065 29.2473 C 3.7691 29.3835 3.9443 29.4515 4.1328 29.4515 L 4.2099 29.4515 C 5.0654 29.3323 5.8014 29.1958 6.4174 29.0422 C 9.0528 28.3606 11.4318 27.2695 13.5538 25.7697 C 15.0938 26.0426 16.5999 26.1788 18.0716 26.1788 C 21.3402 26.1799 24.3652 25.5966 27.1461 24.4291 Z" fill="#53b9e6"/>
	</g>
</svg>