<?xml version="1.0" standalone="no"?>
<!-- Generator: Adobe Fireworks 10, Export SVG Extension by Aaron Beall (http://fireworks.abeall.com) . Version: 0.6.1  -->
<!DOCTYPE svg PUBLIC "-//W3C//DTD SVG 1.1//EN" "http://www.w3.org/Graphics/SVG/1.1/DTD/svg11.dtd">
<svg id="Untitled-Page%201" viewBox="0 0 72 61" style="background-color:#ffffff00" version="1.1"
	xmlns="http://www.w3.org/2000/svg" xmlns:xlink="http://www.w3.org/1999/xlink" xml:space="preserve"
	x="0px" y="0px" width="72px" height="61px"
>
	<g id="Layer%201">
		<g>
			<path d="M 69.1486 61 C 70.7234 61 72 59.7299 72 58.1628 L 72 29.7906 C 72 28.2239 70.7234 26.9535 69.1486 26.9535 L 54.8911 26.9535 C 53.3163 26.9535 52.0396 28.2239 52.0396 29.7906 L 52.0396 58.1628 C 52.0396 59.7299 53.3163 61 54.8911 61 L 69.1486 61 ZM 69.1486 29.7906 L 69.1486 34.0465 L 54.8911 34.0465 L 54.8911 29.7906 L 69.1486 29.7906 ZM 69.1486 35.4651 L 69.1486 52.4884 L 54.8911 52.4884 L 54.8911 35.4651 L 69.1486 35.4651 ZM 69.1486 53.907 L 69.1486 58.1628 L 54.8911 58.1628 L 54.8911 53.907 L 69.1486 53.907 ZM 62.0198 56.7443 L 62.0198 55.3256 L 60.5941 55.3256 L 60.5941 56.7443 L 62.0198 56.7443 ZM 64.16 25 L 64.1584 5.3198 C 64.1584 2.382 61.7668 0 58.8164 0 L 5.342 0 C 2.3919 0 0 2.382 0 5.3198 L 0 42.9128 C 0 45.8513 2.2385 48.2325 5.1886 48.2325 L 29.2277 48.2325 L 29.2277 56.0349 L 18.5347 56.0349 L 18.5347 58.8721 L 29.3812 58.8721 L 34.9396 58.8721 L 45.6238 58.8721 L 45.6238 56.0349 L 34.9307 56.0349 L 34.9307 48.2325 L 50 48.235 L 50 43.27 L 5.703 43.2675 L 5.703 37.593 L 50 37.595 L 50 36.1749 L 5.703 36.1744 L 5.703 5.6744 L 59.1683 5.6744 L 59.17 25 L 64.16 25 Z" fill="#53b8eb"/>
		</g>
	</g>
</svg>