<?xml version="1.0" standalone="no"?>
<!-- Generator: Adobe Fireworks 10, Export SVG Extension by Aaron Beall (http://fireworks.abeall.com) . Version: 0.6.1  -->
<!DOCTYPE svg PUBLIC "-//W3C//DTD SVG 1.1//EN" "http://www.w3.org/Graphics/SVG/1.1/DTD/svg11.dtd">
<svg id="Untitled-Page%201" viewBox="0 0 76 72" style="background-color:#ffffff00" version="1.1"
	xmlns="http://www.w3.org/2000/svg" xmlns:xlink="http://www.w3.org/1999/xlink" xml:space="preserve"
	x="0px" y="0px" width="76px" height="72px"
>
	<g id="Layer%201">
		<path d="M 71.5951 0 L 18.8237 0 C 16.3864 0 14.4248 1.9539 14.4248 4.3733 L 14.4248 17.0486 L 18.8237 17.0486 L 18.8237 10.9854 L 71.5959 10.9854 L 71.5959 48.1052 L 42.6862 48.1052 L 42.6862 52.4792 L 71.5951 52.4792 C 74.0198 52.4792 76 50.5127 76 48.1052 L 76 4.3733 C 76 1.9539 74.0198 0 71.5951 0 ZM 22.1183 7.6545 C 20.903 7.6545 19.9247 6.6853 19.9247 5.4741 C 19.9247 4.2529 20.903 3.2876 22.1183 3.2876 C 23.3307 3.2876 24.3177 4.25 24.3177 5.4741 C 24.3177 6.686 23.3273 7.6545 22.1183 7.6545 ZM 28.7167 7.6545 C 27.4954 7.6545 26.5173 6.6853 26.5173 5.4741 C 26.5173 4.2529 27.4921 3.2876 28.7167 3.2876 C 29.9317 3.2876 30.9192 4.25 30.9192 5.4741 C 30.9162 6.686 29.9287 7.6545 28.7167 7.6545 ZM 35.4562 7.6545 C 34.2349 7.6545 33.2448 6.6853 33.2448 5.4741 C 33.2448 4.2529 34.2319 3.2876 35.4562 3.2876 C 36.6563 3.2876 37.6375 4.25 37.6375 5.4741 C 37.6375 6.686 36.6563 7.6545 35.4562 7.6545 ZM 35.8005 19.52 L 4.4171 19.52 C 1.9775 19.52 0 21.4739 0 23.8872 L 0 67.626 C 0 70.0337 1.9775 72 4.4171 72 L 35.8005 72 C 38.2227 72 40.1998 70.033 40.1998 67.626 L 40.1998 23.8872 C 40.1998 21.4739 38.2227 19.52 35.8005 19.52 ZM 21.0291 22.8054 C 22.2474 22.8054 23.2256 23.7808 23.2256 24.9919 C 23.2256 26.197 22.2474 27.1787 21.0291 27.1787 C 19.8201 27.1787 18.8389 26.197 18.8389 24.9919 C 18.8389 23.78 19.8231 22.8054 21.0291 22.8054 ZM 14.3109 22.8054 C 15.5169 22.8054 16.501 23.7808 16.501 24.9919 C 16.501 26.197 15.5169 27.1787 14.3109 27.1787 C 13.0855 27.1787 12.0984 26.197 12.0984 24.9919 C 12.0984 23.78 13.0825 22.8054 14.3109 22.8054 ZM 7.6935 22.8054 C 8.9148 22.8054 9.8989 23.7808 9.8989 24.9919 C 9.8989 26.197 8.9177 27.1787 7.6935 27.1787 C 6.4904 27.1787 5.5063 26.197 5.5063 24.9919 C 5.5063 23.78 6.4904 22.8054 7.6935 22.8054 ZM 35.8005 67.626 L 4.4171 67.626 L 4.4171 30.5061 L 35.8005 30.5061 L 35.8005 67.626 Z" fill="#53b9e6"/>
	</g>
</svg>