<?xml version="1.0" standalone="no"?>
<!-- Generator: Adobe Fireworks 10, Export SVG Extension by Aaron Beall (http://fireworks.abeall.com) . Version: 0.6.1  -->
<!DOCTYPE svg PUBLIC "-//W3C//DTD SVG 1.1//EN" "http://www.w3.org/Graphics/SVG/1.1/DTD/svg11.dtd">
<svg id="Untitled-Page%201" viewBox="0 0 16 11" style="background-color:#ffffff00" version="1.1"
	xmlns="http://www.w3.org/2000/svg" xmlns:xlink="http://www.w3.org/1999/xlink" xml:space="preserve"
	x="0px" y="0px" width="16px" height="11px"
>
	<g id="Layer%201">
		<g>
			<path d="M 15.7821 4.9745 L 11.0208 0.2177 C 10.7303 -0.0725 10.2591 -0.0725 9.9686 0.2177 C 9.6781 0.5079 9.6781 0.9785 9.9686 1.2688 L 13.46 4.7567 L 0.744 4.7567 C 0.3331 4.7567 0 5.0896 0 5.5 C 0 5.9104 0.3331 6.2433 0.744 6.2433 L 13.46 6.2433 L 9.9688 9.7312 C 9.6782 10.0215 9.6782 10.4921 9.9688 10.7823 C 10.114 10.9272 10.3044 11 10.4948 11 C 10.6852 11 10.8756 10.9272 11.0209 10.7823 L 15.7821 6.0255 C 16.0726 5.7352 16.0726 5.2648 15.7821 4.9745 Z" fill="#53b9e6"/>
		</g>
	</g>
</svg>