<?xml version="1.0" standalone="no"?>
<!-- Generator: Adobe Fireworks 10, Export SVG Extension by Aaron Beall (http://fireworks.abeall.com) . Version: 0.6.1  -->
<!DOCTYPE svg PUBLIC "-//W3C//DTD SVG 1.1//EN" "http://www.w3.org/Graphics/SVG/1.1/DTD/svg11.dtd">
<svg id="Untitled-Page%201" viewBox="0 0 16 11" style="background-color:#ffffff00" version="1.1"
	xmlns="http://www.w3.org/2000/svg" xmlns:xlink="http://www.w3.org/1999/xlink" xml:space="preserve"
	x="0px" y="0px" width="16px" height="11px"
>
	<g id="Layer%201">
		<path opacity="0.251" d="M 15.7989 2.6147 C 16.6618 5.5952 14.7551 10.0808 9.9347 11 L 9.2789 9.6304 C 10.7555 9.0928 11.734 7.8645 11.8786 6.5737 C 10.2181 6.3213 8.9482 4.9326 8.9482 3.2573 C 8.9482 -0.4668 14.6337 -1.4102 15.7989 2.6147 ZM 6.8506 2.6147 C 7.7136 5.5952 5.8069 10.0808 0.9865 11 L 0.3307 9.6304 C 1.8073 9.0928 2.7857 7.8645 2.9304 6.5737 C 1.27 6.3213 0 4.9326 0 3.2573 C 0 -0.4668 5.6855 -1.4102 6.8506 2.6147 Z" fill="#ffffff"/>
	</g>
</svg>