<?xml version="1.0" standalone="no"?>
<!-- Generator: Adobe Fireworks 10, Export SVG Extension by Aaron Beall (http://fireworks.abeall.com) . Version: 0.6.1  -->
<!DOCTYPE svg PUBLIC "-//W3C//DTD SVG 1.1//EN" "http://www.w3.org/Graphics/SVG/1.1/DTD/svg11.dtd">
<svg id="Untitled-Page%201" viewBox="0 0 25 24" style="background-color:#ffffff00" version="1.1"
	xmlns="http://www.w3.org/2000/svg" xmlns:xlink="http://www.w3.org/1999/xlink" xml:space="preserve"
	x="0px" y="0px" width="25px" height="24px"
>
	<g id="Layer%201">
		<path d="M 23.5598 21.435 L 16.3319 14.2072 C 17.3782 12.7365 17.9998 10.9425 17.9998 9 C 17.9998 4.0298 13.9701 0 8.9999 0 C 4.0295 0 0 4.0298 0 9 C 0 13.9703 4.0295 18 8.9999 18 C 10.9423 18 12.7361 17.3784 14.207 16.3321 L 21.4351 23.5598 C 21.7284 23.853 22.1132 24 22.4978 24 C 22.8826 24 23.2673 23.853 23.5599 23.5598 C 24.1467 22.9733 24.1467 22.0215 23.5598 21.435 ZM 13.8879 12.468 L 13.298 13.2975 L 12.4683 13.8877 C 11.4453 14.6152 10.246 15 8.9999 15 C 5.6914 15 3 12.3082 3 9 C 3 5.6917 5.6914 3 8.9999 3 C 12.3083 3 14.9998 5.6917 14.9998 9 C 15.0005 10.2458 14.6158 11.445 13.8879 12.468 Z" fill="#ffffff"/>
	</g>
</svg>