<?xml version="1.0" standalone="no"?>
<!-- Generator: Adobe Fireworks 10, Export SVG Extension by Aaron Beall (http://fireworks.abeall.com) . Version: 0.6.1  -->
<!DOCTYPE svg PUBLIC "-//W3C//DTD SVG 1.1//EN" "http://www.w3.org/Graphics/SVG/1.1/DTD/svg11.dtd">
<svg id="Untitled-Page%201" viewBox="0 0 8 398" style="background-color:#ffffff00" version="1.1"
	xmlns="http://www.w3.org/2000/svg" xmlns:xlink="http://www.w3.org/1999/xlink" xml:space="preserve"
	x="0px" y="0px" width="8px" height="398px"
>
	<g id="Layer%201">
		<path d="M 0.6749 0 L 0 0.7213 L 4 5 L 8 0.7213 L 7.325 0 L 4 3.5546 L 0.6749 0 Z" fill="#647a81"/>
		<path d="M 0.6749 133 L 0 132.2787 L 4 128 L 8 132.2787 L 7.325 133 L 4 129.4454 L 0.6749 133 Z" fill="#647a81"/>
		<path d="M 0.6749 273 L 0 272.2787 L 4 268 L 8 272.2787 L 7.325 273 L 4 269.4454 L 0.6749 273 Z" fill="#53b9e6"/>
		<path d="M 0.6749 393 L 0 393.7213 L 4 398 L 8 393.7213 L 7.325 393 L 4 396.5546 L 0.6749 393 Z" fill="#53b9e6"/>
	</g>
</svg>