<?xml version="1.0" standalone="no"?>
<!-- Generator: Adobe Fireworks 10, Export SVG Extension by Aaron Beall (http://fireworks.abeall.com) . Version: 0.6.1  -->
<!DOCTYPE svg PUBLIC "-//W3C//DTD SVG 1.1//EN" "http://www.w3.org/Graphics/SVG/1.1/DTD/svg11.dtd">
<svg id="Untitled-Page%201" viewBox="0 0 16 14" style="background-color:#ffffff00" version="1.1"
	xmlns="http://www.w3.org/2000/svg" xmlns:xlink="http://www.w3.org/1999/xlink" xml:space="preserve"
	x="0px" y="0px" width="16px" height="14px"
>
	<g id="Layer%201">
		<path d="M 16.0156 1.6826 C 15.7466 1.8428 14.9397 2.1621 14.1871 2.2422 C 14.6697 1.9614 15.384 1.042 15.5604 0.3115 C 15.0967 0.6309 14.0313 1.0967 13.5051 1.0967 C 13.5051 1.0967 13.5051 1.0981 13.5061 1.0991 C 12.9055 0.4219 12.0613 0 11.1238 0 C 9.3052 0 7.8295 1.5913 7.8295 3.5547 C 7.8295 3.8271 7.8595 4.0918 7.9142 4.3467 L 7.9131 4.3467 C 5.4453 4.2783 2.5603 2.9438 0.9346 0.6592 C -0.0635 2.5249 0.8 4.5996 1.9336 5.3555 C 1.5466 5.3877 0.8313 5.3076 0.4951 4.9551 C 0.4717 6.1924 1.0243 7.833 3.0361 8.4277 C 2.6479 8.6533 1.9637 8.5889 1.6648 8.5391 C 1.77 9.5859 3.1267 10.9531 4.6091 10.9531 C 4.0808 11.6113 2.2778 12.8096 0.0468 12.4277 C 1.5625 13.4238 3.3293 14 5.1997 14 C 10.5146 14 14.6422 9.3525 14.4202 3.6191 C 14.4202 3.6123 14.4182 3.6055 14.4182 3.5996 C 14.4182 3.584 14.4202 3.5684 14.4202 3.5547 C 14.4202 3.5371 14.4182 3.5195 14.4182 3.501 C 14.9016 3.1455 15.5505 2.5146 16.0156 1.6826 Z" fill="#ffffff"/>
	</g>
</svg>