<?xml version="1.0" standalone="no"?>
<!-- Generator: Adobe Fireworks 10, Export SVG Extension by Aaron Beall (http://fireworks.abeall.com) . Version: 0.6.1  -->
<!DOCTYPE svg PUBLIC "-//W3C//DTD SVG 1.1//EN" "http://www.w3.org/Graphics/SVG/1.1/DTD/svg11.dtd">
<svg id="Untitled-Page%201" viewBox="0 0 16 97" style="background-color:#ffffff00" version="1.1"
	xmlns="http://www.w3.org/2000/svg" xmlns:xlink="http://www.w3.org/1999/xlink" xml:space="preserve"
	x="0px" y="0px" width="16px" height="97px"
>
	<g id="Layer%201">
		<path d="M 15.8218 88.4343 C 15.6306 88.1725 15.3085 88.0224 14.9379 88.0224 L 13.5278 88.0224 L 13.5278 86.5325 C 13.5278 85.9584 13.0469 85.4913 12.4559 85.4913 L 7.5125 85.4913 C 7.3022 85.4913 6.9739 85.3294 6.8499 85.1644 L 6.4799 84.6728 C 6.1913 84.2893 5.6048 84 5.1157 84 L 3.4028 84 C 2.8643 84 2.3229 84.3719 2.1433 84.8652 L 2.0255 85.189 C 1.97 85.3414 1.752 85.4913 1.5854 85.4913 L 1.0718 85.4913 C 0.4808 85.4913 0 85.9584 0 86.5325 L 0 95.9361 C 0 95.9859 0.0093 96.0334 0.0257 96.0779 C 0.0345 96.264 0.0941 96.4395 0.2026 96.588 C 0.3937 96.8499 0.7159 97 1.0864 97 L 12.0069 97 C 12.6671 97 13.3552 96.5258 13.5733 95.9205 L 15.93 89.3808 C 16.0524 89.0411 16.013 88.6962 15.8218 88.4343 ZM 1.0718 86.3355 L 1.5854 86.3355 C 2.124 86.3355 2.6653 85.9636 2.8449 85.4703 L 2.9626 85.1467 C 3.0182 84.9941 3.2362 84.8443 3.4028 84.8443 L 5.1157 84.8443 C 5.326 84.8443 5.6542 85.0062 5.7783 85.1711 L 6.1483 85.6627 C 6.437 86.0463 7.0234 86.3355 7.5125 86.3355 L 12.4559 86.3355 C 12.5659 86.3355 12.6586 86.4258 12.6586 86.5325 L 12.6586 88.0224 L 4.0174 88.0224 C 3.3572 88.0224 2.6692 88.4966 2.451 89.1019 L 0.8691 93.4917 L 0.8691 86.5325 C 0.8691 86.4258 0.962 86.3355 1.0718 86.3355 ZM 15.1097 89.1019 L 12.753 95.6415 C 12.656 95.9106 12.3004 96.1557 12.0069 96.1557 L 1.0864 96.1557 C 1.0025 96.1557 0.9371 96.1347 0.9114 96.0995 C 0.8857 96.0643 0.8869 95.9974 0.9147 95.9205 L 3.2714 89.3808 C 3.3684 89.1118 3.724 88.8667 4.0175 88.8667 L 14.938 88.8667 C 15.0219 88.8667 15.0873 88.8876 15.113 88.9229 C 15.1386 88.958 15.1375 89.0249 15.1097 89.1019 Z" fill="#64797f"/>
		<g>
			<g>
				<path d="M 15.9826 5.1578 L 15.9826 3.1544 C 15.9826 2.4392 15.4145 1.8574 14.7162 1.8574 L 8.8757 1.8574 C 8.6273 1.8574 8.2395 1.6558 8.0928 1.4504 L 7.6557 0.8379 C 7.3147 0.3602 6.6218 0 6.044 0 L 4.0203 0 C 3.384 0 2.7443 0.4633 2.5322 1.0776 L 2.393 1.481 C 2.3275 1.671 2.0699 1.8574 1.8731 1.8574 L 1.2664 1.8574 C 0.5681 1.8574 0 2.4392 0 3.1544 L 0 6.0608 C 0 6.1072 0.0065 6.1519 0.0175 6.1947 L 0.0175 13.4226 C 0.0175 14.2924 0.7084 15 1.5576 15 L 14.4598 15 C 15.3091 15 16 14.2924 16 13.4226 L 16 5.3951 C 16 5.3145 15.994 5.2351 15.9826 5.1578 ZM 1.2664 2.9091 L 1.8731 2.9091 C 2.5095 2.9091 3.1491 2.4458 3.361 1.8313 L 3.5003 1.4282 C 3.5659 1.238 3.8234 1.0516 4.0203 1.0516 L 6.0439 1.0516 C 6.2924 1.0516 6.6802 1.2534 6.8269 1.4587 L 7.264 2.071 C 7.605 2.5488 8.2979 2.9092 8.8757 2.9092 L 14.7162 2.9092 C 14.8461 2.9092 14.9557 3.0215 14.9557 3.1545 L 14.9557 3.9021 C 14.8 3.8477 14.6334 3.8176 14.4598 3.8176 L 1.5576 3.8176 C 1.3711 3.8176 1.1923 3.8518 1.0268 3.9142 L 1.0268 3.1544 C 1.0268 3.0215 1.1365 2.9091 1.2664 2.9091 ZM 14.4598 13.9484 L 1.5576 13.9484 C 1.2745 13.9484 1.0443 13.7124 1.0443 13.4226 L 1.0443 5.3951 C 1.0443 5.1052 1.2745 4.8693 1.5576 4.8693 L 14.4598 4.8693 C 14.6978 4.8693 14.8978 5.0361 14.9557 5.2615 L 14.9557 5.5359 C 14.9557 5.5823 14.9623 5.6271 14.9732 5.6699 L 14.9732 13.4226 C 14.9732 13.7124 14.743 13.9484 14.4598 13.9484 Z" fill="#64797f"/>
			</g>
		</g>
	</g>
</svg>