<?xml version="1.0" standalone="no"?>
<!-- Generator: Adobe Fireworks 10, Export SVG Extension by Aaron Beall (http://fireworks.abeall.com) . Version: 0.6.1  -->
<!DOCTYPE svg PUBLIC "-//W3C//DTD SVG 1.1//EN" "http://www.w3.org/Graphics/SVG/1.1/DTD/svg11.dtd">
<svg id="Untitled-Page%201" viewBox="0 0 16 16" style="background-color:#ffffff00" version="1.1"
	xmlns="http://www.w3.org/2000/svg" xmlns:xlink="http://www.w3.org/1999/xlink" xml:space="preserve"
	x="0px" y="0px" width="16px" height="16px"
>
	<g id="Layer%201">
		<path id="hint" d="M 9.4247 4.9527 C 9.1893 5.1713 8.906 5.2807 8.5747 5.2807 C 8.244 5.2807 7.9587 5.1713 7.7213 4.9527 C 7.4853 4.734 7.366 4.468 7.366 4.1573 C 7.366 3.8473 7.486 3.5807 7.7213 3.36 C 7.9587 3.1387 8.244 3.0287 8.5747 3.0287 C 8.906 3.0287 9.19 3.1387 9.4247 3.36 C 9.66 3.5807 9.778 3.8473 9.778 4.1573 C 9.778 4.4687 9.66 4.734 9.4247 4.9527 L 9.4247 4.9527 ZM 9.514 12.2047 C 9.1087 12.3647 8.786 12.486 8.544 12.57 C 8.3027 12.654 8.022 12.696 7.7027 12.696 C 7.212 12.696 6.83 12.576 6.558 12.3367 C 6.286 12.0973 6.1507 11.794 6.1507 11.4253 C 6.1507 11.282 6.1607 11.1353 6.1807 10.986 C 6.2013 10.8367 6.234 10.6687 6.2787 10.48 L 6.786 8.688 C 6.8307 8.516 6.8693 8.3527 6.9 8.2007 C 6.9307 8.0473 6.9453 7.9067 6.9453 7.7787 C 6.9453 7.5507 6.898 7.3907 6.804 7.3007 C 6.7087 7.2107 6.5293 7.1667 6.262 7.1667 C 6.1313 7.1667 5.9967 7.186 5.8587 7.2267 C 5.722 7.2687 5.6033 7.3067 5.506 7.344 L 5.64 6.792 C 5.972 6.6567 6.29 6.5407 6.5933 6.4447 C 6.8967 6.3473 7.1833 6.2993 7.4533 6.2993 C 7.9407 6.2993 8.3167 6.418 8.5813 6.6527 C 8.8447 6.888 8.9773 7.194 8.9773 7.57 C 8.9773 7.648 8.968 7.7853 8.95 7.9813 C 8.932 8.178 8.898 8.3573 8.8487 8.522 L 8.344 10.3087 C 8.3027 10.452 8.266 10.616 8.2327 10.7993 C 8.2 10.9827 8.184 11.1227 8.184 11.2167 C 8.184 11.454 8.2367 11.616 8.3433 11.702 C 8.4487 11.788 8.6333 11.8313 8.8947 11.8313 C 9.018 11.8313 9.156 11.8093 9.312 11.7667 C 9.4667 11.724 9.5787 11.686 9.6493 11.6533 L 9.514 12.2047 L 9.514 12.2047 ZM 7.8747 0 C 3.526 0 0 3.526 0 7.8747 C 0 12.2233 3.526 15.75 7.8747 15.75 C 12.2233 15.75 15.75 12.2233 15.75 7.8747 C 15.75 3.526 12.2233 0 7.8747 0 L 7.8747 0 Z" fill="#030104"/>
	</g>
</svg>