<?xml version="1.0" standalone="no"?>
<!-- Generator: Adobe Fireworks 10, Export SVG Extension by Aaron Beall (http://fireworks.abeall.com) . Version: 0.6.1  -->
<!DOCTYPE svg PUBLIC "-//W3C//DTD SVG 1.1//EN" "http://www.w3.org/Graphics/SVG/1.1/DTD/svg11.dtd">
<svg id="Untitled-Page%201" viewBox="0 0 23 16" style="background-color:#ffffff00" version="1.1"
	xmlns="http://www.w3.org/2000/svg" xmlns:xlink="http://www.w3.org/1999/xlink" xml:space="preserve"
	x="0px" y="0px" width="23px" height="16px"
>
	<g id="Layer%201">
		<path d="M 20 0 L 20 16 L 23 16 L 23 0 L 20 0 ZM 10 8 C 10 9.6569 11.3431 11 13 11 C 14.6569 11 16 9.6569 16 8 C 16 6.3431 14.6569 5 13 5 C 11.3431 5 10 6.3431 10 8 ZM 0 8 C 0 9.6569 1.3431 11 3 11 C 4.6569 11 6 9.6569 6 8 C 6 6.3431 4.6569 5 3 5 C 1.3431 5 0 6.3431 0 8 Z" fill="#53b8eb"/>
	</g>
</svg>