<?xml version="1.0" standalone="no"?>
<!-- Generator: Adobe Fireworks 10, Export SVG Extension by Aaron Beall (http://fireworks.abeall.com) . Version: 0.6.1  -->
<!DOCTYPE svg PUBLIC "-//W3C//DTD SVG 1.1//EN" "http://www.w3.org/Graphics/SVG/1.1/DTD/svg11.dtd">
<svg id="Untitled-Page%201" viewBox="0 0 24 19" style="background-color:#ffffff00" version="1.1"
	xmlns="http://www.w3.org/2000/svg" xmlns:xlink="http://www.w3.org/1999/xlink" xml:space="preserve"
	x="0px" y="0px" width="24px" height="19px"
>
	<g id="Layer%201">
		<path d="M 10.356 3.7322 C 10.356 4.2411 10.0107 5.9375 9.8383 7.125 C 10.356 6.4464 15.7067 0.1697 17.26 0.1697 C 17.9504 0.1697 18.4683 0.6786 18.4683 1.1875 C 18.4683 3.0536 12.082 7.9731 12.082 8.8214 C 12.082 9.1606 13.6355 13.0625 14.3259 15.0981 C 14.3259 15.4375 15.0162 16.2856 15.5341 16.2856 L 22.9558 16.2856 C 24.1641 16.625 23.9915 16.7947 23.9915 17.3036 C 23.9915 18.3214 22.6106 19 22.0929 19 L 14.8436 19 C 14.3259 18.8303 13.6355 18.8303 13.2903 18.4911 C 11.5642 17.4731 11.9094 15.9464 11.219 14.5894 C 10.5286 12.7231 10.0107 10.6875 9.1478 8.6519 C 8.4574 9.3303 7.7671 11.0269 7.2493 12.3839 C 6.7314 13.4019 6.5588 15.9464 4.8328 15.9464 C 4.1423 15.9464 3.6246 15.7769 3.6246 14.9286 C 3.6246 13.2322 7.5945 6.1072 7.5945 4.0714 C 7.5945 2.8839 6.2136 2.5447 5.6958 2.5447 C 3.6246 2.5447 2.7616 4.5803 2.7616 5.7678 C 2.7616 7.6339 5.0054 7.9731 5.0054 8.8214 C 5.0054 10.0089 4.1423 10.1786 3.2794 10.1786 C 0.6904 10.1786 0 7.2947 0 6.1072 C 0 2.8839 2.4164 0 6.041 0 C 8.4574 0 10.356 1.3572 10.356 3.7322 Z" fill="#53b8eb"/>
	</g>
</svg>