<?xml version="1.0" standalone="no"?>
<!-- Generator: Adobe Fireworks 10, Export SVG Extension by Aaron Beall (http://fireworks.abeall.com) . Version: 0.6.1  -->
<!DOCTYPE svg PUBLIC "-//W3C//DTD SVG 1.1//EN" "http://www.w3.org/Graphics/SVG/1.1/DTD/svg11.dtd">
<svg id="Untitled-Page%201" viewBox="0 0 24 18" style="background-color:#ffffff00" version="1.1"
	xmlns="http://www.w3.org/2000/svg" xmlns:xlink="http://www.w3.org/1999/xlink" xml:space="preserve"
	x="0px" y="0px" width="24px" height="18px"
>
	<g id="Layer%201">
		<path d="M 23.5533 12 L 16.4822 12 L 20.0178 15.5533 L 23.5533 12 ZM 0 16 L 0 18 L 13 18 L 13 16 L 0 16 ZM 0 12 L 0 14 L 13 14 L 13 12 L 0 12 ZM 10 8 L 10 10 L 24 10 L 24 8 L 10 8 ZM 1 2 L 6 2 L 6 4 L 1 4 L 1 5 L 0 5 L 0 9 L 1 9 L 1 10 L 8 10 L 8 1 L 7 1 L 7 0 L 1 0 L 1 2 ZM 2 6 L 6 6 L 6 8 L 2 8 L 2 6 Z" fill="#53b8eb"/>
	</g>
</svg>