<?xml version="1.0" standalone="no"?>
<!-- Generator: Adobe Fireworks 10, Export SVG Extension by Aaron Beall (http://fireworks.abeall.com) . Version: 0.6.1  -->
<!DOCTYPE svg PUBLIC "-//W3C//DTD SVG 1.1//EN" "http://www.w3.org/Graphics/SVG/1.1/DTD/svg11.dtd">
<svg id="Untitled-Page%201" viewBox="0 0 22 12" style="background-color:#ffffff00" version="1.1"
	xmlns="http://www.w3.org/2000/svg" xmlns:xlink="http://www.w3.org/1999/xlink" xml:space="preserve"
	x="0px" y="0px" width="22px" height="12px"
>
	<g id="Layer%201">
		<path d="M 18 3 L 20 3 L 20 12 L 22 12 L 22 0 L 20 0 L 20 1 L 19 1 L 19 2 L 18 2 L 18 3 ZM 6 11 L 7 11 L 7 12 L 15 12 L 15 11 L 16 11 L 16 1 L 15 1 L 15 0 L 7 0 L 7 1 L 6 1 L 6 11 ZM 8 2 L 14 2 L 14 10 L 8 10 L 8 2 ZM 0 3 L 2 3 L 2 12 L 4 12 L 4 0 L 2 0 L 2 1 L 1 1 L 1 2 L 0 2 L 0 3 Z" fill="#53b8eb"/>
	</g>
</svg>