<?xml version="1.0" standalone="no"?>
<!-- Generator: Adobe Fireworks 10, Export SVG Extension by Aaron Beall (http://fireworks.abeall.com) . Version: 0.6.1  -->
<!DOCTYPE svg PUBLIC "-//W3C//DTD SVG 1.1//EN" "http://www.w3.org/Graphics/SVG/1.1/DTD/svg11.dtd">
<svg id="Untitled-Page%201" viewBox="0 0 24 23" style="background-color:#ffffff00" version="1.1"
	xmlns="http://www.w3.org/2000/svg" xmlns:xlink="http://www.w3.org/1999/xlink" xml:space="preserve"
	x="0px" y="0px" width="24px" height="23px"
>
	<g id="Layer%201">
		<path d="M 22.3815 13 L 16.6674 18.8112 L 13.6601 15.7983 L 12 17.3088 L 16.6674 22 L 24 14.63 L 22.3815 13 ZM 15 9 L 15 12 L 18 12 L 18 9 L 15 9 ZM 6 4 L 6 6 L 8 6 L 8 4 L 15 4 L 15 6 L 17 6 L 17 4 L 21 4 L 21 9 L 23 9 L 23 2 L 17 2 L 17 0 L 15 0 L 15 2 L 8 2 L 8 0 L 6 0 L 6 2 L 0 2 L 0 23 L 12.15 23 L 10.15 21 L 2 21 L 2 4 L 6 4 ZM 5 9 L 5 12 L 8 12 L 8 9 L 5 9 ZM 5 14 L 5 17 L 8 17 L 8 14 L 5 14 ZM 10 9 L 10 12 L 13 12 L 13 9 L 10 9 Z" fill="#53b8eb"/>
	</g>
</svg>