<?xml version="1.0" standalone="no"?>
<!-- Generator: Adobe Fireworks 10, Export SVG Extension by Aaron Beall (http://fireworks.abeall.com) . Version: 0.6.1  -->
<!DOCTYPE svg PUBLIC "-//W3C//DTD SVG 1.1//EN" "http://www.w3.org/Graphics/SVG/1.1/DTD/svg11.dtd">
<svg id="Untitled-Page%201" viewBox="0 0 22 19" style="background-color:#ffffff00" version="1.1"
	xmlns="http://www.w3.org/2000/svg" xmlns:xlink="http://www.w3.org/1999/xlink" xml:space="preserve"
	x="0px" y="0px" width="22px" height="19px"
>
	<g id="Layer%201">
		<path d="M 15 14 L 16 14 L 16 15 L 19 15 L 19 17 L 15 17 L 15 19 L 20 19 L 20 18 L 21 18 L 21 14 L 20 14 L 20 13 L 17 13 L 17 11 L 21 11 L 21 9 L 16 9 L 16 10 L 15 10 L 15 14 ZM 8 13 L 9 13 L 9 15 L 10 15 L 10 19 L 12 19 L 12 15 L 13 15 L 13 13 L 14 13 L 14 9 L 12 9 L 12 13 L 10 13 L 10 9 L 8 9 L 8 13 ZM 1 14 L 2 14 L 2 15 L 5 15 L 5 17 L 1 17 L 1 19 L 6 19 L 6 18 L 7 18 L 7 14 L 6 14 L 6 13 L 3 13 L 3 11 L 7 11 L 7 9 L 2 9 L 2 10 L 1 10 L 1 14 ZM 2 6 L 2 4 L 20 4 L 20 6 L 22 6 L 22 0 L 0 0 L 0 6 L 2 6 Z" fill="#53b8eb"/>
	</g>
</svg>