<?xml version="1.0" standalone="no"?>
<!-- Generator: Adobe Fireworks 10, Export SVG Extension by Aaron Beall (http://fireworks.abeall.com) . Version: 0.6.1  -->
<!DOCTYPE svg PUBLIC "-//W3C//DTD SVG 1.1//EN" "http://www.w3.org/Graphics/SVG/1.1/DTD/svg11.dtd">
<svg id="Untitled-Page%201" viewBox="0 0 24 25" style="background-color:#ffffff00" version="1.1"
	xmlns="http://www.w3.org/2000/svg" xmlns:xlink="http://www.w3.org/1999/xlink" xml:space="preserve"
	x="0px" y="0px" width="24px" height="25px"
>
	<g id="Layer%201">
		<path d="M 14.2544 12.9015 L 9.8883 12.9015 C 10.0596 12.5076 10.2307 12.0856 10.3734 11.6917 L 11.9429 8.0903 L 14.2544 12.9015 ZM 12.075 3.3301 L 12.2375 3.2759 L 21.6416 6.7697 L 20.25 18.5 C 17.3788 20.1101 12.2993 22.7241 12.2375 22.7241 L 12 22.615 L 11.7625 22.7241 C 11.7007 22.7241 6.6212 20.1101 3.75 18.5 L 2.3584 6.7697 L 11.7625 3.2759 L 11.8049 3.29 L 4.8945 18.4161 L 4.8945 18.5287 L 7.3772 18.5287 C 7.5483 18.5287 7.8052 17.6565 7.9194 17.3751 C 8.1191 16.7843 8.4045 16.2216 8.6328 15.6588 C 8.7184 15.4338 8.804 15.2087 8.9181 15.0117 L 15.1389 15.0117 C 15.2246 15.0117 15.2816 15.068 15.3102 15.1523 C 15.624 15.8276 15.938 16.6436 16.2804 17.3751 C 16.4802 17.741 16.6228 18.163 16.7655 18.5287 C 16.7941 18.5569 16.8511 18.5569 16.8796 18.585 L 19.3052 18.585 L 19.3052 18.5006 C 18.2494 16.3059 17.1365 14.0833 16.1091 11.8887 C 15.624 10.8477 15.1389 9.7784 14.6252 8.7374 C 14.1117 7.6682 13.6266 6.5427 13.1129 5.5017 C 12.9131 5.0515 12.6563 4.6014 12.4565 4.1794 C 12.3405 3.9045 12.2219 3.6118 12.075 3.3301 ZM 24 4.8887 L 12.1875 0.875 L 12 0.9399 L 11.8125 0.875 L 0 4.8887 L 0 5.0101 L 1.8215 19.6532 C 5.094 21.4456 11.7007 25 11.7625 25 L 12 24.88 L 12.2375 25 C 12.2993 25 18.906 21.4456 22.1785 19.6532 L 24 5.0101 L 24 4.8887 Z" fill="#53b8eb"/>
	</g>
</svg>