<?xml version="1.0" standalone="no"?>
<!-- Generator: Adobe Fireworks 10, Export SVG Extension by Aaron Beall (http://fireworks.abeall.com) . Version: 0.6.1  -->
<!DOCTYPE svg PUBLIC "-//W3C//DTD SVG 1.1//EN" "http://www.w3.org/Graphics/SVG/1.1/DTD/svg11.dtd">
<svg id="Untitled-Page%201" viewBox="0 0 24 20" style="background-color:#ffffff00" version="1.1"
	xmlns="http://www.w3.org/2000/svg" xmlns:xlink="http://www.w3.org/1999/xlink" xml:space="preserve"
	x="0px" y="0px" width="24px" height="20px"
>
	<g id="Layer%201">
		<path d="M 10 14 L 17 14 L 17 13 L 18 13 L 18 5 L 17 5 L 17 4 L 12 4 L 12 2 L 10 2 L 10 14 ZM 12 6 L 16 6 L 16 12 L 12 12 L 12 6 ZM 1 6 L 6 6 L 6 8 L 1 8 L 1 9 L 0 9 L 0 13 L 1 13 L 1 14 L 8 14 L 8 5 L 7 5 L 7 4 L 1 4 L 1 6 ZM 2 10 L 6 10 L 6 12 L 2 12 L 2 10 ZM 21 0 L 21 17 L 8 17 L 8 20 L 24 20 L 24 0 L 21 0 Z" fill="#53b8eb"/>
	</g>
</svg>