<?xml version="1.0" standalone="no"?>
<!-- Generator: Adobe Fireworks 10, Export SVG Extension by Aaron Beall (http://fireworks.abeall.com) . Version: 0.6.1  -->
<!DOCTYPE svg PUBLIC "-//W3C//DTD SVG 1.1//EN" "http://www.w3.org/Graphics/SVG/1.1/DTD/svg11.dtd">
<svg id="Untitled-Page%201" viewBox="0 0 24 20" style="background-color:#ffffff00" version="1.1"
	xmlns="http://www.w3.org/2000/svg" xmlns:xlink="http://www.w3.org/1999/xlink" xml:space="preserve"
	x="0px" y="0px" width="24px" height="20px"
>
	<g id="Layer%201">
		<path d="M 15.2177 17.2701 C 16.2464 15.0333 17.0198 12.4879 17.5159 9.7045 C 15.8912 9.7045 15.8933 9.6929 15.8933 9.6929 C 15.6452 11.6006 15.155 13.6271 14.4384 15.6995 C 14.3788 15.4957 14.3299 15.2817 14.282 15.0745 L 14.2269 14.8366 C 14.1349 14.3784 13.9926 13.9248 13.8548 13.4856 L 13.6681 12.8746 L 13.1783 11.2551 L 12.7079 9.7 C 11.0355 9.7 11.0334 9.6929 11.0334 9.6929 L 12.1689 13.469 L 13.3113 17.2687 C 15.2156 17.2631 15.2177 17.2701 15.2177 17.2701 ZM 20.335 17.4229 C 20.4587 17.4229 20.5876 17.4165 20.7178 17.4042 C 21.3669 17.3486 22.0235 17.0354 22.6698 16.4727 L 22.7497 17.0104 L 22.7849 17.2596 C 22.9509 17.2698 23.1252 17.2793 23.2513 17.2793 L 23.4391 17.2786 L 23.6265 17.2779 L 23.9741 17.2839 C 23.9886 16.1781 23.9979 15.0464 23.9975 13.9614 L 23.9996 11.9533 C 24.0092 11.2825 23.8521 10.7448 23.5331 10.3556 C 23.1039 9.8362 22.4414 9.6559 21.9611 9.5961 C 21.7503 9.5715 21.5329 9.5588 21.3155 9.5588 C 20.4143 9.5588 19.481 9.7665 18.5415 10.1758 C 18.6521 10.6597 18.6462 10.6709 18.6462 10.6709 L 18.7561 11.1516 C 19.3359 10.9464 20.1156 10.7184 20.911 10.7184 C 21.053 10.7184 21.1939 10.7261 21.3296 10.741 C 21.7789 10.7888 22.1289 10.989 22.2898 11.291 C 22.4751 11.626 22.4686 12.0135 22.462 12.3887 L 22.4617 12.7311 L 22.2171 12.7296 C 21.1329 12.7296 20.2451 12.8124 19.4379 13.2142 C 18.793 13.5352 18.3321 14.1088 18.2053 14.7483 C 18.0371 15.6176 18.2297 16.4143 18.7196 16.8792 C 19.1068 17.2399 19.6501 17.4229 20.335 17.4229 ZM 21.9563 13.7365 L 22.2147 13.7379 L 22.462 13.739 L 22.461 14.1757 C 22.4596 14.6121 22.4579 15.0629 22.4696 15.5013 C 21.9966 15.9279 21.5122 16.1802 21.0302 16.2517 L 20.8112 16.265 C 20.3051 16.265 20.0439 16.0585 19.914 15.886 C 19.6849 15.564 19.6208 15.1016 19.7421 14.6487 C 19.8348 14.3287 20.1159 14.0543 20.4763 13.9315 C 20.9744 13.7516 21.5012 13.7365 21.9563 13.7365 ZM 6.5136 17.4275 C 6.7996 17.4275 7.0866 17.3898 7.3665 17.3156 C 7.9198 17.1723 8.4034 16.8267 8.8439 16.4727 C 8.8751 16.7419 8.9142 17.0135 8.9519 17.2673 C 10.158 17.2673 10.1592 17.2758 10.1592 17.2758 L 10.1592 11.8727 C 10.1653 11.4603 10.0948 10.868 9.7241 10.3876 C 9.4876 10.087 9.0162 9.7056 8.1125 9.5961 C 7.9073 9.5732 7.6962 9.5616 7.485 9.5616 C 6.5839 9.5616 5.624 9.7742 4.7088 10.1758 C 4.7742 10.4735 4.8428 10.8223 4.9236 11.1516 C 5.5016 10.9468 6.2789 10.7191 7.0709 10.7191 L 7.4028 10.7332 C 7.6724 10.7498 8.1637 10.8374 8.426 11.235 C 8.6441 11.5813 8.6369 11.9938 8.63 12.3928 L 8.6289 12.7311 C 7.9893 12.7311 7.3284 12.7318 6.6935 12.8599 C 5.8615 13.014 5.2348 13.337 4.8312 13.8192 C 4.3515 14.3763 4.1879 15.2328 4.4042 16.0546 C 4.5386 16.5719 4.9206 17.0178 5.4014 17.2188 C 5.7464 17.3571 6.1206 17.4275 6.5136 17.4275 ZM 8.116 13.7361 L 8.3781 13.7375 L 8.6293 13.739 L 8.6276 14.9281 L 8.6293 15.5253 C 8.2322 15.8477 7.7501 16.1852 7.182 16.2517 L 6.9755 16.2643 C 6.75 16.2643 6.3348 16.2151 6.0891 15.8857 C 5.8541 15.5725 5.7871 15.1132 5.9097 14.6561 C 5.9948 14.3239 6.2776 14.05 6.6668 13.9237 C 7.1562 13.7509 7.6714 13.7361 8.116 13.7361 ZM 0.7738 20 C 1.6871 19.6411 2.4071 19.0484 2.8009 18.3315 C 3.1948 17.5918 3.2112 16.725 3.227 15.8917 L 3.231 11.4557 L 3.2348 7.0257 C 2.9669 7.0176 2.6858 7.0081 2.4228 7.0081 C 2.1597 7.0081 1.8877 7.0081 1.6204 7.0004 C 1.6114 8.5143 1.603 10.0599 1.6042 11.5454 L 1.6028 14.9267 L 1.5987 15.5123 C 1.5984 16.1134 1.598 16.7345 1.4848 17.3367 C 1.3548 18.0081 0.8723 18.5846 0.0102 19.0984 C 0.3876 19.54 0.3853 19.5548 0.3853 19.5548 L 0.7738 20 ZM 3 5 L 3 4 L 21 4 L 21 7 L 23 7 L 23 0 L 1 0 L 1 5 L 3 5 Z" fill="#53b8eb"/>
	</g>
</svg>