<?xml version="1.0" standalone="no"?>
<!-- Generator: Adobe Fireworks 10, Export SVG Extension by Aaron Beall (http://fireworks.abeall.com) . Version: 0.6.1  -->
<!DOCTYPE svg PUBLIC "-//W3C//DTD SVG 1.1//EN" "http://www.w3.org/Graphics/SVG/1.1/DTD/svg11.dtd">
<svg id="Untitled-Page%201" viewBox="0 0 21 24" style="background-color:#ffffff00" version="1.1"
	xmlns="http://www.w3.org/2000/svg" xmlns:xlink="http://www.w3.org/1999/xlink" xml:space="preserve"
	x="0px" y="0px" width="21px" height="24px"
>
	<g id="Layer%201">
		<path d="M 17 20.6464 L 15.1871 22.244 L 8.5311 22.244 L 8.5311 21.5088 L 13.0626 15.1216 L 8.5311 9.1184 L 15.0619 9.1816 L 17 11.6408 L 17 8 L 5 8 L 5 8.6392 L 10.1562 16.048 L 5 23.0416 L 5 24 L 17 24 L 17 20.6464 ZM 21 0 L 0 0 L 0 19 L 4.98 19 L 6.455 17 L 2 17 L 2 4 L 19 4 L 19 17 L 14.73 17 L 13.31 19 L 21 19 L 21 0 Z" fill="#53b8eb"/>
	</g>
</svg>