<?xml version="1.0" standalone="no"?>
<!-- Generator: Adobe Fireworks 10, Export SVG Extension by Aaron Beall (http://fireworks.abeall.com) . Version: 0.6.1  -->
<!DOCTYPE svg PUBLIC "-//W3C//DTD SVG 1.1//EN" "http://www.w3.org/Graphics/SVG/1.1/DTD/svg11.dtd">
<svg id="Untitled-Page%201" viewBox="0 0 24 24" style="background-color:#ffffff00" version="1.1"
	xmlns="http://www.w3.org/2000/svg" xmlns:xlink="http://www.w3.org/1999/xlink" xml:space="preserve"
	x="0px" y="0px" width="24px" height="24px"
>
	<g id="Layer%201">
		<path d="M 22.6193 5.6461 L 23.5399 1.88 L 23.6833 1.7352 L 23.59 1.665 L 24 0 L 18.4769 1.4115 L 19.86 2.825 L 12 10.86 L 4.14 2.825 L 5.5231 1.4115 L 0 0 L 0.405 1.665 L 0.3167 1.7352 L 0.46 1.88 L 1.3807 5.6461 L 2.76 4.235 L 10.62 12.27 L 4.985 18.03 C 4.2825 17.9895 3.4077 18.0353 2.7667 18.0353 L 2.3511 18.4423 C 2.9114 18.6252 3.5977 18.6855 4.325 18.705 L 4.23 18.8 C 3.522 18.7561 2.634 18.8027 1.9829 18.8027 L 1.5674 19.2096 C 2.1356 19.395 2.8313 19.4514 3.5701 19.47 L 3.475 19.5701 C 2.7631 19.5234 1.8582 19.5701 1.1992 19.5701 L 0.7837 19.9771 C 1.3599 20.165 2.0698 20.2223 2.8201 20.24 L 2.725 20.34 C 2.0081 20.2896 1.085 20.3374 0.4155 20.3374 L 0 20.7444 C 0.5848 20.9353 1.3074 20.9933 2.0701 21.01 L 1.6709 21.415 L 3.0516 22.8265 L 3.28 22.595 C 3.3654 23.1079 3.4666 23.6023 3.6019 24 L 4.0177 23.593 C 3.9514 23.1389 3.9502 22.4991 3.9351 21.925 L 4.0601 21.7949 C 4.1465 22.3185 4.2478 22.8271 4.3857 23.2327 L 4.8013 22.8257 C 4.7339 22.3635 4.731 21.707 4.715 21.125 L 4.835 21.005 C 4.9222 21.5383 5.0291 22.0527 5.1694 22.4653 L 5.5851 22.0583 C 5.5164 21.5867 5.517 20.9156 5.5 20.325 L 5.615 20.205 C 5.7034 20.749 5.8101 21.2776 5.9532 21.698 L 6.3688 21.291 C 6.2988 20.811 6.2979 20.123 6.28 19.5249 L 12 13.6799 L 17.72 19.5249 C 17.702 20.1233 17.7013 20.8108 17.6312 21.291 L 18.0468 21.698 C 18.1897 21.2778 18.2966 20.7487 18.385 20.205 L 18.5 20.325 C 18.483 20.9158 18.4838 21.5867 18.4149 22.0583 L 18.8306 22.4653 C 18.9712 22.0525 19.0776 21.5337 19.165 21 L 19.2849 21.12 C 19.2688 21.7032 19.2664 22.3622 19.1987 22.8257 L 19.6143 23.2327 C 19.7523 22.8269 19.8586 22.3188 19.9451 21.7949 L 20.0649 21.9199 C 20.0496 22.4951 20.0487 23.1379 19.9823 23.593 L 20.3981 24 C 20.5334 23.6019 20.6345 23.1084 20.72 22.595 L 20.9484 22.8265 L 22.3291 21.415 L 21.9299 21.01 C 22.6923 20.9932 23.4154 20.9351 24 20.7444 L 23.5845 20.3374 C 22.915 20.3374 21.9919 20.2896 21.2749 20.34 L 21.1799 20.24 C 21.9307 20.2224 22.6396 20.1652 23.2163 19.9771 L 22.8008 19.5701 C 22.1406 19.5701 21.2324 19.5229 20.52 19.5701 L 20.425 19.47 C 21.1642 19.4514 21.864 19.3953 22.4326 19.2096 L 22.0171 18.8027 C 21.366 18.8027 20.4778 18.7561 19.77 18.8 L 19.675 18.705 C 20.4019 18.6855 21.089 18.625 21.6489 18.4423 L 21.2333 18.0353 C 20.5917 18.0353 19.7178 17.9893 19.0149 18.03 L 13.38 12.27 L 21.24 4.235 L 22.6193 5.6461 Z" stroke="#53b8eb" stroke-width="2" fill="none"/>
	</g>
</svg>