<?xml version="1.0" standalone="no"?>
<!-- Generator: Adobe Fireworks 10, Export SVG Extension by Aaron Beall (http://fireworks.abeall.com) . Version: 0.6.1  -->
<!DOCTYPE svg PUBLIC "-//W3C//DTD SVG 1.1//EN" "http://www.w3.org/Graphics/SVG/1.1/DTD/svg11.dtd">
<svg id="Untitled-Page%201" viewBox="0 0 23 19" style="background-color:#ffffff00" version="1.1"
	xmlns="http://www.w3.org/2000/svg" xmlns:xlink="http://www.w3.org/1999/xlink" xml:space="preserve"
	x="0px" y="0px" width="23px" height="19px"
>
	<g id="Layer%201">
		<path d="M 13 19 L 15 19 L 15 18 L 16 18 L 16 17 L 17 17 L 17 16 L 18 16 L 18 15 L 19 15 L 19 14 L 20 14 L 20 13 L 21 13 L 21 12 L 22 12 L 22 11 L 23 11 L 23 9 L 21 9 L 21 10 L 20 10 L 20 11 L 19 11 L 19 12 L 18 12 L 18 13 L 17 13 L 17 14 L 16 14 L 16 15 L 15 15 L 15 16 L 14 16 L 14 17 L 13 17 L 13 19 ZM 16 11 L 16 12 L 17 12 L 17 9 L 13 9 L 13 13 L 16 13 L 16 12 L 15 12 L 15 11 L 16 11 ZM 20 17 L 20 16 L 19 16 L 19 19 L 23 19 L 23 15 L 20 15 L 20 16 L 21 16 L 21 17 L 20 17 ZM 23 0 L 0 0 L 0 13 L 11 13 L 11 11 L 8 11 L 8 2 L 21 2 L 21 7 L 23 7 L 23 0 Z" fill="#53b8eb"/>
	</g>
</svg>