<?xml version="1.0" standalone="no"?>
<!-- Generator: Adobe Fireworks 10, Export SVG Extension by Aaron Beall (http://fireworks.abeall.com) . Version: 0.6.1  -->
<!DOCTYPE svg PUBLIC "-//W3C//DTD SVG 1.1//EN" "http://www.w3.org/Graphics/SVG/1.1/DTD/svg11.dtd">
<svg id="Untitled-Page%201" viewBox="0 0 72 72" style="background-color:#ffffff00" version="1.1"
	xmlns="http://www.w3.org/2000/svg" xmlns:xlink="http://www.w3.org/1999/xlink" xml:space="preserve"
	x="0px" y="0px" width="72px" height="72px"
>
	<g id="Layer%201">
		<path d="M 30.4611 38.7695 L 2.7696 38.7695 C 1.2396 38.7695 0 40.0093 0 41.5393 L 0 69.2305 C 0 70.7605 1.2396 72 2.7696 72 L 30.4611 72 C 31.9908 72 33.2304 70.7605 33.2304 69.2305 L 33.2304 41.5393 C 33.2304 40.0063 31.9908 38.7695 30.4611 38.7695 ZM 13.0781 66.4607 C 13.5545 65.6445 13.8474 64.7065 13.8474 63.6919 C 13.8474 60.6318 11.3678 58.1526 8.3085 58.1526 C 7.2935 58.1526 6.3555 58.4451 5.5389 58.9219 L 5.5389 51.8469 C 6.3555 52.3237 7.2935 52.6162 8.3085 52.6162 C 11.3678 52.6162 13.8474 50.137 13.8474 47.0776 C 13.8474 46.0632 13.5545 45.1252 13.0781 44.3081 L 20.1526 44.3081 C 19.6763 45.1252 19.3834 46.0632 19.3834 47.0776 C 19.3834 50.137 21.8626 52.6162 24.9222 52.6162 C 25.9369 52.6162 26.8748 52.3237 27.6915 51.8469 L 27.6915 58.9219 C 26.8748 58.4451 25.9369 58.1526 24.9222 58.1526 C 21.8626 58.1526 19.3834 60.6318 19.3834 63.6919 C 19.3834 64.7065 19.6763 65.6445 20.1526 66.4607 L 13.0781 66.4607 ZM 16.6166 49.8445 C 13.5577 49.8445 11.0778 52.3237 11.0778 55.3838 C 11.0778 58.4424 13.5577 60.9224 16.6166 60.9224 C 19.6759 60.9224 22.1558 58.4424 22.1558 55.3838 C 22.1558 52.3237 19.6759 49.8445 16.6166 49.8445 ZM 69.2304 38.7695 L 41.5392 38.7695 C 40.0092 38.7695 38.7696 40.0093 38.7696 41.5393 L 38.7696 55.3838 L 38.7696 69.2275 C 38.7696 70.7568 40.0092 71.9971 41.5392 71.9971 L 55.3837 71.9971 L 69.2276 71.9971 C 70.7569 71.9971 71.9972 70.7568 71.9972 69.2275 L 71.9972 41.5364 C 72 40.0063 70.7604 38.7695 69.2304 38.7695 ZM 44.3081 56.5313 L 56.5313 44.3081 L 62.5465 44.3081 L 44.3081 62.5464 L 44.3081 56.5313 ZM 44.3081 44.3081 L 48.6992 44.3081 L 44.3081 48.6992 L 44.3081 44.3081 ZM 66.4608 48.2231 L 66.4608 54.2349 L 54.2383 66.4607 L 48.2231 66.4607 L 66.4608 48.2231 ZM 66.4608 66.4607 L 62.0677 66.4607 L 66.4608 62.0676 L 66.4608 66.4607 ZM 69.2304 0 L 41.5392 0 C 40.0092 0 38.7696 1.2395 38.7696 2.7695 L 38.7696 30.4612 C 38.7696 31.9907 40.0092 33.2305 41.5392 33.2305 L 69.2304 33.2305 C 70.7604 33.2305 72 31.9907 72 30.4612 L 72 2.7695 C 72 1.2395 70.7604 0 69.2304 0 ZM 66.4608 27.6914 L 44.3081 27.6914 L 44.3081 5.5388 L 66.4608 5.5388 L 66.4608 27.6914 ZM 30.4611 0 L 2.7696 0 C 1.2396 0 0 1.2395 0 2.7695 L 0 30.4612 C 0 31.9907 1.2396 33.2305 2.7696 33.2305 L 30.4611 33.2305 C 31.9908 33.2305 33.2304 31.9907 33.2304 30.4612 L 33.2304 2.7695 C 33.2304 1.2395 31.9908 0 30.4611 0 Z" fill="#53b9e6"/>
	</g>
</svg>