<?xml version="1.0" standalone="no"?>
<!-- Generator: Adobe Fireworks 10, Export SVG Extension by Aaron Beall (http://fireworks.abeall.com) . Version: 0.6.1  -->
<!DOCTYPE svg PUBLIC "-//W3C//DTD SVG 1.1//EN" "http://www.w3.org/Graphics/SVG/1.1/DTD/svg11.dtd">
<svg id="Untitled-Page%201" viewBox="0 0 86 100" style="background-color:#ffffff00" version="1.1"
	xmlns="http://www.w3.org/2000/svg" xmlns:xlink="http://www.w3.org/1999/xlink" xml:space="preserve"
	x="0px" y="0px" width="86px" height="100px"
>
	<g id="Layer%201">
		<path d="M 73.1563 0 C 66.2666 0 60.6777 5.5859 60.6777 12.4775 C 60.6777 17.7319 67.9277 29.835 71.377 35.2925 C 71.7617 35.9033 72.4336 36.2725 73.1563 36.2744 C 73.875 36.2744 74.5508 35.9033 74.9336 35.2939 C 78.3809 29.8384 85.6338 17.7319 85.6338 12.478 C 85.6338 5.5859 80.0479 0 73.1563 0 ZM 73.1563 18.6372 C 70.0645 18.6372 67.5605 16.1309 67.5605 13.04 C 67.5605 9.9473 70.0645 7.4424 73.1563 7.4424 C 76.2461 7.4424 78.752 9.9473 78.752 13.04 C 78.752 16.1309 76.2461 18.6372 73.1563 18.6372 ZM 21.8857 61.7773 C 14.9971 61.7773 9.4082 67.3643 9.4082 74.2559 C 9.4082 79.5098 16.6611 91.6162 20.1069 97.0723 C 20.4917 97.6807 21.1655 98.0508 21.8857 98.0508 C 22.6089 98.0508 23.2798 97.6797 23.6646 97.0703 C 27.1133 91.6133 34.3633 79.5098 34.3633 74.2559 C 34.3633 67.3633 28.7773 61.7773 21.8857 61.7773 ZM 21.8857 80.415 C 18.7944 80.415 16.2896 77.9082 16.2896 74.8174 C 16.2896 71.7246 18.7944 69.2207 21.8857 69.2207 C 24.9771 69.2207 27.4819 71.7246 27.4819 74.8174 C 27.4814 77.9082 24.9771 80.415 21.8857 80.415 ZM 68.5566 37.0742 C 67.7256 35.7617 66.876 34.3623 66.0225 32.9395 L 6.2676 32.9395 C 3.0137 32.9395 0.3662 35.5869 0.3662 38.8408 L 0.3662 45.9287 C 0.3662 49.1821 3.0137 51.8291 6.2676 51.8291 L 41.1997 51.8291 C 41.5391 51.8291 41.8154 52.1055 41.8154 52.4443 L 41.8154 62.2227 C 41.8154 65.6113 44.5742 68.3691 47.9619 68.3691 L 63.7617 68.3691 C 64.4854 68.3691 65.0742 68.9561 65.0742 69.6797 L 65.0742 92.0176 C 65.0742 92.7422 64.4844 93.3301 63.7617 93.3301 L 29.8359 93.3301 C 28.7192 95.2402 27.5825 97.1152 26.4844 98.8506 C 26.207 99.2881 25.8657 99.666 25.4912 100 L 63.7617 100 C 68.1621 100 71.7451 96.4189 71.7451 92.0186 L 71.7451 69.6797 C 71.7451 65.2793 68.1621 61.6982 63.7617 61.6982 L 48.4863 61.6982 L 48.4863 52.4443 C 48.4863 48.4268 45.2168 45.1582 41.2002 45.1582 L 7.0366 45.1582 L 7.0366 39.6104 L 73.1484 39.6104 C 71.2695 39.605 69.5537 38.6553 68.5566 37.0742 Z" fill="#53b9e6"/>
	</g>
</svg>