<?xml version="1.0" standalone="no"?>
<!-- Generator: Adobe Fireworks 10, Export SVG Extension by Aaron Beall (http://fireworks.abeall.com) . Version: 0.6.1  -->
<!DOCTYPE svg PUBLIC "-//W3C//DTD SVG 1.1//EN" "http://www.w3.org/Graphics/SVG/1.1/DTD/svg11.dtd">
<svg id="Untitled-Page%201" viewBox="0 0 100 72" style="background-color:#ffffff00" version="1.1"
	xmlns="http://www.w3.org/2000/svg" xmlns:xlink="http://www.w3.org/1999/xlink" xml:space="preserve"
	x="0px" y="0px" width="100px" height="72px"
>
	<g id="Layer%201">
		<path d="M 24.0259 41.2461 L 24.0259 53.5547 L 64.9844 53.5547 L 64.9844 41.0215 L 24.0029 41.0215 C 24.0059 41.0977 24.0259 41.168 24.0259 41.2461 ZM 46.3179 44.9541 C 47.606 44.9541 48.6509 45.999 48.6509 47.2871 C 48.6509 48.5752 47.606 49.6191 46.3179 49.6191 C 45.0298 49.6191 43.9858 48.5752 43.9858 47.2871 C 43.9858 45.999 45.0298 44.9541 46.3179 44.9541 ZM 56.7949 56.2402 L 36.2109 56.2402 L 33.894 62.832 L 25.9551 62.832 C 24.9092 62.832 24.061 63.6797 24.061 64.7266 C 24.061 65.7715 24.9092 66.6201 25.9551 66.6201 L 64.9844 66.6201 L 64.9844 62.833 L 59.1133 62.833 L 56.7949 56.2402 ZM 96.9023 26.3599 L 72.126 26.3599 C 70.4297 26.3599 69.0293 27.7588 69.0293 29.457 L 69.0293 68.2188 C 69.0293 69.916 70.4277 71.3145 72.126 71.3145 L 96.9023 71.3145 C 98.6016 71.3145 100 69.917 100 68.2188 L 100 29.457 C 100 27.7588 98.6016 26.3599 96.9023 26.3599 ZM 84.6133 69.417 C 84.2139 69.417 83.8164 69.1162 83.8164 68.6172 C 83.8164 68.2188 84.1152 67.8184 84.6133 67.8184 C 85.0137 67.8184 85.4141 68.1182 85.4141 68.6172 C 85.4141 69.0176 85.0156 69.417 84.6133 69.417 ZM 96.7021 65.3203 L 72.0254 65.3203 L 72.0254 30.356 L 96.7021 30.356 L 96.7021 65.3203 ZM 12.0098 6.7031 L 12.0098 6.5239 C 12.0098 5.5361 12.813 4.7319 13.8008 4.7319 L 79.2051 4.7319 C 80.1934 4.7319 80.998 5.5361 80.998 6.5239 L 80.998 6.7021 L 80.998 22.314 L 85.0439 22.314 L 85.0439 6.7021 L 85.0439 6.5239 C 85.0439 3.3052 82.4258 0.686 79.2051 0.686 L 13.8008 0.686 C 10.582 0.686 7.9639 3.3062 7.9639 6.5239 L 7.9639 6.7031 L 7.9639 35.3008 L 12.0098 35.3008 L 12.0098 6.7031 ZM 18.0811 39.3477 L 1.897 39.3477 C 0.8979 39.3477 0 40.2461 0 41.2461 L 0 69.417 C 0 70.415 0.8979 71.3145 1.897 71.3145 L 18.0811 71.3145 C 19.1812 71.3145 19.979 70.415 19.979 69.417 L 19.979 41.2461 C 19.979 40.1465 19.0811 39.3477 18.0811 39.3477 ZM 9.79 69.6162 C 9.3911 69.6162 8.9902 69.3164 8.9902 68.8164 C 8.9902 68.417 9.291 68.0176 9.79 68.0176 C 10.29 68.0176 10.5898 68.3164 10.5898 68.8164 C 10.5898 69.3164 10.29 69.6162 9.79 69.6162 ZM 17.9819 66.3184 L 1.998 66.3184 L 1.998 42.3438 L 17.9819 42.3438 L 17.9819 66.3184 Z" fill="#53b9e6"/>
	</g>
</svg>