<?xml version="1.0" standalone="no"?>
<!-- Generator: Adobe Fireworks 10, Export SVG Extension by Aaron Beall (http://fireworks.abeall.com) . Version: 0.6.1  -->
<!DOCTYPE svg PUBLIC "-//W3C//DTD SVG 1.1//EN" "http://www.w3.org/Graphics/SVG/1.1/DTD/svg11.dtd">
<svg id="Untitled-Page%201" viewBox="0 0 36 28" style="background-color:#ffffff00" version="1.1"
	xmlns="http://www.w3.org/2000/svg" xmlns:xlink="http://www.w3.org/1999/xlink" xml:space="preserve"
	x="0px" y="0px" width="36px" height="28px"
>
	<g id="Layer%201">
		<g>
			<path d="M 11.4399 10.127 C 7.9991 10.127 5.2 12.957 5.2 16.4355 C 5.2 19.9136 7.9992 22.7432 11.4399 22.7432 C 14.8805 22.7432 17.6796 19.9136 17.6796 16.4355 C 17.6796 12.957 14.8804 10.127 11.4399 10.127 ZM 11.4399 21.405 C 8.7291 21.405 6.5238 19.1755 6.5238 16.4355 C 6.5238 13.6951 8.7292 11.4656 11.4399 11.4656 C 14.1505 11.4656 16.3558 13.6951 16.3558 16.4355 C 16.3558 19.1755 14.1505 21.405 11.4399 21.405 Z" fill="#6bbd49"/>
			<path d="M 21.8376 13.5366 L 20.9711 13.2952 C 20.8729 13.2678 20.7035 13.1086 20.6693 13.0112 L 20.4232 12.3994 L 20.4094 12.3677 C 20.3657 12.2734 20.3748 12.0376 20.4257 11.9468 L 20.862 11.1694 C 21.1663 10.6274 21.067 9.8862 20.6312 9.4463 L 18.478 7.269 C 18.2197 7.0083 17.8484 6.8589 17.4594 6.8589 C 17.2128 6.8589 16.9756 6.9202 16.7738 7.0359 L 16.0459 7.4536 C 16.0165 7.4705 15.9326 7.4956 15.8214 7.4956 C 15.7253 7.4956 15.6615 7.4766 15.6411 7.4666 L 14.8918 7.1475 L 14.8602 7.1353 C 14.7635 7.0999 14.605 6.9268 14.5776 6.8262 L 14.3313 5.9243 C 14.1674 5.3232 13.579 4.8706 12.9626 4.8706 L 9.9171 4.8706 C 9.3006 4.8706 8.7124 5.3235 8.5487 5.9238 L 8.3022 6.8262 C 8.2747 6.9272 8.1156 7.1011 8.0185 7.1367 L 7.212 7.4819 L 7.1778 7.4976 C 7.1576 7.5078 7.0939 7.5269 6.9977 7.5269 C 6.8889 7.5269 6.8068 7.5024 6.7777 7.4858 L 6.0927 7.0925 C 5.8906 6.9766 5.6534 6.9153 5.4066 6.9153 C 5.0173 6.9153 4.646 7.0649 4.3881 7.3259 L 2.2344 9.5027 C 1.7986 9.9434 1.6995 10.6841 2.0038 11.2261 L 2.4326 11.9897 C 2.4839 12.0811 2.494 12.3179 2.4506 12.4121 C 2.3307 12.6724 2.0008 13.1719 1.8427 13.3135 L 1.0421 13.5369 C 0.448 13.7026 0 14.2974 0 14.9204 L 0 17.999 C 0 18.6218 0.448 19.2166 1.042 19.3826 L 1.9084 19.6243 C 2.0071 19.6519 2.1766 19.811 2.2108 19.9082 L 2.4775 20.5645 L 2.491 20.5957 C 2.5348 20.6895 2.5263 20.9238 2.4757 21.0137 L 2.0807 21.7168 C 1.7767 22.2583 1.8759 22.999 2.3116 23.4399 L 4.4652 25.6167 C 4.7233 25.8777 5.0946 26.0273 5.4838 26.0273 L 5.4838 26.0273 C 5.7305 26.0273 5.9677 25.9661 6.1699 25.8501 L 6.8365 25.4678 C 6.8662 25.4507 6.9506 25.4253 7.0622 25.4253 C 7.1584 25.4253 7.2224 25.4443 7.2429 25.4543 L 8.0027 25.7769 L 8.035 25.7896 C 8.1315 25.8245 8.2896 25.9968 8.3169 26.0969 L 8.5487 26.9463 C 8.7124 27.5469 9.3009 28 9.9172 28 L 12.9628 28 C 13.5791 28 14.1675 27.5469 14.3314 26.9463 L 14.563 26.0967 C 14.5903 25.9971 14.7476 25.8259 14.8437 25.7913 L 15.5442 25.4995 L 15.5764 25.4849 C 15.5967 25.4751 15.6608 25.4565 15.7566 25.4565 C 15.8707 25.4565 15.9571 25.4824 15.9874 25.4998 L 16.6958 25.9065 C 16.8979 26.0225 17.1351 26.0837 17.382 26.0837 C 17.7714 26.0837 18.1426 25.9341 18.4006 25.6731 L 20.554 23.4963 C 20.9899 23.0557 21.0892 22.3149 20.7849 21.7729 L 20.3826 21.0569 C 20.3323 20.9673 20.324 20.7344 20.3678 20.6411 L 20.6566 19.9399 L 20.6687 19.9082 C 20.7031 19.811 20.8727 19.6514 20.9714 19.624 L 21.8381 19.3823 C 22.4321 19.2163 22.8801 18.6216 22.8801 17.9988 L 22.8801 14.9204 C 22.8798 14.2974 22.4319 13.7026 21.8376 13.5366 ZM 21.4857 18.0923 L 20.6191 18.3342 C 20.1107 18.4761 19.613 18.9395 19.4282 19.4407 L 19.1643 20.0835 C 18.9434 20.5701 18.9706 21.2534 19.2311 21.7178 L 19.6315 22.4304 C 19.6428 22.4585 19.6335 22.5288 19.6178 22.5503 L 17.4672 24.7246 C 17.4585 24.7312 17.4249 24.7458 17.3817 24.7458 C 17.3618 24.7458 17.3486 24.7417 17.3494 24.7432 L 16.6409 24.3362 C 16.3961 24.1958 16.082 24.1187 15.7564 24.1187 C 15.5688 24.1187 15.2912 24.1448 15.0245 24.2686 L 14.3817 24.5374 C 13.8855 24.7239 13.4268 25.2271 13.2864 25.7412 L 13.0562 26.5869 C 13.0443 26.6147 12.99 26.6567 12.9596 26.6616 L 9.9209 26.6621 C 9.891 26.6577 9.8352 26.615 9.8245 26.5906 L 9.5927 25.7412 C 9.4527 25.2278 8.9952 24.7246 8.5002 24.5366 L 7.8005 24.241 C 7.5317 24.1143 7.2515 24.0874 7.062 24.0874 C 6.7386 24.0874 6.4263 24.1641 6.183 24.304 L 5.5201 24.6843 C 5.5168 24.6855 5.5039 24.689 5.4837 24.689 C 5.4404 24.689 5.4066 24.6743 5.4009 24.6704 L 3.2504 22.4971 C 3.2319 22.4722 3.2224 22.4021 3.2317 22.3774 L 3.6266 21.6748 C 3.8868 21.2119 3.915 20.5288 3.6959 20.0415 L 3.4514 19.4414 C 3.2668 18.9399 2.769 18.4761 2.2601 18.334 L 1.3979 18.0938 C 1.3699 18.0815 1.3274 18.0254 1.3235 17.999 L 1.3233 14.9246 C 1.3273 14.894 1.3699 14.8379 1.3936 14.8269 L 2.2598 14.5854 C 2.9855 14.3833 3.6442 12.9907 3.6505 12.9766 C 3.8745 12.4905 3.8464 11.7979 3.5837 11.3296 L 3.1565 10.5688 C 3.1453 10.5405 3.1546 10.4705 3.17 10.4492 L 5.3208 8.2749 C 5.3295 8.2683 5.3631 8.2537 5.4063 8.2537 C 5.4263 8.2537 5.4391 8.2573 5.4388 8.2563 L 6.1235 8.6494 C 6.3657 8.7886 6.6761 8.8652 6.9974 8.8652 C 7.189 8.8652 7.472 8.8374 7.7433 8.7075 L 8.4893 8.3877 C 8.9824 8.198 9.4384 7.6943 9.578 7.1824 L 9.8233 6.2839 C 9.8351 6.2556 9.8909 6.2129 9.9168 6.209 L 12.9583 6.2087 C 12.9884 6.2129 13.0441 6.2559 13.0548 6.2803 L 13.301 7.1821 C 13.4409 7.6951 13.8979 8.1987 14.3921 8.3872 L 15.0813 8.6797 C 15.3507 8.8066 15.6313 8.834 15.8212 8.834 C 16.1443 8.834 16.4562 8.7568 16.6991 8.6174 L 17.4232 8.2021 C 17.4264 8.2007 17.4391 8.1973 17.459 8.1973 C 17.5024 8.1973 17.5363 8.2122 17.5417 8.2158 L 19.6921 10.3896 C 19.7104 10.4141 19.7198 10.4841 19.7103 10.5093 L 19.2739 11.2866 C 19.0141 11.7495 18.985 12.4319 19.2023 12.9185 L 19.4277 13.4771 C 19.6119 13.9792 20.1101 14.4438 20.619 14.5854 L 21.4814 14.8257 C 21.5094 14.8379 21.5518 14.894 21.5557 14.9204 L 21.5558 17.9951 C 21.5521 18.0254 21.5096 18.0818 21.4857 18.0923 Z" fill="#6bbd49"/>
			<path d="M 35.6252 6.1313 L 35.0299 5.9526 C 34.8197 5.8896 34.5911 5.666 34.5218 5.4556 L 34.3667 5.0493 C 34.2776 4.8469 34.2961 4.5254 34.4082 4.335 L 34.72 3.8032 C 34.832 3.6128 34.7993 3.3262 34.6476 3.1663 L 33.1893 1.6331 C 33.0372 1.4731 32.7552 1.4287 32.5624 1.5347 L 32.0544 1.8127 C 31.8616 1.9185 31.5441 1.9224 31.3488 1.8218 L 30.858 1.6021 C 30.6532 1.5225 30.4415 1.282 30.3872 1.0671 L 30.2291 0.4404 C 30.175 0.2256 29.9515 0.0464 29.7323 0.042 L 27.6284 0 C 27.4092 -0.0044 27.1786 0.1665 27.1163 0.3784 L 26.934 0.9985 C 26.8714 1.2109 26.6506 1.4434 26.4431 1.5151 L 25.9039 1.7339 C 25.7056 1.8279 25.3884 1.8123 25.2001 1.6992 L 24.7322 1.418 C 24.5436 1.3047 24.2599 1.3379 24.1019 1.4917 L 22.585 2.9658 C 22.4271 3.1191 22.3834 3.4045 22.4877 3.5994 L 22.7738 4.1333 C 22.8783 4.3281 22.8852 4.6499 22.7891 4.8484 C 22.693 5.0469 22.3173 5.6414 22.1047 5.6958 L 21.5031 5.8508 C 21.2908 5.9058 21.1133 6.1318 21.1089 6.3535 L 21.0676 8.48 C 21.0634 8.7017 21.2319 8.9346 21.442 8.9976 L 22.0373 9.1768 C 22.2476 9.2395 22.4764 9.4634 22.5459 9.6738 L 22.7136 10.1094 C 22.8034 10.3118 22.7856 10.6333 22.6734 10.8237 L 22.3915 11.3037 C 22.2794 11.4941 22.3122 11.781 22.4642 11.9409 L 23.9226 13.4741 C 24.0746 13.6338 24.3567 13.6782 24.5496 13.5728 L 25.0152 13.3176 C 25.2079 13.2119 25.5258 13.208 25.7212 13.3086 L 26.2194 13.5308 C 26.4241 13.6099 26.6364 13.8501 26.6902 14.0649 L 26.839 14.6548 C 26.8932 14.8696 27.1167 15.0491 27.336 15.0535 L 29.4399 15.0952 C 29.6592 15.0996 29.8894 14.9292 29.9519 14.7168 L 30.1234 14.1333 C 30.1856 13.9207 30.407 13.6892 30.6152 13.6191 L 31.0812 13.4346 C 31.2811 13.3433 31.5991 13.3613 31.7874 13.4746 L 32.2712 13.7651 C 32.4597 13.8784 32.7435 13.8452 32.9013 13.6914 L 34.4183 12.2175 C 34.5763 12.0635 34.6202 11.7786 34.5156 11.584 L 34.2473 11.0835 C 34.1431 10.8882 34.1378 10.5667 34.2362 10.3687 L 34.4347 9.9099 C 34.5126 9.7024 34.75 9.4878 34.9626 9.4331 L 35.5644 9.2783 C 35.7766 9.2234 35.9543 8.9976 35.9585 8.7759 L 35.9999 6.6492 C 36.0037 6.4277 35.8351 6.1946 35.6252 6.1313 ZM 28.4579 11.4429 C 26.3302 11.4004 24.6389 9.6223 24.6807 7.4712 C 24.7225 5.3198 26.4816 3.6099 28.6094 3.6523 C 30.7374 3.6948 32.4286 5.4731 32.3867 7.6245 C 32.3449 9.7754 30.5859 11.4851 28.4579 11.4429 Z" fill="#6bbd49"/>
		</g>
	</g>
</svg>