<?xml version="1.0" standalone="no"?>
<!-- Generator: Adobe Fireworks 10, Export SVG Extension by Aaron Beall (http://fireworks.abeall.com) . Version: 0.6.1  -->
<!DOCTYPE svg PUBLIC "-//W3C//DTD SVG 1.1//EN" "http://www.w3.org/Graphics/SVG/1.1/DTD/svg11.dtd">
<svg id="Untitled-Page%201" viewBox="0 0 72 66" style="background-color:#ffffff00" version="1.1"
	xmlns="http://www.w3.org/2000/svg" xmlns:xlink="http://www.w3.org/1999/xlink" xml:space="preserve"
	x="0px" y="0px" width="72px" height="66px"
>
	<g id="Layer%201">
		<g>
			<path id="Chart" d="M 60 66 C 53.3727 66 48 60.6273 48 54 C 48 48.4149 51.8335 43.7626 57 42.4241 L 57 36 L 15 36 L 15 42.4241 C 20.1667 43.7626 24 48.4149 24 54 C 24 60.6273 18.6275 66 12 66 C 5.3727 66 0 60.6273 0 54 C 0 48.4149 3.8335 43.7629 9 42.4241 L 9 36 L 9 30 L 15 30 L 33 30 L 33 23.5759 C 27.8335 22.2374 24 17.5851 24 12 C 24 5.3727 29.3727 0 36 0 C 42.6275 0 48 5.3727 48 12 C 48 17.5851 44.1667 22.2371 39 23.5759 L 39 30 L 57 30 L 63 30 L 63 36 L 63 42.4241 C 68.1667 43.7629 72 48.4149 72 54 C 72 60.6273 66.6273 66 60 66 ZM 12 48 C 8.6863 48 6 50.6865 6 54 C 6 57.3138 8.6863 60 12 60 C 15.3137 60 18 57.3138 18 54 C 18 50.6865 15.3137 48 12 48 ZM 42 12 C 42 8.6865 39.3138 6 36 6 C 32.6863 6 30 8.6865 30 12 C 30 15.3138 32.6863 18 36 18 C 39.3138 18 42 15.3138 42 12 ZM 60 48 C 56.6863 48 54 50.6865 54 54 C 54 57.3138 56.6863 60 60 60 C 63.3138 60 66 57.3138 66 54 C 66 50.6865 63.3138 48 60 48 Z" fill="#53b8eb"/>
		</g>
	</g>
</svg>