<?xml version="1.0" standalone="no"?>
<!-- Generator: Adobe Fireworks 10, Export SVG Extension by Aaron Beall (http://fireworks.abeall.com) . Version: 0.6.1  -->
<!DOCTYPE svg PUBLIC "-//W3C//DTD SVG 1.1//EN" "http://www.w3.org/Graphics/SVG/1.1/DTD/svg11.dtd">
<svg id="Untitled-Page%201" viewBox="0 0 150 150" style="background-color:#ffffff00" version="1.1"
	xmlns="http://www.w3.org/2000/svg" xmlns:xlink="http://www.w3.org/1999/xlink" xml:space="preserve"
	x="0px" y="0px" width="150px" height="150px"
>
	<defs>
			<mask id="mask1">
				<path d="M 74.3733 72.491 L 62.6741 65.5989 L 33.4262 116.5739 L 53.3696 117.8285 L 63.9275 134.1226 L 74.3733 116.0662 L 84.819 134.1226 L 95.3768 117.8285 L 115.3203 116.5739 L 86.0725 65.5989 L 74.3733 72.491 Z" fill="#ffffff"/>
			</mask>
	</defs>
	<g id="Layer%201">
		<path id="Ellipse" d="M 0 75 C 0 33.5781 33.5781 0 75 0 C 116.4219 0 150 33.5781 150 75 C 150 116.4219 116.4219 150 75 150 C 33.5781 150 0 116.4219 0 75 Z" fill="#eef6f9"/>
		<g>
			<g>
				<g>
					<path d="M 93.1755 83.5654 L 62.6741 65.5989 L 33.4262 116.5739 L 53.3696 117.8285 L 63.9275 134.1226 L 93.1755 83.5654 Z" fill="#53b9e6"/>
					<path opacity="0.2" d="M 89.415 85.7514 L 62.9663 70.1949 L 37.6044 114.3318 L 54.8982 115.4182 L 64.0532 129.5265 L 89.415 85.7514 Z" fill="#ffffff"/>
				</g>
				<g>
					<path d="M 55.571 83.5654 L 86.0725 65.5989 L 115.3203 116.5739 L 95.3768 117.8285 L 84.819 134.1226 L 55.571 83.5654 Z" fill="#53b9e6"/>
					<path opacity="0.2" d="M 59.3315 85.7514 L 85.7803 70.1949 L 111.1421 114.3318 L 93.8484 115.4182 L 84.6934 129.5265 L 59.3315 85.7514 Z" fill="#ffffff"/>
				</g>
			</g>
			<path opacity="0.051" mask="url(#mask1)" d="M 73.8718 36.886 C 73.8718 33.8684 72.5538 31.1581 70.4612 29.2998 C 68.6681 27.7075 66.3062 26.7409 63.7188 26.7409 C 58.5559 26.7409 54.292 30.5912 53.6482 35.5747 C 53.5928 36.0041 53.5654 36.4416 53.5654 36.886 C 53.5654 42.489 58.1111 47.0312 63.7188 47.0312 C 69.3262 47.0312 73.8718 42.489 73.8718 36.886 ZM 53.5654 36.886 C 53.5654 36.4416 53.5928 36.0041 53.6482 35.5747 L 53.543 35.6461 C 53.5587 35.8062 53.5654 35.9703 53.5654 36.1345 C 53.5654 38.8322 51.3767 41.0192 48.6769 41.0192 C 48.2114 41.0192 47.7608 40.9527 47.3344 40.8314 L 47.0637 41.1131 C 46.608 41.0507 46.1413 41.0192 45.6685 41.0192 C 40.061 41.0192 35.5153 45.5612 35.5153 51.1643 C 35.5153 54.0176 36.6937 56.5953 38.5914 58.4386 C 39.026 59.1687 39.2758 60.0221 39.2758 60.9337 C 39.2758 62.9309 38.0764 64.6479 36.3577 65.405 L 36.3238 65.9874 C 33.5718 67.8022 31.7549 70.9192 31.7549 74.4604 C 31.7549 79.3523 35.2208 83.4337 39.8323 84.3912 L 39.9865 84.7258 C 42.1635 85.2194 43.7883 87.1657 43.7883 89.4902 C 43.7883 89.7834 43.7625 90.072 43.7131 90.3507 C 43.2758 91.4834 43.0362 92.7123 43.0362 93.9991 C 43.0362 99.6022 47.5819 104.1443 53.1895 104.1443 C 54.8693 104.1443 56.453 103.7349 57.8486 103.0132 L 58.3337 103.2537 C 59.0369 102.8624 59.8483 102.6412 60.7103 102.6412 C 62.8173 102.6412 64.6147 103.9717 65.3018 105.8389 L 65.5161 105.8951 C 66.9775 109.7054 70.6724 112.4105 75 112.4105 C 79.2483 112.4105 82.8867 109.8022 84.4011 106.1019 L 84.6267 106.0493 C 85.2528 104.0729 87.1045 102.6412 89.2897 102.6412 C 90.2896 102.6412 91.219 102.942 91.9934 103.4567 L 92.5273 103.201 C 93.8286 103.8068 95.2805 104.1443 96.8105 104.1443 C 102.4181 104.1443 106.9639 99.6022 106.9639 93.9991 C 106.9639 92.7118 106.7246 91.4801 106.2869 90.3469 C 106.238 90.0686 106.2117 89.7825 106.2117 89.4902 C 106.2117 86.8869 108.2493 84.7587 110.8182 84.6131 L 111.0176 84.1771 C 115.1982 82.9217 118.2451 79.0468 118.2451 74.4604 C 118.2451 71.2653 116.7686 68.4144 114.4583 66.5547 C 114.4473 66.2579 114.4312 65.9628 114.4132 65.668 C 112.2939 65.1331 110.7242 63.2173 110.7242 60.9337 C 110.7242 60.023 110.9749 59.1686 111.4087 58.4386 C 111.8247 58.0346 112.2059 57.5971 112.5481 57.1273 C 112.6487 57.0463 112.7529 56.9675 112.8601 56.8943 L 112.8149 56.7441 C 113.8708 55.1437 114.4846 53.2249 114.4846 51.1643 C 114.4846 45.5612 109.939 41.0192 104.3315 41.0192 C 104.0931 41.0192 103.855 41.0256 103.6208 41.0418 L 103.2258 40.6359 C 102.6414 40.8828 101.9976 41.0192 101.3231 41.0192 C 98.6232 41.0192 96.4346 38.8322 96.4346 36.1345 C 96.4346 35.8133 96.4656 35.499 96.5248 35.1952 L 96.2653 35.0299 C 95.3923 30.3134 91.2542 26.7409 86.2813 26.7409 C 83.7361 26.7409 81.411 27.6749 79.629 29.2209 L 79.0085 29.1607 C 78.1248 30.4231 76.6589 31.2499 75 31.2499 C 73.3723 31.2499 71.9287 30.4545 71.0403 29.2321 L 70.4612 29.2998 C 72.5538 31.1581 73.8718 33.8684 73.8718 36.886 C 73.8718 42.489 69.3262 47.0312 63.7188 47.0312 C 58.1111 47.0312 53.5654 42.489 53.5654 36.886 Z" fill="#000000"/>
			<path d="M 73.8718 34.7968 C 73.8718 31.7793 72.5538 29.0689 70.4612 27.2107 C 68.6681 25.6183 66.3062 24.6518 63.7188 24.6518 C 58.5559 24.6518 54.292 28.5021 53.6482 33.4856 C 53.5928 33.9149 53.5654 34.3524 53.5654 34.7968 C 53.5654 40.3999 58.1111 44.942 63.7188 44.942 C 69.3262 44.942 73.8718 40.3999 73.8718 34.7968 ZM 53.5654 34.7968 C 53.5654 34.3524 53.5928 33.9149 53.6482 33.4856 L 53.543 33.5569 C 53.5587 33.717 53.5654 33.8812 53.5654 34.0454 C 53.5654 36.7431 51.3767 38.9301 48.6769 38.9301 C 48.2114 38.9301 47.7608 38.8636 47.3344 38.7422 L 47.0637 39.024 C 46.608 38.9615 46.1413 38.9301 45.6685 38.9301 C 40.061 38.9301 35.5153 43.472 35.5153 49.0752 C 35.5153 51.9285 36.6937 54.5062 38.5914 56.3495 C 39.026 57.0796 39.2758 57.933 39.2758 58.8445 C 39.2758 60.8418 38.0764 62.5587 36.3577 63.3158 L 36.3238 63.8983 C 33.5718 65.713 31.7549 68.8301 31.7549 72.3713 C 31.7549 77.2632 35.2208 81.3446 39.8323 82.3021 L 39.9865 82.6367 C 42.1635 83.1302 43.7883 85.0765 43.7883 87.401 C 43.7883 87.6943 43.7625 87.9829 43.7131 88.2616 C 43.2758 89.3943 43.0362 90.6232 43.0362 91.91 C 43.0362 97.5131 47.5819 102.0552 53.1895 102.0552 C 54.8693 102.0552 56.453 101.6458 57.8486 100.9241 L 58.3337 101.1646 C 59.0369 100.7733 59.8483 100.5521 60.7103 100.5521 C 62.8173 100.5521 64.6147 101.8826 65.3018 103.7497 L 65.5161 103.806 C 66.9775 107.6163 70.6724 110.3214 75 110.3214 C 79.2483 110.3214 82.8867 107.7131 84.4011 104.0128 L 84.6267 103.9601 C 85.2528 101.9838 87.1045 100.5521 89.2897 100.5521 C 90.2896 100.5521 91.219 100.8528 91.9934 101.3675 L 92.5273 101.1119 C 93.8286 101.7176 95.2805 102.0552 96.8105 102.0552 C 102.4181 102.0552 106.9639 97.5131 106.9639 91.91 C 106.9639 90.6226 106.7246 89.391 106.2869 88.2578 C 106.238 87.9795 106.2117 87.6933 106.2117 87.401 C 106.2117 84.7978 108.2493 82.6696 110.8182 82.5239 L 111.0176 82.088 C 115.1982 80.8325 118.2451 76.9576 118.2451 72.3713 C 118.2451 69.1761 116.7686 66.3253 114.4583 64.4656 C 114.4473 64.1687 114.4312 63.8736 114.4132 63.5788 C 112.2939 63.044 110.7242 61.1281 110.7242 58.8445 C 110.7242 57.9339 110.9749 57.0795 111.4087 56.3495 C 111.8247 55.9455 112.2059 55.508 112.5481 55.0382 C 112.6487 54.9572 112.7529 54.8784 112.8601 54.8052 L 112.8149 54.6549 C 113.8708 53.0546 114.4846 51.1358 114.4846 49.0752 C 114.4846 43.472 109.939 38.9301 104.3315 38.9301 C 104.0931 38.9301 103.855 38.9364 103.6208 38.9527 L 103.2258 38.5468 C 102.6414 38.7936 101.9976 38.9301 101.3231 38.9301 C 98.6232 38.9301 96.4346 36.7431 96.4346 34.0454 C 96.4346 33.7242 96.4656 33.4098 96.5248 33.106 L 96.2653 32.9407 C 95.3923 28.2242 91.2542 24.6518 86.2813 24.6518 C 83.7361 24.6518 81.411 25.5858 79.629 27.1317 L 79.0085 27.0716 C 78.1248 28.334 76.6589 29.1607 75 29.1607 C 73.3723 29.1607 71.9287 28.3654 71.0403 27.1429 L 70.4612 27.2107 C 72.5538 29.0689 73.8718 31.7793 73.8718 34.7968 C 73.8718 40.3999 69.3262 44.942 63.7188 44.942 C 58.1111 44.942 53.5654 40.3999 53.5654 34.7968 Z" fill="#53b9e6"/>
			<path id="Ellipse2" opacity="0.102" d="M 46.0446 67.4866 C 46.0446 51.3001 59.1765 38.1786 75.376 38.1786 C 91.5756 38.1786 104.7075 51.3001 104.7075 67.4866 C 104.7075 83.6732 91.5756 96.7947 75.376 96.7947 C 59.1765 96.7947 46.0446 83.6732 46.0446 67.4866 Z" fill="#232633"/>
			<path id="Ellipse3" d="M 54.3176 67.688 C 54.3176 56.1499 63.6708 46.7967 75.209 46.7967 C 86.7471 46.7967 96.1003 56.1499 96.1003 67.688 C 96.1003 79.2261 86.7471 88.5793 75.209 88.5793 C 63.6708 88.5793 54.3176 79.2261 54.3176 67.688 Z" fill="#ffffff"/>
			<path id="iconmonstr-star-2-icon" d="M 74.2813 56.8018 C 74.655 56.0186 75.2614 56.0186 75.6351 56.8018 L 78.8679 63.5736 L 86.209 64.6029 C 87.0581 64.7219 87.2454 65.3074 86.6274 65.9105 L 81.2839 71.1251 L 82.5885 78.533 C 82.7394 79.3898 82.249 79.7517 81.4932 79.3412 L 74.9583 75.7921 L 68.4233 79.3412 C 67.6675 79.7517 67.177 79.3898 67.3279 78.533 L 68.6324 71.1251 L 63.2891 65.9105 C 62.671 65.3074 62.8584 64.7219 63.7074 64.6029 L 71.0486 63.5736 L 74.2813 56.8018 Z" fill="#53b9e6"/>
		</g>
	</g>
</svg>