<?xml version="1.0" standalone="no"?>
<!-- Generator: Adobe Fireworks 10, Export SVG Extension by Aaron Beall (http://fireworks.abeall.com) . Version: 0.6.1  -->
<!DOCTYPE svg PUBLIC "-//W3C//DTD SVG 1.1//EN" "http://www.w3.org/Graphics/SVG/1.1/DTD/svg11.dtd">
<svg id="Untitled-Page%201" viewBox="0 0 150 150" style="background-color:#ffffff00" version="1.1"
	xmlns="http://www.w3.org/2000/svg" xmlns:xlink="http://www.w3.org/1999/xlink" xml:space="preserve"
	x="0px" y="0px" width="150px" height="150px"
>
	<defs>
			<mask id="mask1">
				<path d="M 57.6602 68.9415 L 93.1755 68.9415 L 93.1755 127.4373 L 75.1575 118.5482 L 57.6602 127.4373 L 57.6602 68.9415 Z" fill="#ffffff"/>
			</mask>
	</defs>
	<g id="Layer%201">
		<path id="Ellipse" d="M 0 75 C 0 33.5781 33.5781 0 75 0 C 116.4219 0 150 33.5781 150 75 C 150 116.4219 116.4219 150 75 150 C 33.5781 150 0 116.4219 0 75 Z" fill="#eef6f9"/>
		<g>
			<path d="M 57.6602 68.9415 L 93.1755 68.9415 L 93.1755 127.4373 L 75.1575 118.5482 L 57.6602 127.4373 L 57.6602 68.9415 Z" fill="#6bbd49"/>
			<path id="Ellipse2" opacity="0.051" mask="url(#mask1)" d="M 33.844 66.8524 C 33.844 43.7761 52.5505 25.0696 75.6268 25.0696 C 98.703 25.0696 117.4095 43.7761 117.4095 66.8524 C 117.4095 89.9286 98.703 108.6351 75.6268 108.6351 C 52.5505 108.6351 33.844 89.9286 33.844 66.8524 Z" fill="#000000"/>
			<path id="Ellipse3" d="M 33.844 64.7632 C 33.844 41.687 52.5505 22.9805 75.6268 22.9805 C 98.703 22.9805 117.4095 41.687 117.4095 64.7632 C 117.4095 87.8395 98.703 106.546 75.6268 106.546 C 52.5505 106.546 33.844 87.8395 33.844 64.7632 Z" fill="#6bbd49"/>
			<path id="Ellipse4" opacity="0.102" d="M 46.4624 64.5618 C 46.4624 48.3754 59.5944 35.2538 75.7938 35.2538 C 91.9933 35.2538 105.1253 48.3754 105.1253 64.5618 C 105.1253 80.7484 91.9933 93.8699 75.7938 93.8699 C 59.5944 93.8699 46.4624 80.7484 46.4624 64.5618 Z" fill="#232633"/>
			<path id="Ellipse5" d="M 54.7354 64.7632 C 54.7354 53.2251 64.0886 43.8718 75.6268 43.8718 C 87.1649 43.8718 96.5181 53.2251 96.5181 64.7632 C 96.5181 76.3013 87.1649 85.6546 75.6268 85.6546 C 64.0886 85.6546 54.7354 76.3013 54.7354 64.7632 Z" fill="#ffffff"/>
			<path d="M 66.4346 64.7358 C 66.4346 67.7275 67.3157 70.082 69.0781 71.795 C 70.8406 73.504 73.2616 74.3565 76.3412 74.3565 C 76.5677 74.3565 76.791 74.3507 77.01 74.3401 L 75.0895 70.9432 C 74.0366 70.7487 73.1382 70.2664 72.3896 69.4923 C 71.3878 68.4565 70.8869 66.8989 70.8869 64.8195 C 70.8869 63.2731 71.1487 61.9893 71.6738 60.9655 L 80.0211 75.7404 C 80.4254 76.4558 81.3127 76.6769 82.0037 76.2343 L 82.8683 75.6802 C 83.5599 75.2371 83.7886 74.2996 83.3785 73.5864 L 82.6372 72.2981 C 83.8002 71.3195 84.6213 70.1249 85.1039 68.7153 C 85.3351 68.0402 84.767 67.4726 83.9473 67.4726 L 82.4632 67.4726 C 82.0481 67.4726 81.6335 67.6171 81.2838 67.8429 C 81.1675 68.0238 81.0134 68.1816 80.8243 68.3033 L 80.6825 68.3943 C 80.6245 68.4711 80.5724 68.5505 80.5287 68.6313 L 72.013 53.8171 C 71.6 53.0986 70.6859 52.851 69.9718 53.2638 L 69.2665 53.6715 C 68.553 54.084 68.305 55.0027 68.7122 55.7234 L 69.5355 57.1796 L 69.4352 57.2662 C 67.4317 59.019 66.4346 61.5089 66.4346 64.7358 ZM 76.7996 58.3139 C 78.1167 58.4067 79.1321 58.8149 79.8474 59.537 C 80.0784 59.7714 80.2882 60.0623 80.4775 60.4102 C 80.8243 61.0473 81.6435 61.6085 82.4632 61.6085 L 83.9473 61.6085 C 84.767 61.6085 85.4101 61.0304 85.1948 60.3524 C 84.9559 59.5999 84.5419 58.8474 83.952 58.0948 C 82.2916 56.0193 79.6619 54.9795 76.0721 54.9795 C 75.6751 54.9795 75.2882 54.9969 74.912 55.0302 L 76.7996 58.3139 Z" fill="#6bbd49"/>
		</g>
	</g>
</svg>