<?xml version="1.0" standalone="no"?>
<!-- Generator: Adobe Fireworks 10, Export SVG Extension by Aaron Beall (http://fireworks.abeall.com) . Version: 0.6.1  -->
<!DOCTYPE svg PUBLIC "-//W3C//DTD SVG 1.1//EN" "http://www.w3.org/Graphics/SVG/1.1/DTD/svg11.dtd">
<svg id="Untitled-Page%201" viewBox="0 0 90 56" style="background-color:#ffffff00" version="1.1"
	xmlns="http://www.w3.org/2000/svg" xmlns:xlink="http://www.w3.org/1999/xlink" xml:space="preserve"
	x="0px" y="0px" width="90px" height="56px"
>
	<path d="M 53.5977 42.4639 C 53.5696 42.1257 53.4723 41.7874 53.3048 41.4661 L 32.1074 1.447 C 31.4824 0.2705 30.0709 -0.2847 28.7908 0.144 C 27.5086 0.5786 26.7432 1.8645 26.987 3.1765 L 35.2476 47.5532 C 35.3118 47.9053 35.4482 48.2217 35.6348 48.5088 C 35.7151 48.8882 35.8124 49.2654 35.9428 49.6438 C 37.2731 53.4414 40.9128 56 44.996 56 C 46.0514 56 47.1008 55.8293 48.103 55.489 C 50.5218 54.675 52.472 52.9836 53.5957 50.7239 C 54.7213 48.4646 54.8808 45.9138 54.0522 43.5349 C 53.9257 43.1626 53.7692 42.8071 53.5977 42.4639 ZM 45 3.0522 C 43.4881 3.0522 42.2652 4.2546 42.2652 5.7383 C 42.2652 7.2207 43.4881 8.4243 45 8.4243 C 66.7972 8.4243 84.5263 25.8591 84.5263 47.2852 C 84.5263 48.7666 85.7543 49.9712 87.2632 49.9712 C 88.7761 49.9712 90 48.7666 90 47.2852 C 89.998 22.8909 69.812 3.0522 45 3.0522 ZM 16.7209 12.8721 C 6.0956 21.321 0 33.8616 0 47.2842 C 0 48.7666 1.2239 49.9722 2.7358 49.9722 C 4.2507 49.9722 5.4736 48.7666 5.4736 47.2842 C 5.4736 35.4946 10.8268 24.4761 20.1619 17.0549 C 21.3397 16.1213 21.5183 14.428 20.5703 13.2737 C 19.6223 12.1204 17.8986 11.9395 16.7209 12.8721 Z" fill="#53b9e6"/>
</svg>