<?xml version="1.0" standalone="no"?>
<!-- Generator: Adobe Fireworks 10, Export SVG Extension by Aaron Beall (http://fireworks.abeall.com) . Version: 0.6.1  -->
<!DOCTYPE svg PUBLIC "-//W3C//DTD SVG 1.1//EN" "http://www.w3.org/Graphics/SVG/1.1/DTD/svg11.dtd">
<svg id="Untitled-Page%201" viewBox="0 0 48 44" style="background-color:#ffffff00" version="1.1"
	xmlns="http://www.w3.org/2000/svg" xmlns:xlink="http://www.w3.org/1999/xlink" xml:space="preserve"
	x="0px" y="0px" width="48px" height="44px"
>
	<g id="Layer%201">
		<path id="shopping155" d="M 48 22.4684 L 48 24.1903 C 48 25.6559 46.7452 26.8015 45.1456 26.8015 L 43.9078 26.8015 L 43.9078 25.0532 L 43.9078 21.6019 L 43.9078 20.5017 C 43.6382 10.3308 35.1707 2.7195 23.9988 2.7195 C 12.8304 2.7195 4.3698 10.3226 4.0922 20.4911 L 4.0922 21.6079 L 4.0922 25.058 L 4.0922 26.8086 L 2.8544 26.8086 C 1.2548 26.8074 0 25.6617 0 24.1978 L 0 22.4744 C 0 21.4575 0.603 20.5984 1.5051 20.1616 C 1.9521 8.6077 11.4688 0 23.9988 0 C 36.5279 0 46.0454 8.6077 46.4915 20.1567 C 47.3948 20.5876 48 21.4504 48 22.4684 L 48 22.4684 ZM 34.4539 33.6299 L 26.3083 33.6299 C 25.9147 32.8768 25.1523 32.3636 24.2764 32.3636 C 22.9978 32.3636 21.9601 33.4521 21.9601 34.7946 C 21.9601 36.137 22.9978 37.2206 24.2764 37.2206 C 25.2958 37.2206 26.1593 36.5284 26.4698 35.5677 L 32.9136 35.5677 C 29.4823 39.3186 25.2161 40.8149 24.0068 41.1826 C 21.8907 40.5167 10.4244 36.3064 10.4244 22.9349 C 10.4244 22.7118 10.4324 22.4945 10.4437 22.275 C 13.9557 21.5828 18.0637 20.4265 19.4562 18.6555 C 19.4562 18.6555 20.0114 21.9624 17.9727 23.3181 C 17.9727 23.3181 25.2013 22.151 26.4971 19.8191 C 26.4971 19.8191 26.7566 25.8612 37.4619 25.1987 C 37.1069 28.6833 35.9522 31.4413 34.4539 33.6299 L 34.4539 33.6299 ZM 40.2583 18.1722 L 39.4334 18.1722 C 37.3719 11.6864 31.2343 6.968 24 6.968 C 16.7657 6.968 10.6245 11.6864 8.5677 18.1722 L 7.7417 18.1722 C 6.0295 18.1722 4.6371 19.6365 4.6371 21.429 L 4.6371 25.2263 C 4.6371 27.0234 6.0317 28.4843 7.7417 28.4843 L 8.4779 28.4843 C 11.4391 40.4987 23.5392 43.8759 23.678 43.9188 L 23.991 44 L 24.3026 43.9211 C 24.4415 43.8866 36.5905 40.642 39.5302 28.4843 L 40.256 28.4843 C 41.9692 28.4843 43.3607 27.0198 43.3607 25.2263 L 43.3607 21.429 C 43.364 19.6365 41.9716 18.1722 40.2583 18.1722 L 40.2583 18.1722 Z" fill="#53b9e6"/>
	</g>
</svg>