<?xml version="1.0" standalone="no"?>
<!-- Generator: Adobe Fireworks 10, Export SVG Extension by Aaron Beall (http://fireworks.abeall.com) . Version: 0.6.1  -->
<!DOCTYPE svg PUBLIC "-//W3C//DTD SVG 1.1//EN" "http://www.w3.org/Graphics/SVG/1.1/DTD/svg11.dtd">
<svg id="Untitled-Page%201" viewBox="0 0 96 72" style="background-color:#ffffff00" version="1.1"
	xmlns="http://www.w3.org/2000/svg" xmlns:xlink="http://www.w3.org/1999/xlink" xml:space="preserve"
	x="0px" y="0px" width="96px" height="72px"
>
	<path d="M 81.4949 61.2046 L 85.003 61.769 C 85.5889 61.8623 86.187 61.7205 86.668 61.3689 C 87.1432 61.0269 87.4724 60.4971 87.5595 59.9092 L 88.0883 56.4199 C 88.1942 55.7151 88.6329 55.1189 89.2686 54.7993 L 92.4411 53.219 C 92.9783 52.949 93.3795 52.4863 93.5604 51.9229 C 93.7489 51.3538 93.6889 50.7446 93.4217 50.2166 L 91.7867 47.0662 C 91.4651 46.4514 91.4651 45.7019 91.7867 45.0803 L 93.4217 41.9338 C 93.6889 41.405 93.7442 40.7957 93.5604 40.2266 C 93.3767 39.6621 92.9736 39.2004 92.4411 38.9304 L 89.2686 37.3521 C 88.6329 37.0315 88.1942 36.4343 88.0883 35.7314 L 87.5595 32.2402 C 87.4724 31.6523 87.1432 31.1272 86.668 30.7852 C 86.187 30.4309 85.5889 30.2871 85.003 30.3833 L 81.4949 30.9683 C 80.7993 31.0833 80.0933 30.8542 79.5955 30.3535 L 77.1036 27.8274 C 76.6818 27.408 76.1174 27.1724 75.5183 27.1724 C 74.9286 27.1724 74.3511 27.4116 73.9339 27.8274 L 71.4421 30.3535 C 70.9461 30.8572 70.2374 31.0833 69.5417 30.9683 L 66.0392 30.3926 C 65.4533 30.2964 64.8552 30.4404 64.3705 30.7944 C 63.8933 31.1365 63.5662 31.6619 63.4789 32.2495 L 62.9549 35.741 C 62.8452 36.4436 62.4092 37.0408 61.7727 37.3613 L 58.5983 38.9397 C 58.0705 39.2097 57.6617 39.6704 57.4818 40.2358 C 57.2971 40.8049 57.3496 41.4143 57.6177 41.9424 L 59.2518 45.0898 C 59.5771 45.7075 59.5771 46.457 59.2518 47.0757 L 57.6177 50.2249 C 57.3496 50.7539 57.2971 51.364 57.4818 51.9324 C 57.6655 52.4958 58.0677 52.9583 58.5983 53.2285 L 61.7727 54.8086 C 62.4092 55.1292 62.8452 55.7263 62.9549 56.4282 L 63.4789 59.9204 C 63.5662 60.5037 63.8933 61.0334 64.3705 61.3784 C 64.8505 61.7297 65.4496 61.8718 66.0392 61.7783 L 69.5417 61.2046 C 70.2374 61.082 70.9461 61.3157 71.4421 61.8167 L 73.9339 64.3342 C 74.3539 64.7632 74.9249 64.9995 75.5183 64.9995 C 76.1136 64.9995 76.6855 64.7632 77.1036 64.3342 L 79.5955 61.8167 C 80.0933 61.3157 80.8021 61.082 81.4949 61.2046 ZM 75.5145 59.2195 C 68.0605 59.2195 61.9996 53.1799 61.9996 45.7524 C 61.9996 38.325 68.0633 32.2766 75.5145 32.2766 C 82.9695 32.2766 89.0305 38.3276 89.0305 45.7524 C 89.0305 53.176 82.9724 59.2195 75.5145 59.2195 ZM 75.5183 34.2205 C 69.1527 34.2205 63.9683 39.3809 63.9683 45.731 C 63.9683 52.0791 69.1555 57.2393 75.5183 57.2393 C 81.8895 57.2393 87.0683 52.0791 87.0683 45.731 C 87.0683 39.3809 81.8895 34.2205 75.5183 34.2205 ZM 4.0922 59.9075 L 4.0922 5.6084 C 4.0922 4.76 4.7813 4.0725 5.6297 4.0725 L 81.988 4.0725 C 82.8336 4.0725 83.5264 4.76 83.5264 5.6084 L 83.5264 28.2527 L 84.6205 28.0696 C 84.8652 28.0293 85.1136 28.0098 85.3602 28.0098 C 86.1476 28.0098 86.9014 28.2163 87.568 28.5881 L 87.613 5.6118 C 87.6186 2.5186 85.0911 0 81.988 0 L 5.6297 0 C 2.5256 0 0 2.5217 0 5.6118 L 0 59.9131 C 0 63.011 2.5284 65.5286 5.6297 65.5286 L 52.7193 65.5286 C 52.6011 64.4688 52.9583 63.4026 53.7299 62.6343 L 54.929 61.4373 L 5.6297 61.4373 C 4.7813 61.4373 4.0922 60.7466 4.0922 59.9075 ZM 69.8942 62.6594 L 66.2764 63.2456 C 65.263 63.4016 64.2805 63.1587 63.4827 62.5754 C 62.6859 62.0027 62.1439 61.1064 61.994 60.1279 L 61.6761 58.0225 L 55.394 64.2913 C 55.0827 64.6016 54.9674 65.0623 55.0949 65.4856 C 55.2289 65.9116 55.5843 66.2183 56.0146 66.3052 L 60.0074 67.0491 L 60.7565 71.0244 C 60.8371 71.4646 61.1521 71.8149 61.5768 71.9478 C 61.9968 72.0767 62.4589 71.9636 62.7702 71.6504 L 70.9771 63.467 L 70.378 62.8643 C 70.2477 62.7297 70.0733 62.6594 69.8942 62.6594 ZM 95.6454 64.2913 L 89.3595 58.0225 L 89.0427 60.1372 C 88.8926 61.1111 88.3499 62.009 87.5474 62.5847 C 86.7523 63.1633 85.7567 63.4072 84.7658 63.2456 L 81.2539 62.6746 C 80.9642 62.6558 80.788 62.7371 80.6614 62.8669 L 80.0624 63.467 L 88.272 71.6477 C 88.5889 71.9636 89.0483 72.0767 89.473 71.9478 C 89.8967 71.8149 90.2079 71.4646 90.2952 71.0244 L 91.0349 67.0544 L 95.0295 66.3079 C 95.4673 66.2275 95.8198 65.9146 95.9473 65.4883 C 96.0786 65.0623 95.9595 64.5986 95.6454 64.2913 ZM 15.7631 42.8459 C 14.7018 42.8459 13.8441 43.7012 13.8441 44.7515 C 13.8403 45.8074 14.6981 46.6653 15.7631 46.6653 L 41.8884 46.6653 C 42.9459 46.6653 43.8065 45.8149 43.8065 44.7544 C 43.8065 43.7012 42.9421 42.8459 41.8884 42.8459 L 15.7631 42.8459 ZM 55.2768 30.9983 C 55.2768 29.9451 54.4124 29.0901 53.3586 29.0901 L 15.7631 29.0901 C 14.7018 29.0901 13.8441 29.9451 13.8441 30.9954 C 13.8403 32.0515 14.6981 32.9094 15.7631 32.9094 L 53.3586 32.9094 C 54.4161 32.9094 55.2768 32.0588 55.2768 30.9983 ZM 73.7792 17.2932 C 73.7792 16.2363 72.9158 15.375 71.8621 15.375 L 15.7631 15.375 C 14.7018 15.375 13.8441 16.2297 13.8441 17.2871 C 13.8403 18.3501 14.6981 19.2019 15.7631 19.2019 L 71.8621 19.2019 C 72.9186 19.2019 73.7792 18.3501 73.7792 17.2932 Z" fill="#53b9e6"/>
</svg>