<?xml version="1.0" standalone="no"?>
<!-- Generator: Adobe Fireworks 10, Export SVG Extension by Aaron Beall (http://fireworks.abeall.com) . Version: 0.6.1  -->
<!DOCTYPE svg PUBLIC "-//W3C//DTD SVG 1.1//EN" "http://www.w3.org/Graphics/SVG/1.1/DTD/svg11.dtd">
<svg id="Untitled-Page%201" viewBox="0 0 27 32" style="background-color:#ffffff00" version="1.1"
	xmlns="http://www.w3.org/2000/svg" xmlns:xlink="http://www.w3.org/1999/xlink" xml:space="preserve"
	x="0px" y="0px" width="27px" height="32px"
>
	<g id="Layer%201">
		<g>
			<path d="M 25.5792 11.0854 L 20.1042 11.0854 L 20.1042 10.7026 C 20.1042 9.9153 19.4681 9.2769 18.6835 9.2769 L 1.4208 9.2769 C 0.6361 9.2769 0 9.9155 0 10.7026 L 0 30.5742 C 0 31.3616 0.6362 32 1.4208 32 L 18.6833 32 C 19.4681 32 20.1041 31.3616 20.1041 30.5742 L 20.1041 26.8169 C 21.1434 26.5244 22.409 25.915 23.5715 24.6619 C 25.8465 22.21 27 18.1218 27 12.5112 C 27 11.7239 26.3638 11.0854 25.5792 11.0854 ZM 7.4926 22.4409 C 7.8069 22.7026 7.8501 23.1704 7.5892 23.4858 C 7.4429 23.6626 7.2323 23.7539 7.02 23.7539 C 6.8533 23.7539 6.686 23.698 6.5481 23.5828 L 3.6985 21.2095 C 3.5292 21.0684 3.4313 20.8594 3.4313 20.6384 C 3.4313 20.4177 3.5292 20.2085 3.6985 20.0676 L 6.5481 17.6941 C 6.8622 17.4324 7.3283 17.4761 7.5892 17.7913 C 7.8501 18.1067 7.8069 18.5745 7.4926 18.8362 L 5.3286 20.6387 L 7.4926 22.4409 ZM 12.1206 16.1375 L 9.4041 25.5527 C 9.3102 25.8774 9.0149 26.0884 8.6942 26.0884 C 8.626 26.0884 8.5569 26.0789 8.4882 26.0588 C 8.0959 25.9448 7.87 25.5337 7.9837 25.1396 L 10.7 15.7246 C 10.8135 15.3311 11.2235 15.1045 11.6158 15.218 C 12.0081 15.3323 12.2339 15.7437 12.1206 16.1375 ZM 16.4054 21.2095 L 13.5561 23.583 C 13.418 23.6978 13.2505 23.7539 13.0843 23.7539 C 12.872 23.7539 12.6611 23.6626 12.515 23.4861 C 12.254 23.1707 12.2972 22.7026 12.6116 22.4409 L 14.7756 20.6384 L 12.6116 18.8362 C 12.2972 18.5745 12.254 18.1064 12.515 17.791 C 12.7758 17.4758 13.2419 17.4324 13.5562 17.6941 L 16.4055 20.0674 C 16.5751 20.2085 16.6729 20.4177 16.6729 20.6382 C 16.6727 20.8594 16.575 21.0684 16.4054 21.2095 ZM 20.1041 23.7847 L 20.1041 13.9373 L 24.131 13.9373 C 23.8704 20.5557 21.7889 22.9436 20.1041 23.7847 Z" fill="#6bbd49"/>
			<path d="M 4.6164 6.0881 C 4.7654 6.1616 4.9235 6.1963 5.079 6.1963 C 5.4668 6.1963 5.8397 5.98 6.0225 5.6072 L 8.0249 1.5193 C 8.2809 0.9968 8.0663 0.3652 7.5457 0.1084 C 7.0253 -0.1484 6.3956 0.0667 6.1398 0.5894 L 4.1371 4.6772 C 3.8812 5.1995 4.0957 5.8311 4.6164 6.0881 Z" fill="#6bbd49"/>
			<path d="M 10.5581 6.0881 C 10.7072 6.1616 10.8651 6.1963 11.0208 6.1963 C 11.4086 6.1963 11.7815 5.98 11.9641 5.6072 L 13.967 1.5195 C 14.2229 0.9968 14.0085 0.3652 13.4879 0.1084 C 12.9673 -0.1484 12.3378 0.0667 12.0818 0.5894 L 10.0788 4.677 C 9.8231 5.1995 10.0375 5.8311 10.5581 6.0881 Z" fill="#6bbd49"/>
		</g>
	</g>
</svg>