<?xml version="1.0" standalone="no"?>
<!-- Generator: Adobe Fireworks 10, Export SVG Extension by Aaron Beall (http://fireworks.abeall.com) . Version: 0.6.1  -->
<!DOCTYPE svg PUBLIC "-//W3C//DTD SVG 1.1//EN" "http://www.w3.org/Graphics/SVG/1.1/DTD/svg11.dtd">
<svg id="Untitled-Page%201" viewBox="0 0 72 72" style="background-color:#ffffff00" version="1.1"
	xmlns="http://www.w3.org/2000/svg" xmlns:xlink="http://www.w3.org/1999/xlink" xml:space="preserve"
	x="0px" y="0px" width="72px" height="72px"
>
	<g id="Layer%201">
		<path d="M 31.1347 13.9314 C 30.8753 13.6707 30.5592 13.4739 30.2101 13.3535 L 9.2145 6.1643 C 8.3419 5.8691 7.3768 6.0898 6.7233 6.7419 C 6.0725 7.394 5.8483 8.3606 6.1481 9.2322 L 13.3362 30.228 C 13.4561 30.5771 13.654 30.8931 13.9145 31.1536 L 47.5826 64.8228 C 49.8797 67.1221 52.9369 68.3892 56.1888 68.3892 C 59.4394 68.3892 62.4994 67.1221 64.8014 64.8193 C 69.5503 60.0703 69.5503 52.3442 64.8014 47.5967 L 31.1347 13.9314 ZM 29.9036 19.533 L 58.8685 48.4954 L 56.3063 51.0576 L 27.342 22.0942 L 29.9036 19.533 ZM 13.7489 16.5173 L 16.4995 13.7656 L 25.6904 16.9136 L 16.8961 25.7083 L 13.7489 16.5173 ZM 48.4763 58.8855 L 19.5142 29.9214 L 22.076 27.3591 L 51.0385 56.3247 L 48.4763 58.8855 ZM 61.3856 61.4021 C 58.9289 63.8582 54.81 64.114 51.9891 62.2043 L 62.1942 52.002 C 64.1995 54.8665 63.9401 58.8462 61.3856 61.4021 ZM 13.3643 41.3789 L 20.5197 48.5339 C 20.9915 49.0066 20.9915 49.77 20.5197 50.2427 C 20.283 50.4783 19.9719 50.5957 19.665 50.5957 C 19.3539 50.5957 19.0473 50.4783 18.8114 50.2427 L 11.6543 43.0876 L 8.3134 46.4302 L 12.1022 50.2188 C 12.574 50.6912 12.574 51.4548 12.1022 51.9272 C 11.8663 52.1628 11.5569 52.2803 11.2479 52.2803 C 10.9392 52.2803 10.6298 52.1628 10.3939 51.9272 L 6.6052 48.1382 L 2.6852 52.0596 L 6.4733 55.8479 C 6.9451 56.3198 6.9451 57.0842 6.4733 57.5559 C 6.2374 57.7915 5.9263 57.9097 5.6194 57.9097 C 5.3082 57.9097 5.0017 57.7915 4.7651 57.5559 L 0.977 53.7668 L 0.8307 53.9109 C 0.2971 54.4438 0 55.1675 0 55.9204 C 0 56.6748 0.2971 57.3977 0.8311 57.9307 L 14.0699 71.1677 C 15.178 72.2773 16.978 72.2773 18.0897 71.1677 L 33.4466 55.8115 L 16.1884 38.5537 L 13.3643 41.3789 ZM 71.1689 14.0693 L 57.9319 0.8328 C 57.3989 0.2996 56.674 0 55.9216 0 C 55.1686 0 54.4458 0.2991 53.9114 0.8328 L 53.7679 0.9778 L 57.555 4.7651 C 58.0261 5.2373 58.0261 6.0012 57.555 6.4734 C 57.3187 6.709 57.0094 6.8271 56.7007 6.8271 C 56.392 6.8271 56.082 6.709 55.8464 6.4734 L 52.0601 2.6855 L 48.7146 6.0286 L 52.5037 9.8149 C 52.9749 10.2869 52.9749 11.0515 52.5037 11.5229 C 52.2675 11.7588 51.9581 11.8767 51.6495 11.8767 C 51.3408 11.8767 51.0314 11.7588 50.7952 11.5229 L 47.0067 7.7368 L 43.6669 11.0796 L 50.8191 18.2336 C 51.2916 18.7053 51.2916 19.4697 50.8191 19.9414 C 50.5828 20.177 50.2762 20.2952 49.9655 20.2952 C 49.6589 20.2952 49.3467 20.177 49.1111 19.9414 L 41.9583 12.7876 L 38.6156 16.1292 L 55.7923 33.4634 L 71.1689 18.0891 C 72.277 16.9795 72.277 15.1794 71.1689 14.0693 Z" fill="#53b9e6"/>
	</g>
</svg>