<?xml version="1.0" standalone="no"?>
<!-- Generator: Adobe Fireworks 10, Export SVG Extension by Aaron Beall (http://fireworks.abeall.com) . Version: 0.6.1  -->
<!DOCTYPE svg PUBLIC "-//W3C//DTD SVG 1.1//EN" "http://www.w3.org/Graphics/SVG/1.1/DTD/svg11.dtd">
<svg id="Untitled-Page%201" viewBox="0 0 234 48" style="background-color:#ffffff00" version="1.1"
	xmlns="http://www.w3.org/2000/svg" xmlns:xlink="http://www.w3.org/1999/xlink" xml:space="preserve"
	x="0px" y="0px" width="234px" height="48px"
>
	<g id="Layer%201">
		<path d="M 229.8104 26.9385 L 225.6935 25.8242 C 224.7539 25.5605 224.0733 25.2554 223.6525 24.9072 C 223.231 24.5601 223.0201 24.0864 223.0201 23.4873 C 223.0201 22.7686 223.3519 22.1519 224.0154 21.6357 C 224.679 21.1206 225.5532 20.8628 226.639 20.8628 C 227.7241 20.8628 228.574 21.1094 229.1892 21.6016 C 229.8044 22.0938 230.1125 22.7852 230.1125 23.6733 L 230.1125 23.8174 L 233.3884 23.8174 C 233.4122 23.6973 233.4241 23.5176 233.4241 23.2773 C 233.4241 21.812 232.8489 20.6465 231.7007 19.7822 C 230.5511 18.917 228.9479 18.4849 226.8892 18.4849 C 225.764 18.4849 224.7465 18.623 223.8373 18.8989 C 222.9274 19.1758 222.1615 19.5654 221.5395 20.0703 C 220.9169 20.5742 220.4381 21.1636 220.1027 21.8354 C 219.7679 22.5083 219.601 23.2407 219.601 24.0337 C 219.601 26.4355 221.1967 28.0093 224.3888 28.7539 L 228.24 29.6548 C 229.6805 30.0146 230.4004 30.8076 230.4004 32.0322 C 230.4004 32.8735 230.0568 33.5581 229.3688 34.0859 C 228.6815 34.6152 227.7598 34.8789 226.6027 34.8789 C 225.4448 34.8789 224.5164 34.585 223.8173 33.9961 C 223.1182 33.4082 222.7686 32.6089 222.7686 31.6001 L 222.7686 31.5283 L 219.4569 31.5283 L 219.4569 31.9604 C 219.4569 33.8584 220.0448 35.2393 221.2205 36.104 C 222.396 36.9688 224.2448 37.4014 226.7645 37.4014 C 229.0437 37.4014 230.8197 36.8857 232.0919 35.8555 C 233.364 34.8247 234 33.4702 234 31.7925 C 234 29.2998 232.6031 27.6816 229.8104 26.9385 ZM 213.302 14.0527 L 209.9905 15.1694 L 209.9905 18.8809 L 206.9304 18.8809 L 206.9304 21.2588 L 209.9905 21.2588 L 209.9905 33.5459 C 209.9905 34.9873 210.3556 35.9844 211.0881 36.5366 C 211.8199 37.0889 213.0015 37.3652 214.6343 37.3652 C 215.3059 37.3652 216.1818 37.2207 217.2616 36.9326 L 217.2616 34.4106 C 216.9974 34.4829 216.7272 34.543 216.4519 34.5908 C 216.1758 34.6392 215.8938 34.6631 215.6058 34.6631 C 214.6461 34.6631 214.022 34.5068 213.734 34.1943 C 213.446 33.8828 213.302 33.27 213.302 32.3564 L 213.302 21.2588 L 217.3336 21.2588 L 217.3336 18.8809 L 213.302 18.8809 L 213.302 14.0527 ZM 196.851 18.4487 C 194.2109 18.4487 192.1655 19.272 190.7137 20.917 C 189.2613 22.5625 188.5355 25.0186 188.5355 28.2852 C 188.5355 31.2881 189.2554 33.5581 190.6952 35.0957 C 192.135 36.6328 194.2711 37.4014 197.1033 37.4014 C 198.1831 37.4014 199.1732 37.2505 200.0726 36.9507 C 200.973 36.6509 201.7404 36.23 202.3771 35.6895 C 203.0125 35.1494 203.5105 34.4951 203.8712 33.7256 C 204.2312 32.957 204.4107 32.1045 204.4107 31.168 L 201.243 31.168 C 201.2186 32.3208 200.823 33.2339 200.0549 33.9063 C 199.2867 34.5791 198.2306 34.915 196.8873 34.915 C 195.3034 34.915 194.067 34.4526 193.1793 33.5278 C 192.291 32.6035 191.8471 31.2759 191.8471 29.5464 L 191.8471 28.4653 L 204.6631 28.4653 C 204.7106 28.0815 204.7351 27.7085 204.7351 27.3481 L 204.7351 26.2676 C 204.7351 23.8413 204.0382 21.9316 202.6466 20.5386 C 201.255 19.1455 199.3223 18.4487 196.851 18.4487 ZM 201.3507 26.0874 L 192.0275 26.0874 C 192.0275 24.4409 192.4832 23.1343 193.3953 22.168 C 194.3074 21.2021 195.4711 20.7188 196.8873 20.7188 C 198.1831 20.7188 199.2504 21.1597 200.0912 22.0425 C 200.9306 22.9258 201.3507 24.1426 201.3507 25.6943 L 201.3507 26.0874 ZM 180.6884 21.1152 C 179.6085 19.3613 177.6759 18.4849 174.8927 18.4849 C 173.7408 18.4849 172.6965 18.6826 171.7607 19.0791 C 170.8248 19.4756 170.0151 20.0518 169.3308 20.8086 C 168.6473 21.5654 168.1188 22.4902 167.7471 23.583 C 167.3744 24.6763 167.1888 25.9194 167.1888 27.3125 C 167.1888 30.2188 167.8665 32.417 169.2233 33.9063 C 170.5784 35.3955 172.5288 36.1401 175.0724 36.1401 C 175.672 36.1401 176.2546 36.0684 176.8186 35.9238 C 177.382 35.7798 177.9037 35.5879 178.3846 35.3477 C 178.8641 35.1074 179.2842 34.8311 179.6442 34.5186 C 180.0042 34.2065 180.2683 33.8828 180.436 33.5459 L 180.436 36.9185 C 180.436 38.5439 180.0643 39.7578 179.3206 40.5596 C 178.5762 41.3604 177.3768 41.7607 175.7203 41.7607 C 173.0803 41.7607 171.7362 40.5234 171.6887 38.0498 L 168.0892 38.0498 C 168.1129 40.1875 168.6992 41.7373 169.8488 42.6978 C 170.9977 43.6582 172.842 44.1392 175.3796 44.1392 C 178.2764 44.1392 180.396 43.5317 181.7364 42.3193 C 183.0775 41.106 183.7484 39.1304 183.7484 36.3921 L 183.7484 22.0879 C 183.7484 21.7759 183.7535 21.3555 183.7662 20.8267 C 183.7781 20.2983 183.8204 19.6499 183.8923 18.8809 L 180.7953 18.8809 L 180.6884 21.1152 ZM 179.3926 32.2847 C 178.4321 33.4619 177.2328 34.0498 175.7922 34.0498 C 174.2804 34.0498 173.0506 33.498 172.1028 32.3926 C 171.1544 31.2881 170.6808 29.7148 170.6808 27.6729 C 170.6808 26.5439 170.8123 25.5469 171.0764 24.6821 C 171.3407 23.8174 171.6946 23.0967 172.1384 22.52 C 172.5823 21.9438 173.1107 21.5059 173.7223 21.2051 C 174.3346 20.9053 175.0003 20.7549 175.7203 20.7549 C 177.2328 20.7549 178.4618 21.3076 179.4104 22.4121 C 180.3582 23.5176 180.8324 25.0908 180.8324 27.1323 C 180.8324 29.3901 180.3522 31.1079 179.3926 32.2847 ZM 162.6171 33.3652 L 162.6171 11.0259 L 159.3054 11.0259 L 159.3054 21.6191 C 157.8656 19.6016 155.8973 18.5928 153.4014 18.5928 C 150.9299 18.5928 148.9921 19.416 147.5879 21.061 C 146.1836 22.7065 145.4823 25.0425 145.4823 28.0688 C 145.4823 29.5103 145.6678 30.8076 146.0397 31.9604 C 146.4115 33.1133 146.9459 34.0923 147.6421 34.897 C 148.3375 35.7021 149.1776 36.3203 150.1617 36.7524 C 151.1459 37.1851 152.2614 37.4014 153.5098 37.4014 C 154.7335 37.4014 155.7957 37.1611 156.6952 36.6807 C 157.5954 36.2002 158.4652 35.4077 159.3054 34.3027 L 159.4495 36.9688 L 162.833 36.9688 C 162.7373 36.2246 162.6764 35.5581 162.6534 34.9692 C 162.6289 34.3809 162.6171 33.8467 162.6171 33.3652 ZM 157.8292 33.4199 C 156.8451 34.6089 155.5975 35.2036 154.0856 35.2036 C 153.3657 35.2036 152.6933 35.041 152.0699 34.7168 C 151.4457 34.3926 150.8995 33.9185 150.4319 33.2935 C 149.9636 32.6689 149.5977 31.8882 149.3335 30.9512 C 149.0693 30.0146 148.9379 28.9341 148.9379 27.7085 C 148.9379 25.499 149.4293 23.7939 150.4141 22.5918 C 151.3975 21.3911 152.6459 20.7905 154.1577 20.7905 C 154.8776 20.7905 155.5552 20.9531 156.1913 21.2773 C 156.8273 21.6016 157.3735 22.0762 157.8292 22.7002 C 158.285 23.3252 158.6449 24.106 158.9091 25.0425 C 159.1733 25.979 159.3054 27.0601 159.3054 28.2852 C 159.3054 30.5195 158.8134 32.231 157.8292 33.4199 ZM 137.5632 36.9688 L 140.8749 36.9688 L 140.8749 18.8809 L 137.5632 18.8809 L 137.5632 36.9688 ZM 137.2389 14.7012 L 141.1272 14.7012 L 141.1272 11.0259 L 137.2389 11.0259 L 137.2389 14.7012 ZM 124.9996 32.2485 L 119.3123 11.0259 L 115.3884 11.0259 L 109.1251 31.7803 L 103.5454 11.0259 L 100.1254 11.0259 L 107.1806 36.9688 L 110.5649 36.9688 L 117.1525 14.8813 L 123.0195 36.9688 L 126.6561 36.9688 L 134.1432 11.0259 L 130.8317 11.0259 L 124.9996 32.2485 ZM 97.498 23.6011 C 97.498 21.5352 97.2332 19.6978 96.7054 18.0889 C 96.177 16.4795 95.4095 15.1157 94.4017 13.9985 C 93.3939 12.8818 92.1573 12.0352 90.6938 11.4585 C 89.2302 10.8818 87.5618 10.5938 85.6899 10.5938 C 81.9227 10.5938 79.0059 11.7412 76.9426 14.0347 C 74.8779 16.3291 73.8463 19.6377 73.8463 23.9614 C 73.8463 28.2617 74.8965 31.5459 76.996 33.8159 C 79.0964 36.0859 82.0778 37.2207 85.9423 37.2207 C 86.6133 37.2207 87.2797 37.1787 87.9402 37.0947 C 88.5994 37.0103 89.2776 36.9688 89.9738 36.9688 L 99.0092 36.9688 L 99.0092 33.834 L 93.6099 33.834 C 96.2015 31.6001 97.498 28.1895 97.498 23.6011 ZM 85.6544 34.1587 C 83.0381 34.1587 81.0335 33.27 79.6427 31.4922 C 78.2504 29.7148 77.5542 27.1445 77.5542 23.7813 C 77.5542 20.4185 78.2562 17.8545 79.6605 16.0889 C 81.0647 14.3228 83.0627 13.4404 85.6544 13.4404 C 88.246 13.4404 90.244 14.3174 91.6482 16.0703 C 93.0516 17.8242 93.7538 20.4067 93.7538 23.8174 C 93.7538 27.2041 93.0569 29.7749 91.666 31.5283 C 90.2737 33.2822 88.2698 34.1587 85.6544 34.1587 ZM 65.3149 14.7012 L 69.1305 14.7012 L 69.1305 11.0259 L 65.3149 11.0259 L 65.3149 14.7012 ZM 65.5665 38.23 C 65.5665 38.8784 65.5369 39.4063 65.4774 39.8154 C 65.4165 40.2231 65.2786 40.5537 65.0634 40.8062 C 64.8466 41.0581 64.5229 41.2324 64.0911 41.3286 C 63.6591 41.4243 63.0713 41.4727 62.3276 41.4727 L 62.3276 43.9229 C 62.7113 43.9707 63.0475 44.0068 63.3356 44.0313 C 63.6235 44.0547 63.8751 44.0669 64.0911 44.0669 C 65.8114 44.0669 67.0389 43.6465 67.7752 42.8062 C 68.51 41.9648 68.8789 40.6675 68.8789 38.9141 L 68.8789 18.8809 L 65.5665 18.8809 L 65.5665 38.23 ZM 17.6453 32.5732 L 57.6831 0 L 0 24.6055 L 20.479 48 L 25.9789 40.9043 L 33.0375 47.9609 L 57.6831 0 L 25.8999 40.8242 L 17.6453 32.5732 Z" fill="#ffffff"/>
	</g>
</svg>