<?xml version="1.0" standalone="no"?>
<!-- Generator: Adobe Fireworks 10, Export SVG Extension by Aaron Beall (http://fireworks.abeall.com) . Version: 0.6.1  -->
<!DOCTYPE svg PUBLIC "-//W3C//DTD SVG 1.1//EN" "http://www.w3.org/Graphics/SVG/1.1/DTD/svg11.dtd">
<svg id="Untitled-Page%201" viewBox="0 0 16 11" style="background-color:#ffffff00" version="1.1"
	xmlns="http://www.w3.org/2000/svg" xmlns:xlink="http://www.w3.org/1999/xlink" xml:space="preserve"
	x="0px" y="0px" width="16px" height="11px"
>
	<g id="Layer%201">
		<path id="more-arrow" d="M 0.2179 4.9745 L 4.9792 0.2177 C 5.2697 -0.0725 5.7409 -0.0725 6.0314 0.2177 C 6.3219 0.5079 6.3219 0.9785 6.0314 1.2688 L 2.54 4.7567 L 15.256 4.7567 C 15.6669 4.7567 16 5.0896 16 5.5 C 16 5.9104 15.6669 6.2433 15.256 6.2433 L 2.54 6.2433 L 6.0312 9.7312 C 6.3218 10.0215 6.3218 10.4921 6.0312 10.7823 C 5.886 10.9272 5.6956 11 5.5052 11 C 5.3148 11 5.1244 10.9272 4.9791 10.7823 L 0.2179 6.0255 C -0.0726 5.7352 -0.0726 5.2648 0.2179 4.9745 L 0.2179 4.9745 Z" fill="#53b9e6"/>
	</g>
</svg>