<?xml version="1.0" standalone="no"?>
<!-- Generator: Adobe Fireworks 10, Export SVG Extension by Aaron Beall (http://fireworks.abeall.com) . Version: 0.6.1  -->
<!DOCTYPE svg PUBLIC "-//W3C//DTD SVG 1.1//EN" "http://www.w3.org/Graphics/SVG/1.1/DTD/svg11.dtd">
<svg id="Untitled-Page%201" viewBox="0 0 16 11" style="background-color:#ffffff00" version="1.1"
	xmlns="http://www.w3.org/2000/svg" xmlns:xlink="http://www.w3.org/1999/xlink" xml:space="preserve"
	x="0px" y="0px" width="16px" height="11px"
>
	<g id="Layer%201">
		<path opacity="0.251" d="M 0.2011 8.3853 C -0.6618 5.4048 1.2449 0.9192 6.0653 0 L 6.7211 1.3696 C 5.2445 1.9072 4.266 3.1355 4.1214 4.4263 C 5.7819 4.6787 7.0518 6.0674 7.0518 7.7427 C 7.0518 11.4668 1.3663 12.4102 0.2011 8.3853 ZM 9.1494 8.3853 C 8.2864 5.4048 10.1931 0.9192 15.0135 0 L 15.6693 1.3696 C 14.1927 1.9072 13.2143 3.1355 13.0696 4.4263 C 14.73 4.6787 16 6.0674 16 7.7427 C 16 11.4668 10.3145 12.4102 9.1494 8.3853 Z" fill="#ffffff"/>
	</g>
</svg>